NunitoSans-OpszHeavy.ufo
<glyph name="dollar" format="2">
  <advance width="600"/>
  <unicode hex="0024"/>
  <outline>
    <contour>
      <point x="229" y="-115" type="line"/>
      <point x="389" y="-115" type="line"/>
      <point x="389" y="43" type="line"/>
      <point x="364" y="17" type="line"/>
      <point x="501" y="36"/>
      <point x="595" y="102"/>
      <point x="595" y="224" type="curve" smooth="yes"/>
      <point x="595" y="328"/>
      <point x="534" y="389"/>
      <point x="409" y="412" type="curve" smooth="yes"/>
      <point x="293" y="433" type="line" smooth="yes"/>
      <point x="241" y="442"/>
      <point x="225" y="450"/>
      <point x="225" y="476" type="curve" smooth="yes"/>
      <point x="225" y="504"/>
      <point x="259" y="523"/>
      <point x="322" y="523" type="curve" smooth="yes"/>
      <point x="395" y="523"/>
      <point x="463" y="502"/>
      <point x="509" y="479" type="curve"/>
      <point x="565" y="630" type="line"/>
      <point x="519" y="659"/>
      <point x="439" y="686"/>
      <point x="355" y="692" type="curve"/>
      <point x="389" y="671" type="line"/>
      <point x="389" y="820" type="line"/>
      <point x="229" y="820" type="line"/>
      <point x="229" y="671" type="line"/>
      <point x="264" y="689" type="line"/>
      <point x="118" y="670"/>
      <point x="23" y="605"/>
      <point x="23" y="483" type="curve" smooth="yes"/>
      <point x="23" y="376"/>
      <point x="83" y="315"/>
      <point x="208" y="291" type="curve" smooth="yes"/>
      <point x="325" y="269" type="line" smooth="yes"/>
      <point x="375" y="260"/>
      <point x="390" y="255"/>
      <point x="390" y="228" type="curve" smooth="yes"/>
      <point x="390" y="200"/>
      <point x="368" y="180"/>
      <point x="294" y="180" type="curve" smooth="yes"/>
      <point x="216" y="180"/>
      <point x="126" y="197"/>
      <point x="68" y="234" type="curve"/>
      <point x="11" y="75" type="line"/>
      <point x="70" y="35"/>
      <point x="164" y="18"/>
      <point x="263" y="13" type="curve"/>
      <point x="229" y="43" type="line"/>
    </contour>
  </outline>
</glyph>
<glyph name="ampersand" format="2">
  <advance width="822"/>
  <unicode hex="0026"/>
  <guideline x="632" y="206" angle="319"/>
  <outline>
    <contour>
      <point x="327" y="-12" type="curve" smooth="yes"/>
      <point x="429" y="-12"/>
      <point x="510" y="18"/>
      <point x="571" y="68" type="curve"/>
      <point x="543" y="68" type="line"/>
      <point x="619" y="0" type="line"/>
      <point x="866" y="0" type="line"/>
      <point x="641" y="201" type="line"/>
      <point x="670" y="166" type="line"/>
      <point x="735" y="230"/>
      <point x="774" y="313"/>
      <point x="779" y="419" type="curve"/>
      <point x="600" y="419" type="line"/>
      <point x="594" y="358"/>
      <point x="573" y="299"/>
      <point x="550" y="265" type="curve"/>
      <point x="558" y="275" type="line"/>
      <point x="427" y="388" type="line"/>
      <point x="446" y="365" type="line"/>
      <point x="510" y="398"/>
      <point x="602" y="459"/>
      <point x="602" y="547" type="curve" smooth="yes"/>
      <point x="602" y="647"/>
      <point x="529" y="717"/>
      <point x="368" y="717" type="curve" smooth="yes"/>
      <point x="219" y="717"/>
      <point x="112" y="634"/>
      <point x="112" y="527" type="curve" smooth="yes"/>
      <point x="112" y="452"/>
      <point x="148" y="413"/>
      <point x="208" y="366" type="curve"/>
      <point x="218" y="398" type="line"/>
      <point x="161" y="364" type="line" smooth="yes"/>
      <point x="103" y="329"/>
      <point x="47" y="275"/>
      <point x="47" y="183" type="curve" smooth="yes"/>
      <point x="47" y="55"/>
      <point x="152" y="-12"/>
    </contour>
    <contour>
      <point x="348" y="137" type="curve" smooth="yes"/>
      <point x="297" y="137"/>
      <point x="253" y="162"/>
      <point x="253" y="213" type="curve" smooth="yes"/>
      <point x="253" y="252"/>
      <point x="278" y="275"/>
      <point x="309" y="291" type="curve" smooth="yes"/>
      <point x="343" y="309" type="line"/>
      <point x="269" y="309" type="line"/>
      <point x="471" y="130" type="line"/>
      <point x="468" y="174" type="line"/>
      <point x="443" y="153"/>
      <point x="392" y="137"/>
    </contour>
    <contour>
      <point x="368" y="581" type="curve" smooth="yes"/>
      <point x="407" y="581"/>
      <point x="432" y="559"/>
      <point x="432" y="526" type="curve" smooth="yes"/>
      <point x="432" y="491"/>
      <point x="392" y="466"/>
      <point x="343" y="443" type="curve"/>
      <point x="379" y="426" type="line"/>
      <point x="343" y="452"/>
      <point x="304" y="486"/>
      <point x="304" y="524" type="curve" smooth="yes"/>
      <point x="304" y="554"/>
      <point x="324" y="581"/>
    </contour>
  </outline>
</glyph>
<glyph name="parenright" format="2">
  <advance width="456"/>
  <unicode hex="0029"/>
  <outline>
    <contour>
      <point x="179" y="-200" type="line"/>
      <point x="303" y="-77"/>
      <point x="360" y="69"/>
      <point x="360" y="263" type="curve" smooth="yes"/>
      <point x="360" y="457"/>
      <point x="303" y="603"/>
      <point x="179" y="726" type="curve"/>
      <point x="35" y="666" type="line"/>
      <point x="111" y="534"/>
      <point x="145" y="406"/>
      <point x="145" y="263" type="curve" smooth="yes"/>
      <point x="145" y="120"/>
      <point x="111" y="-8"/>
      <point x="35" y="-140" type="curve"/>
    </contour>
  </outline>
</glyph>
<glyph name="asterisk" format="2">
  <advance width="519"/>
  <unicode hex="002A"/>
  <outline>
    <contour>
      <point x="210" y="266" type="line"/>
      <point x="258" y="415" type="line"/>
      <point x="262" y="415" type="line"/>
      <point x="307" y="263" type="line"/>
      <point x="440" y="341" type="line"/>
      <point x="348" y="440" type="line"/>
      <point x="350" y="444" type="line"/>
      <point x="483" y="420" type="line"/>
      <point x="483" y="569" type="line"/>
      <point x="347" y="547" type="line"/>
      <point x="346" y="552" type="line"/>
      <point x="440" y="648" type="line"/>
      <point x="307" y="725" type="line"/>
      <point x="262" y="571" type="line"/>
      <point x="258" y="571" type="line"/>
      <point x="212" y="725" type="line"/>
      <point x="80" y="650" type="line"/>
      <point x="171" y="552" type="line"/>
      <point x="170" y="547" type="line"/>
      <point x="36" y="569" type="line"/>
      <point x="36" y="421" type="line"/>
      <point x="168" y="444" type="line"/>
      <point x="170" y="440" type="line"/>
      <point x="79" y="341" type="line"/>
    </contour>
  </outline>
</glyph>
<glyph name="plus" format="2">
  <advance width="600"/>
  <unicode hex="002B"/>
  <outline>
    <contour>
      <point x="229" y="40" type="line"/>
      <point x="371" y="40" type="line"/>
      <point x="371" y="219" type="line"/>
      <point x="544" y="219" type="line"/>
      <point x="544" y="355" type="line"/>
      <point x="371" y="355" type="line"/>
      <point x="371" y="528" type="line"/>
      <point x="229" y="528" type="line"/>
      <point x="229" y="355" type="line"/>
      <point x="56" y="355" type="line"/>
      <point x="56" y="219" type="line"/>
      <point x="229" y="219" type="line"/>
    </contour>
  </outline>
</glyph>
<glyph name="comma" format="2">
  <advance width="342"/>
  <unicode hex="002C"/>
  <outline>
    <contour>
      <point x="182" y="-195" type="line"/>
      <point x="271" y="-123"/>
      <point x="297" y="-44"/>
      <point x="297" y="57" type="curve" smooth="yes"/>
      <point x="297" y="228" type="line"/>
      <point x="45" y="228" type="line"/>
      <point x="45" y="0" type="line"/>
      <point x="216" y="0" type="line"/>
      <point x="167" y="36" type="line"/>
      <point x="160" y="-27"/>
      <point x="124" y="-78"/>
      <point x="78" y="-118" type="curve"/>
    </contour>
  </outline>
</glyph>
<glyph name="one" format="2">
  <advance width="600"/>
  <unicode hex="0031"/>
  <outline>
    <contour>
      <point x="80" y="0" type="line"/>
      <point x="595" y="0" type="line"/>
      <point x="595" y="170" type="line"/>
      <point x="450" y="170" type="line"/>
      <point x="450" y="705" type="line"/>
      <point x="298" y="705" type="line"/>
      <point x="42" y="563" type="line"/>
      <point x="119" y="408" type="line"/>
      <point x="332" y="526" type="line"/>
      <point x="235" y="526" type="line"/>
      <point x="235" y="170" type="line"/>
      <point x="80" y="170" type="line"/>
    </contour>
  </outline>
</glyph>
<glyph name="two" format="2">
  <advance width="600"/>
  <unicode hex="0032"/>
  <outline>
    <contour>
      <point x="57" y="0" type="line"/>
      <point x="570" y="0" type="line"/>
      <point x="570" y="170" type="line"/>
      <point x="324" y="170" type="line"/>
      <point x="324" y="178" type="line"/>
      <point x="407" y="263" type="line" smooth="yes"/>
      <point x="483" y="341"/>
      <point x="550" y="411"/>
      <point x="550" y="497" type="curve" smooth="yes"/>
      <point x="550" y="633"/>
      <point x="454" y="717"/>
      <point x="284" y="717" type="curve" smooth="yes"/>
      <point x="190" y="717"/>
      <point x="85" y="689"/>
      <point x="21" y="642" type="curve"/>
      <point x="86" y="491" type="line"/>
      <point x="140" y="529"/>
      <point x="204" y="547"/>
      <point x="252" y="547" type="curve" smooth="yes"/>
      <point x="305" y="547"/>
      <point x="342" y="521"/>
      <point x="342" y="480" type="curve" smooth="yes"/>
      <point x="342" y="447"/>
      <point x="324" y="417"/>
      <point x="275" y="368" type="curve" smooth="yes"/>
      <point x="57" y="154" type="line"/>
    </contour>
  </outline>
</glyph>
<glyph name="three" format="2">
  <advance width="600"/>
  <unicode hex="0033"/>
  <outline>
    <contour>
      <point x="277" y="-12" type="curve" smooth="yes"/>
      <point x="456" y="-12"/>
      <point x="565" y="67"/>
      <point x="565" y="198" type="curve" smooth="yes"/>
      <point x="565" y="286"/>
      <point x="500" y="333"/>
      <point x="430" y="358" type="curve"/>
      <point x="429" y="366" type="line"/>
      <point x="499" y="396"/>
      <point x="543" y="451"/>
      <point x="543" y="525" type="curve" smooth="yes"/>
      <point x="543" y="650"/>
      <point x="446" y="717"/>
      <point x="282" y="717" type="curve" smooth="yes"/>
      <point x="186" y="717"/>
      <point x="82" y="689"/>
      <point x="19" y="642" type="curve"/>
      <point x="84" y="492" type="line"/>
      <point x="134" y="529"/>
      <point x="199" y="548"/>
      <point x="260" y="548" type="curve" smooth="yes"/>
      <point x="312" y="548"/>
      <point x="339" y="527"/>
      <point x="339" y="492" type="curve" smooth="yes"/>
      <point x="339" y="458"/>
      <point x="310" y="432"/>
      <point x="264" y="432" type="curve" smooth="yes"/>
      <point x="136" y="432" type="line"/>
      <point x="136" y="276" type="line"/>
      <point x="285" y="276" type="line" smooth="yes"/>
      <point x="335" y="276"/>
      <point x="361" y="252"/>
      <point x="361" y="216" type="curve" smooth="yes"/>
      <point x="361" y="178"/>
      <point x="331" y="157"/>
      <point x="269" y="157" type="curve" smooth="yes"/>
      <point x="203" y="157"/>
      <point x="128" y="177"/>
      <point x="72" y="214" type="curve"/>
      <point x="8" y="61" type="line"/>
      <point x="62" y="17"/>
      <point x="175" y="-12"/>
    </contour>
  </outline>
</glyph>
<glyph name="five" format="2">
  <advance width="600"/>
  <unicode hex="0035"/>
  <outline>
    <contour>
      <point x="289" y="-12" type="curve" smooth="yes"/>
      <point x="468" y="-12"/>
      <point x="579" y="84"/>
      <point x="579" y="233" type="curve" smooth="yes"/>
      <point x="579" y="369"/>
      <point x="494" y="456"/>
      <point x="359" y="456" type="curve" smooth="yes"/>
      <point x="318" y="456"/>
      <point x="267" y="436"/>
      <point x="245" y="415" type="curve"/>
      <point x="237" y="415" type="line"/>
      <point x="237" y="534" type="line"/>
      <point x="533" y="534" type="line"/>
      <point x="533" y="705" type="line"/>
      <point x="58" y="705" type="line"/>
      <point x="58" y="268" type="line"/>
      <point x="189" y="268" type="line"/>
      <point x="221" y="290"/>
      <point x="252" y="302"/>
      <point x="290" y="302" type="curve" smooth="yes"/>
      <point x="343" y="302"/>
      <point x="379" y="275"/>
      <point x="379" y="228" type="curve" smooth="yes"/>
      <point x="379" y="181"/>
      <point x="342" y="157"/>
      <point x="284" y="157" type="curve" smooth="yes"/>
      <point x="223" y="157"/>
      <point x="158" y="178"/>
      <point x="102" y="214" type="curve"/>
      <point x="38" y="61" type="line"/>
      <point x="91" y="18"/>
      <point x="194" y="-12"/>
    </contour>
  </outline>
</glyph>
<glyph name="nine" format="2">
  <advance width="600"/>
  <unicode hex="0039"/>
  <outline>
    <contour>
      <point x="238" y="-12" type="curve" smooth="yes"/>
      <point x="448" y="-12"/>
      <point x="574" y="126"/>
      <point x="574" y="356" type="curve" smooth="yes"/>
      <point x="574" y="586"/>
      <point x="466" y="717"/>
      <point x="275" y="717" type="curve" smooth="yes"/>
      <point x="128" y="717"/>
      <point x="25" y="613"/>
      <point x="25" y="467" type="curve" smooth="yes"/>
      <point x="25" y="334"/>
      <point x="114" y="240"/>
      <point x="227" y="240" type="curve" smooth="yes"/>
      <point x="297" y="240"/>
      <point x="352" y="268"/>
      <point x="381" y="326" type="curve"/>
      <point x="389" y="326" type="line"/>
      <point x="389" y="317" type="line" smooth="yes"/>
      <point x="389" y="215"/>
      <point x="329" y="153"/>
      <point x="239" y="153" type="curve" smooth="yes"/>
      <point x="186" y="153"/>
      <point x="132" y="170"/>
      <point x="84" y="203" type="curve"/>
      <point x="20" y="57" type="line"/>
      <point x="82" y="11"/>
      <point x="159" y="-12"/>
    </contour>
    <contour>
      <point x="284" y="395" type="curve" smooth="yes"/>
      <point x="236" y="395"/>
      <point x="210" y="428"/>
      <point x="210" y="478" type="curve" smooth="yes"/>
      <point x="210" y="528"/>
      <point x="236" y="561"/>
      <point x="284" y="561" type="curve" smooth="yes"/>
      <point x="332" y="561"/>
      <point x="358" y="528"/>
      <point x="358" y="478" type="curve" smooth="yes"/>
      <point x="358" y="428"/>
      <point x="332" y="395"/>
    </contour>
  </outline>
</glyph>
<glyph name="question" format="2">
  <advance width="587"/>
  <unicode hex="003F"/>
  <guideline x="267" y="750" angle="0"/>
  <outline>
    <contour>
      <point x="193" y="283" type="line"/>
      <point x="364" y="283" type="line"/>
      <point x="366" y="291" type="line" smooth="yes"/>
      <point x="370" y="307"/>
      <point x="388" y="328"/>
      <point x="439" y="348" type="curve" smooth="yes"/>
      <point x="505" y="374"/>
      <point x="577" y="430"/>
      <point x="577" y="518" type="curve" smooth="yes"/>
      <point x="577" y="652"/>
      <point x="464" y="717"/>
      <point x="293" y="717" type="curve" smooth="yes"/>
      <point x="205" y="717"/>
      <point x="87" y="703"/>
      <point x="10" y="645" type="curve"/>
      <point x="77" y="478" type="line"/>
      <point x="141" y="522"/>
      <point x="210" y="535"/>
      <point x="269" y="535" type="curve" smooth="yes"/>
      <point x="322" y="535"/>
      <point x="362" y="526"/>
      <point x="362" y="497" type="curve" smooth="yes"/>
      <point x="362" y="467"/>
      <point x="325" y="445"/>
      <point x="280" y="421" type="curve" smooth="yes"/>
      <point x="222" y="390"/>
      <point x="193" y="362"/>
      <point x="193" y="307" type="curve" smooth="yes"/>
    </contour>
    <contour>
      <point x="162" y="0" type="line"/>
      <point x="394" y="0" type="line"/>
      <point x="394" y="207" type="line"/>
      <point x="162" y="207" type="line"/>
    </contour>
  </outline>
</glyph>
<glyph name="A" format="2">
  <advance width="839"/>
  <unicode hex="0041"/>
  <guideline x="50" y="388" angle="67.0891"/>
  <guideline x="496" y="265" angle="292.91089999999997"/>
  <anchor x="419" y="0" name="bottom"/>
  <anchor x="754" y="0" name="ogonek"/>
  <anchor x="419" y="705" name="top"/>
  <outline>
    <contour>
      <point x="-10" y="0" type="line"/>
      <point x="217" y="0" type="line"/>
      <point x="298" y="191" type="line"/>
      <point x="213" y="102" type="line"/>
      <point x="620" y="102" type="line"/>
      <point x="536" y="191" type="line"/>
      <point x="617" y="0" type="line"/>
      <point x="849" y="0" type="line"/>
      <point x="518" y="705" type="line"/>
      <point x="321" y="705" type="line"/>
    </contour>
    <contour>
      <point x="414" y="490" type="line"/>
      <point x="422" y="490" type="line"/>
      <point x="526" y="236" type="line"/>
      <point x="551" y="282" type="line"/>
      <point x="283" y="282" type="line"/>
      <point x="308" y="236" type="line"/>
    </contour>
  </outline>
</glyph>
<glyph name="C" format="2">
  <advance width="735"/>
  <unicode hex="0043"/>
  <anchor x="421" y="0" name="bottom"/>
  <anchor x="420" y="705" name="top"/>
  <outline>
    <contour>
      <point x="441" y="-13" type="curve" smooth="yes"/>
      <point x="541" y="-13"/>
      <point x="627" y="8"/>
      <point x="679" y="52" type="curve"/>
      <point x="614" y="224" type="line"/>
      <point x="556" y="187"/>
      <point x="507" y="178"/>
      <point x="452" y="178" type="curve" smooth="yes"/>
      <point x="354" y="178"/>
      <point x="288" y="237"/>
      <point x="288" y="354" type="curve" smooth="yes"/>
      <point x="288" y="471"/>
      <point x="358" y="526"/>
      <point x="452" y="526" type="curve" smooth="yes"/>
      <point x="507" y="526"/>
      <point x="556" y="517"/>
      <point x="614" y="480" type="curve"/>
      <point x="679" y="653" type="line"/>
      <point x="627" y="697"/>
      <point x="541" y="717"/>
      <point x="441" y="717" type="curve" smooth="yes"/>
      <point x="216" y="717"/>
      <point x="60" y="582"/>
      <point x="60" y="353" type="curve" smooth="yes"/>
      <point x="60" y="123"/>
      <point x="217" y="-13"/>
    </contour>
  </outline>
</glyph>
<glyph name="D" format="2">
  <advance width="849"/>
  <unicode hex="0044"/>
  <anchor x="414" y="0" name="bottom"/>
  <anchor x="237" y="358" name="center"/>
  <anchor x="414" y="705" name="top"/>
  <outline>
    <contour>
      <point x="80" y="0" type="line"/>
      <point x="413" y="0" type="line" smooth="yes"/>
      <point x="649" y="0"/>
      <point x="789" y="131"/>
      <point x="789" y="353" type="curve" smooth="yes"/>
      <point x="789" y="574"/>
      <point x="649" y="705"/>
      <point x="413" y="705" type="curve" smooth="yes"/>
      <point x="80" y="705" type="line"/>
    </contour>
    <contour>
      <point x="305" y="186" type="line"/>
      <point x="305" y="519" type="line"/>
      <point x="395" y="519" type="line" smooth="yes"/>
      <point x="499" y="519"/>
      <point x="561" y="459"/>
      <point x="561" y="353" type="curve" smooth="yes"/>
      <point x="561" y="247"/>
      <point x="499" y="186"/>
      <point x="395" y="186" type="curve" smooth="yes"/>
    </contour>
  </outline>
</glyph>
<glyph name="E" format="2">
  <advance width="693"/>
  <unicode hex="0045"/>
  <guideline x="588" y="353" angle="270"/>
  <anchor x="359" y="0" name="bottom"/>
  <anchor x="568" y="0" name="ogonek"/>
  <anchor x="359" y="705" name="top"/>
  <anchor x="41" y="705" name="topleft"/>
  <outline>
    <contour>
      <point x="80" y="0" type="line"/>
      <point x="620" y="0" type="line"/>
      <point x="620" y="176" type="line"/>
      <point x="295" y="176" type="line"/>
      <point x="295" y="270" type="line"/>
      <point x="597" y="270" type="line"/>
      <point x="597" y="442" type="line"/>
      <point x="295" y="442" type="line"/>
      <point x="295" y="529" type="line"/>
      <point x="620" y="529" type="line"/>
      <point x="620" y="705" type="line"/>
      <point x="80" y="705" type="line"/>
    </contour>
  </outline>
</glyph>
<glyph name="F" format="2">
  <advance width="658"/>
  <unicode hex="0046"/>
  <anchor x="325" y="0" name="bottom"/>
  <anchor x="359" y="705" name="top"/>
  <outline>
    <contour>
      <point x="80" y="0" type="line"/>
      <point x="305" y="0" type="line"/>
      <point x="305" y="251" type="line"/>
      <point x="598" y="251" type="line"/>
      <point x="598" y="427" type="line"/>
      <point x="305" y="427" type="line"/>
      <point x="305" y="529" type="line"/>
      <point x="618" y="529" type="line"/>
      <point x="618" y="705" type="line"/>
      <point x="80" y="705" type="line"/>
    </contour>
  </outline>
</glyph>
<glyph name="G" format="2">
  <advance width="812"/>
  <unicode hex="0047"/>
  <anchor x="440" y="0" name="bottom"/>
  <anchor x="448" y="705" name="top"/>
  <outline>
    <contour>
      <point x="440" y="-12" type="curve" smooth="yes"/>
      <point x="554" y="-12"/>
      <point x="660" y="7"/>
      <point x="740" y="44" type="curve"/>
      <point x="740" y="407" type="line"/>
      <point x="429" y="407" type="line"/>
      <point x="429" y="261" type="line"/>
      <point x="558" y="261" type="line"/>
      <point x="558" y="112" type="line"/>
      <point x="594" y="185" type="line"/>
      <point x="558" y="172"/>
      <point x="523" y="169"/>
      <point x="461" y="169" type="curve" smooth="yes"/>
      <point x="344" y="169"/>
      <point x="285" y="234"/>
      <point x="285" y="353" type="curve" smooth="yes"/>
      <point x="285" y="474"/>
      <point x="359" y="527"/>
      <point x="456" y="527" type="curve" smooth="yes"/>
      <point x="520" y="527"/>
      <point x="583" y="519"/>
      <point x="650" y="482" type="curve"/>
      <point x="715" y="653" type="line"/>
      <point x="659" y="696"/>
      <point x="551" y="717"/>
      <point x="447" y="717" type="curve" smooth="yes"/>
      <point x="209" y="717"/>
      <point x="60" y="582"/>
      <point x="60" y="353" type="curve" smooth="yes"/>
      <point x="60" y="128"/>
      <point x="210" y="-12"/>
    </contour>
  </outline>
</glyph>
<glyph name="J" format="2">
  <advance width="473"/>
  <unicode hex="004A"/>
  <anchor x="280" y="0" name="bottom"/>
  <anchor x="280" y="705" name="top"/>
  <outline>
    <contour>
      <point x="23" y="-12" type="line"/>
      <point x="156" y="-7" type="line" smooth="yes"/>
      <point x="316" y="-1"/>
      <point x="393" y="79"/>
      <point x="393" y="221" type="curve" smooth="yes"/>
      <point x="393" y="705" type="line"/>
      <point x="168" y="705" type="line"/>
      <point x="168" y="242" type="line" smooth="yes"/>
      <point x="168" y="201"/>
      <point x="155" y="180"/>
      <point x="112" y="178" type="curve" smooth="yes"/>
      <point x="10" y="173" type="line"/>
    </contour>
  </outline>
</glyph>
<glyph name="K" format="2">
  <advance width="822"/>
  <unicode hex="004B"/>
  <anchor x="400" y="0" name="bottom"/>
  <anchor x="400" y="705" name="top"/>
  <anchor x="41" y="705" name="topleft"/>
  <outline>
    <contour>
      <point x="80" y="0" type="line"/>
      <point x="305" y="0" type="line"/>
      <point x="305" y="309" type="line"/>
      <point x="313" y="309" type="line"/>
      <point x="565" y="0" type="line"/>
      <point x="841" y="0" type="line"/>
      <point x="489" y="418" type="line"/>
      <point x="464" y="312" type="line"/>
      <point x="815" y="705" type="line"/>
      <point x="560" y="705" type="line"/>
      <point x="313" y="423" type="line"/>
      <point x="305" y="423" type="line"/>
      <point x="305" y="705" type="line"/>
      <point x="80" y="705" type="line"/>
    </contour>
  </outline>
</glyph>
<glyph name="L" format="2">
  <advance width="658"/>
  <unicode hex="004C"/>
  <anchor x="339" y="0" name="bottom"/>
  <anchor x="235" y="387" name="center"/>
  <anchor x="479" y="402" name="dot"/>
  <anchor x="187" y="705" name="top"/>
  <anchor x="385" y="705" name="topright"/>
  <outline>
    <contour>
      <point x="80" y="0" type="line"/>
      <point x="609" y="0" type="line"/>
      <point x="609" y="186" type="line"/>
      <point x="305" y="186" type="line"/>
      <point x="305" y="705" type="line"/>
      <point x="80" y="705" type="line"/>
    </contour>
  </outline>
</glyph>
<glyph name="P" format="2">
  <advance width="763"/>
  <unicode hex="0050"/>
  <anchor x="371" y="0" name="bottom"/>
  <anchor x="370" y="705" name="top"/>
  <outline>
    <contour>
      <point x="80" y="0" type="line"/>
      <point x="305" y="0" type="line"/>
      <point x="305" y="221" type="line"/>
      <point x="460" y="221" type="line" smooth="yes"/>
      <point x="617" y="221"/>
      <point x="721" y="323"/>
      <point x="721" y="467" type="curve" smooth="yes"/>
      <point x="721" y="613"/>
      <point x="618" y="705"/>
      <point x="460" y="705" type="curve" smooth="yes"/>
      <point x="80" y="705" type="line"/>
    </contour>
    <contour>
      <point x="305" y="391" type="line"/>
      <point x="305" y="535" type="line"/>
      <point x="419" y="535" type="line" smooth="yes"/>
      <point x="474" y="535"/>
      <point x="500" y="509"/>
      <point x="500" y="462" type="curve" smooth="yes"/>
      <point x="500" y="415"/>
      <point x="473" y="391"/>
      <point x="419" y="391" type="curve" smooth="yes"/>
    </contour>
  </outline>
</glyph>
<glyph name="T" format="2">
  <advance width="721"/>
  <unicode hex="0054"/>
  <anchor x="361" y="0" name="bottom"/>
  <anchor x="360" y="289" name="center"/>
  <anchor x="360" y="705" name="top"/>
  <outline>
    <contour>
      <point x="248" y="0" type="line"/>
      <point x="473" y="0" type="line"/>
      <point x="473" y="519" type="line"/>
      <point x="689" y="519" type="line"/>
      <point x="689" y="705" type="line"/>
      <point x="32" y="705" type="line"/>
      <point x="32" y="519" type="line"/>
      <point x="248" y="519" type="line"/>
    </contour>
  </outline>
</glyph>
<glyph name="U" format="2">
  <advance width="811"/>
  <unicode hex="0055"/>
  <anchor x="406" y="0" name="bottom"/>
  <anchor x="464" y="0" name="ogonek"/>
  <anchor x="406" y="705" name="top"/>
  <anchor x="576" y="705" name="topright"/>
  <outline>
    <contour>
      <point x="406" y="-12" type="curve" smooth="yes"/>
      <point x="614" y="-12"/>
      <point x="739" y="93"/>
      <point x="739" y="288" type="curve" smooth="yes"/>
      <point x="739" y="705" type="line"/>
      <point x="514" y="705" type="line"/>
      <point x="514" y="307" type="line" smooth="yes"/>
      <point x="514" y="228"/>
      <point x="483" y="183"/>
      <point x="406" y="183" type="curve" smooth="yes"/>
      <point x="334" y="183"/>
      <point x="297" y="226"/>
      <point x="297" y="307" type="curve" smooth="yes"/>
      <point x="297" y="705" type="line"/>
      <point x="72" y="705" type="line"/>
      <point x="72" y="288" type="line" smooth="yes"/>
      <point x="72" y="90"/>
      <point x="194" y="-12"/>
    </contour>
  </outline>
</glyph>
<glyph name="W" format="2">
  <advance width="1183"/>
  <unicode hex="0057"/>
  <anchor x="591" y="0" name="bottom"/>
  <anchor x="592" y="705" name="top"/>
  <outline>
    <contour>
      <point x="256" y="0" type="line"/>
      <point x="452" y="0" type="line"/>
      <point x="588" y="388" type="line"/>
      <point x="596" y="388" type="line"/>
      <point x="720" y="0" type="line"/>
      <point x="925" y="0" type="line"/>
      <point x="1149" y="705" type="line"/>
      <point x="922" y="705" type="line"/>
      <point x="812" y="289" type="line"/>
      <point x="804" y="289" type="line"/>
      <point x="679" y="705" type="line"/>
      <point x="518" y="705" type="line"/>
      <point x="385" y="291" type="line"/>
      <point x="379" y="291" type="line"/>
      <point x="275" y="705" type="line"/>
      <point x="34" y="705" type="line"/>
    </contour>
  </outline>
</glyph>
<glyph name="X" format="2">
  <advance width="763"/>
  <unicode hex="0058"/>
  <anchor x="383" y="0" name="bottom"/>
  <anchor x="381" y="705" name="top"/>
  <outline>
    <contour>
      <point x="10" y="0" type="line"/>
      <point x="264" y="0" type="line"/>
      <point x="378" y="233" type="line"/>
      <point x="386" y="233" type="line"/>
      <point x="497" y="0" type="line"/>
      <point x="753" y="0" type="line"/>
      <point x="527" y="403" type="line"/>
      <point x="527" y="307" type="line"/>
      <point x="746" y="705" type="line"/>
      <point x="491" y="705" type="line"/>
      <point x="385" y="476" type="line"/>
      <point x="377" y="476" type="line"/>
      <point x="273" y="705" type="line"/>
      <point x="18" y="705" type="line"/>
      <point x="237" y="305" type="line"/>
      <point x="237" y="404" type="line"/>
    </contour>
  </outline>
</glyph>
<glyph name="Y" format="2">
  <advance width="710"/>
  <unicode hex="0059"/>
  <anchor x="355" y="0" name="bottom"/>
  <anchor x="355" y="705" name="top"/>
  <anchor x="80" y="705" name="topleft"/>
  <outline>
    <contour>
      <point x="241" y="0" type="line"/>
      <point x="466" y="0" type="line"/>
      <point x="466" y="367" type="line"/>
      <point x="428" y="216" type="line"/>
      <point x="736" y="705" type="line"/>
      <point x="493" y="705" type="line"/>
      <point x="359" y="469" type="line"/>
      <point x="351" y="469" type="line"/>
      <point x="218" y="705" type="line"/>
      <point x="-26" y="705" type="line"/>
      <point x="279" y="216" type="line"/>
      <point x="241" y="367" type="line"/>
    </contour>
  </outline>
</glyph>
<glyph name="Z" format="2">
  <advance width="701"/>
  <unicode hex="005A"/>
  <anchor x="355" y="0" name="bottom"/>
  <anchor x="351" y="705" name="top"/>
  <outline>
    <contour>
      <point x="65" y="0" type="line"/>
      <point x="659" y="0" type="line"/>
      <point x="659" y="186" type="line"/>
      <point x="263" y="186" type="line"/>
      <point x="283" y="114" type="line"/>
      <point x="647" y="550" type="line"/>
      <point x="647" y="705" type="line"/>
      <point x="65" y="705" type="line"/>
      <point x="65" y="519" type="line"/>
      <point x="446" y="519" type="line"/>
      <point x="426" y="591" type="line"/>
      <point x="65" y="158" type="line"/>
    </contour>
  </outline>
</glyph>
<glyph name="b" format="2">
  <advance width="711"/>
  <unicode hex="0062"/>
  <anchor x="326" y="0" name="bottom"/>
  <anchor x="367" y="705" name="top"/>
  <outline>
    <contour>
      <point x="437" y="-12" type="curve" smooth="yes"/>
      <point x="593" y="-12"/>
      <point x="670" y="103"/>
      <point x="670" y="257" type="curve" smooth="yes"/>
      <point x="670" y="403"/>
      <point x="592" y="524"/>
      <point x="444" y="524" type="curve" smooth="yes"/>
      <point x="368" y="524"/>
      <point x="325" y="492"/>
      <point x="295" y="448" type="curve"/>
      <point x="287" y="448" type="line"/>
      <point x="287" y="705" type="line"/>
      <point x="62" y="705" type="line"/>
      <point x="62" y="0" type="line"/>
      <point x="255" y="0" type="line"/>
      <point x="255" y="90" type="line"/>
      <point x="263" y="90" type="line"/>
      <point x="301" y="19"/>
      <point x="357" y="-12"/>
    </contour>
    <contour>
      <point x="369" y="151" type="curve" smooth="yes"/>
      <point x="313" y="151"/>
      <point x="284" y="191"/>
      <point x="284" y="257" type="curve" smooth="yes"/>
      <point x="284" y="323"/>
      <point x="312" y="361"/>
      <point x="368" y="361" type="curve" smooth="yes"/>
      <point x="426" y="361"/>
      <point x="452" y="323"/>
      <point x="452" y="257" type="curve" smooth="yes"/>
      <point x="452" y="191"/>
      <point x="426" y="151"/>
    </contour>
  </outline>
</glyph>
<glyph name="d" format="2">
  <advance width="711"/>
  <unicode hex="0064"/>
  <anchor x="327" y="0" name="bottom"/>
  <anchor x="343" y="250" name="center"/>
  <anchor x="479" y="611" name="stroke"/>
  <anchor x="344" y="705" name="top"/>
  <anchor x="699" y="705" name="topright"/>
  <outline>
    <contour>
      <point x="274" y="-12" type="curve" smooth="yes"/>
      <point x="354" y="-12"/>
      <point x="410" y="19"/>
      <point x="448" y="90" type="curve"/>
      <point x="456" y="90" type="line"/>
      <point x="456" y="0" type="line"/>
      <point x="649" y="0" type="line"/>
      <point x="649" y="705" type="line"/>
      <point x="424" y="705" type="line"/>
      <point x="424" y="448" type="line"/>
      <point x="416" y="448" type="line"/>
      <point x="386" y="492"/>
      <point x="343" y="524"/>
      <point x="267" y="524" type="curve" smooth="yes"/>
      <point x="119" y="524"/>
      <point x="41" y="403"/>
      <point x="41" y="257" type="curve" smooth="yes"/>
      <point x="41" y="103"/>
      <point x="118" y="-12"/>
    </contour>
    <contour>
      <point x="344" y="151" type="curve" smooth="yes"/>
      <point x="288" y="151"/>
      <point x="259" y="191"/>
      <point x="259" y="257" type="curve" smooth="yes"/>
      <point x="259" y="323"/>
      <point x="287" y="361"/>
      <point x="343" y="361" type="curve" smooth="yes"/>
      <point x="401" y="361"/>
      <point x="427" y="323"/>
      <point x="427" y="257" type="curve" smooth="yes"/>
      <point x="427" y="191"/>
      <point x="401" y="151"/>
    </contour>
  </outline>
</glyph>
<glyph name="f" format="2">
  <advance width="481"/>
  <unicode hex="0066"/>
  <guideline x="15" y="517" angle="0"/>
  <guideline x="1070" y="741" angle="0"/>
  <anchor x="214" y="0" name="bottom"/>
  <anchor x="209" y="705" name="top"/>
  <outline>
    <contour>
      <point x="101" y="0" type="line"/>
      <point x="326" y="0" type="line"/>
      <point x="326" y="367" type="line"/>
      <point x="458" y="367" type="line"/>
      <point x="458" y="512" type="line"/>
      <point x="295" y="512" type="line"/>
      <point x="301" y="512" type="line"/>
      <point x="301" y="517" type="line" smooth="yes"/>
      <point x="301" y="555"/>
      <point x="324" y="577"/>
      <point x="377" y="579" type="curve" smooth="yes"/>
      <point x="484" y="583" type="line"/>
      <point x="470" y="720" type="line"/>
      <point x="381" y="718" type="line" smooth="yes"/>
      <point x="195" y="714"/>
      <point x="101" y="636"/>
      <point x="101" y="473" type="curve" smooth="yes"/>
      <point x="101" y="446" type="line"/>
      <point x="164" y="512" type="line"/>
      <point x="7" y="512" type="line"/>
      <point x="7" y="367" type="line"/>
      <point x="101" y="367" type="line"/>
    </contour>
  </outline>
</glyph>
<glyph name="g" format="2">
  <advance width="696"/>
  <unicode hex="0067"/>
  <guideline x="1394" y="346" angle="0"/>
  <guideline x="104" y="858" angle="0"/>
  <guideline x="435" y="476" angle="90"/>
  <anchor x="344" y="484" name="top"/>
  <outline>
    <contour>
      <point x="301" y="-192" type="curve" smooth="yes"/>
      <point x="518" y="-192"/>
      <point x="634" y="-81"/>
      <point x="634" y="98" type="curve" smooth="yes"/>
      <point x="634" y="512" type="line"/>
      <point x="441" y="512" type="line"/>
      <point x="441" y="433" type="line"/>
      <point x="433" y="433" type="line"/>
      <point x="402" y="488"/>
      <point x="345" y="524"/>
      <point x="272" y="524" type="curve" smooth="yes"/>
      <point x="133" y="524"/>
      <point x="41" y="425"/>
      <point x="41" y="277" type="curve" smooth="yes"/>
      <point x="41" y="130"/>
      <point x="133" y="32"/>
      <point x="272" y="32" type="curve" smooth="yes"/>
      <point x="345" y="32"/>
      <point x="402" y="71"/>
      <point x="433" y="120" type="curve"/>
      <point x="441" y="120" type="line"/>
      <point x="441" y="89" type="line" smooth="yes"/>
      <point x="441" y="9"/>
      <point x="399" y="-33"/>
      <point x="293" y="-33" type="curve" smooth="yes"/>
      <point x="243" y="-33"/>
      <point x="168" y="-16"/>
      <point x="124" y="10" type="curve"/>
      <point x="80" y="-144" type="line"/>
      <point x="139" y="-176"/>
      <point x="224" y="-192"/>
    </contour>
    <contour>
      <point x="337" y="189" type="curve" smooth="yes"/>
      <point x="284" y="189"/>
      <point x="251" y="225"/>
      <point x="251" y="279" type="curve" smooth="yes"/>
      <point x="251" y="330"/>
      <point x="284" y="364"/>
      <point x="337" y="364" type="curve" smooth="yes"/>
      <point x="390" y="364"/>
      <point x="423" y="330"/>
      <point x="423" y="279" type="curve" smooth="yes"/>
      <point x="423" y="225"/>
      <point x="390" y="189"/>
    </contour>
  </outline>
</glyph>
<glyph name="k" format="2">
  <advance width="648"/>
  <unicode hex="006B"/>
  <anchor x="350" y="0" name="bottom"/>
  <anchor x="340" y="705" name="top"/>
  <outline>
    <contour>
      <point x="62" y="0" type="line"/>
      <point x="287" y="0" type="line"/>
      <point x="287" y="201" type="line"/>
      <point x="295" y="201" type="line"/>
      <point x="417" y="0" type="line"/>
      <point x="666" y="0" type="line"/>
      <point x="478" y="287" type="line"/>
      <point x="470" y="229" type="line"/>
      <point x="657" y="512" type="line"/>
      <point x="413" y="512" type="line"/>
      <point x="295" y="299" type="line"/>
      <point x="287" y="299" type="line"/>
      <point x="287" y="705" type="line"/>
      <point x="62" y="705" type="line"/>
    </contour>
  </outline>
</glyph>
<glyph name="l" format="2">
  <advance width="411"/>
  <unicode hex="006C"/>
  <anchor x="245" y="0" name="bottom"/>
  <anchor x="183" y="357" name="center"/>
  <anchor x="465" y="357" name="dot"/>
  <anchor x="175" y="705" name="top"/>
  <anchor x="337" y="705" name="topright"/>
  <outline>
    <contour>
      <point x="282" y="-12" type="curve" smooth="yes"/>
      <point x="335" y="-12"/>
      <point x="364" y="-7"/>
      <point x="411" y="11" type="curve"/>
      <point x="387" y="159" type="line"/>
      <point x="366" y="154"/>
      <point x="353" y="152"/>
      <point x="330" y="152" type="curve" smooth="yes"/>
      <point x="297" y="152"/>
      <point x="287" y="169"/>
      <point x="287" y="207" type="curve" smooth="yes"/>
      <point x="287" y="705" type="line"/>
      <point x="62" y="705" type="line"/>
      <point x="62" y="193" type="line" smooth="yes"/>
      <point x="62" y="60"/>
      <point x="136" y="-12"/>
    </contour>
  </outline>
</glyph>
<glyph name="m" format="2">
  <advance width="1036"/>
  <unicode hex="006D"/>
  <anchor x="520" y="0" name="bottom"/>
  <anchor x="520" y="484" name="top"/>
  <outline>
    <contour>
      <point x="64" y="0" type="line"/>
      <point x="284" y="0" type="line"/>
      <point x="284" y="266" type="line" smooth="yes"/>
      <point x="284" y="311"/>
      <point x="315" y="341"/>
      <point x="359" y="341" type="curve" smooth="yes"/>
      <point x="396" y="341"/>
      <point x="411" y="320"/>
      <point x="411" y="274" type="curve" smooth="yes"/>
      <point x="411" y="0" type="line"/>
      <point x="626" y="0" type="line"/>
      <point x="626" y="266" type="line" smooth="yes"/>
      <point x="626" y="311"/>
      <point x="659" y="341"/>
      <point x="703" y="341" type="curve" smooth="yes"/>
      <point x="741" y="341"/>
      <point x="753" y="320"/>
      <point x="753" y="274" type="curve" smooth="yes"/>
      <point x="753" y="0" type="line"/>
      <point x="973" y="0" type="line"/>
      <point x="973" y="274" type="line" smooth="yes"/>
      <point x="973" y="447"/>
      <point x="905" y="524"/>
      <point x="786" y="524" type="curve" smooth="yes"/>
      <point x="698" y="524"/>
      <point x="634" y="477"/>
      <point x="612" y="428" type="curve"/>
      <point x="605" y="428" type="line"/>
      <point x="580" y="488"/>
      <point x="523" y="524"/>
      <point x="451" y="524" type="curve" smooth="yes"/>
      <point x="369" y="524"/>
      <point x="301" y="487"/>
      <point x="264" y="412" type="curve"/>
      <point x="256" y="412" type="line"/>
      <point x="256" y="512" type="line"/>
      <point x="64" y="512" type="line"/>
    </contour>
  </outline>
</glyph>
<glyph name="o" format="2">
  <advance width="678"/>
  <unicode hex="006F"/>
  <anchor x="339" y="3" name="bottom"/>
  <anchor x="339" y="246" name="center"/>
  <anchor x="413" y="0" name="ogonek"/>
  <anchor x="339" y="484" name="top"/>
  <anchor x="426" y="484" name="topright"/>
  <outline>
    <contour>
      <point x="339" y="-12" type="curve" smooth="yes"/>
      <point x="522" y="-12"/>
      <point x="637" y="96"/>
      <point x="637" y="257" type="curve" smooth="yes"/>
      <point x="637" y="418"/>
      <point x="522" y="524"/>
      <point x="339" y="524" type="curve" smooth="yes"/>
      <point x="156" y="524"/>
      <point x="41" y="418"/>
      <point x="41" y="257" type="curve" smooth="yes"/>
      <point x="41" y="96"/>
      <point x="156" y="-12"/>
    </contour>
    <contour>
      <point x="340" y="151" type="curve" smooth="yes"/>
      <point x="284" y="151"/>
      <point x="255" y="191"/>
      <point x="255" y="257" type="curve" smooth="yes"/>
      <point x="255" y="323"/>
      <point x="283" y="361"/>
      <point x="339" y="361" type="curve" smooth="yes"/>
      <point x="397" y="361"/>
      <point x="423" y="323"/>
      <point x="423" y="257" type="curve" smooth="yes"/>
      <point x="423" y="191"/>
      <point x="397" y="151"/>
    </contour>
  </outline>
</glyph>
<glyph name="q" format="2">
  <advance width="711"/>
  <unicode hex="0071"/>
  <anchor x="283" y="0" name="bottom"/>
  <anchor x="283" y="484" name="top"/>
  <outline>
    <contour>
      <point x="424" y="-180" type="line"/>
      <point x="649" y="-180" type="line"/>
      <point x="649" y="513" type="line"/>
      <point x="456" y="513" type="line"/>
      <point x="456" y="422" type="line"/>
      <point x="448" y="422" type="line"/>
      <point x="410" y="493"/>
      <point x="354" y="524"/>
      <point x="274" y="524" type="curve" smooth="yes"/>
      <point x="118" y="524"/>
      <point x="41" y="409"/>
      <point x="41" y="255" type="curve" smooth="yes"/>
      <point x="41" y="109"/>
      <point x="119" y="-12"/>
      <point x="267" y="-12" type="curve" smooth="yes"/>
      <point x="343" y="-12"/>
      <point x="386" y="20"/>
      <point x="416" y="65" type="curve"/>
      <point x="424" y="65" type="line"/>
    </contour>
    <contour>
      <point x="344" y="150" type="curve" smooth="yes"/>
      <point x="288" y="150"/>
      <point x="259" y="190"/>
      <point x="259" y="256" type="curve" smooth="yes"/>
      <point x="259" y="322"/>
      <point x="287" y="360"/>
      <point x="343" y="360" type="curve" smooth="yes"/>
      <point x="401" y="360"/>
      <point x="427" y="322"/>
      <point x="427" y="256" type="curve" smooth="yes"/>
      <point x="427" y="190"/>
      <point x="401" y="150"/>
    </contour>
  </outline>
</glyph>
<glyph name="s" format="2">
  <advance width="575"/>
  <unicode hex="0073"/>
  <anchor x="293" y="0" name="bottom"/>
  <anchor x="301" y="484" name="top"/>
  <outline>
    <contour>
      <point x="292" y="-12" type="curve" smooth="yes"/>
      <point x="453" y="-12"/>
      <point x="553" y="52"/>
      <point x="553" y="163" type="curve" smooth="yes"/>
      <point x="553" y="252"/>
      <point x="506" y="297"/>
      <point x="385" y="312" type="curve" smooth="yes"/>
      <point x="269" y="326" type="line" smooth="yes"/>
      <point x="244" y="329"/>
      <point x="232" y="337"/>
      <point x="232" y="350" type="curve" smooth="yes"/>
      <point x="232" y="364"/>
      <point x="252" y="380"/>
      <point x="320" y="380" type="curve" smooth="yes"/>
      <point x="377" y="380"/>
      <point x="446" y="367"/>
      <point x="486" y="345" type="curve"/>
      <point x="533" y="480" type="line"/>
      <point x="484" y="508"/>
      <point x="406" y="524"/>
      <point x="318" y="524" type="curve" smooth="yes"/>
      <point x="117" y="524"/>
      <point x="41" y="443"/>
      <point x="41" y="345" type="curve" smooth="yes"/>
      <point x="41" y="274"/>
      <point x="89" y="210"/>
      <point x="199" y="200" type="curve" smooth="yes"/>
      <point x="325" y="188" type="line" smooth="yes"/>
      <point x="352" y="185"/>
      <point x="362" y="178"/>
      <point x="362" y="163" type="curve" smooth="yes"/>
      <point x="362" y="143"/>
      <point x="340" y="132"/>
      <point x="276" y="132" type="curve" smooth="yes"/>
      <point x="216" y="132"/>
      <point x="136" y="145"/>
      <point x="81" y="172" type="curve"/>
      <point x="40" y="34" type="line"/>
      <point x="99" y="1"/>
      <point x="183" y="-12"/>
    </contour>
  </outline>
</glyph>
<glyph name="t" format="2">
  <advance width="523"/>
  <unicode hex="0074"/>
  <anchor x="306" y="5" name="bottom"/>
  <anchor x="227" y="261" name="center"/>
  <anchor x="219" y="700" name="top"/>
  <anchor x="359" y="705" name="topright"/>
  <outline>
    <contour>
      <point x="361" y="-12" type="curve" smooth="yes"/>
      <point x="414" y="-12"/>
      <point x="457" y="-4"/>
      <point x="504" y="15" type="curve"/>
      <point x="480" y="163" type="line"/>
      <point x="459" y="158"/>
      <point x="432" y="152"/>
      <point x="409" y="152" type="curve" smooth="yes"/>
      <point x="349" y="152"/>
      <point x="320" y="177"/>
      <point x="320" y="236" type="curve" smooth="yes"/>
      <point x="320" y="367" type="line"/>
      <point x="495" y="367" type="line"/>
      <point x="495" y="512" type="line"/>
      <point x="320" y="512" type="line"/>
      <point x="320" y="639" type="line"/>
      <point x="121" y="639" type="line"/>
      <point x="121" y="512" type="line"/>
      <point x="7" y="512" type="line"/>
      <point x="7" y="367" type="line"/>
      <point x="101" y="367" type="line"/>
      <point x="101" y="235" type="line" smooth="yes"/>
      <point x="101" y="76"/>
      <point x="176" y="-12"/>
    </contour>
  </outline>
</glyph>
<glyph name="w" format="2">
  <advance width="886"/>
  <unicode hex="0077"/>
  <anchor x="439" y="0" name="bottom"/>
  <anchor x="447" y="484" name="top"/>
  <outline>
    <contour>
      <point x="164" y="0" type="line"/>
      <point x="337" y="0" type="line"/>
      <point x="438" y="276" type="line"/>
      <point x="446" y="276" type="line"/>
      <point x="547" y="0" type="line"/>
      <point x="723" y="0" type="line"/>
      <point x="894" y="512" type="line"/>
      <point x="679" y="512" type="line"/>
      <point x="618" y="244" type="line"/>
      <point x="610" y="244" type="line"/>
      <point x="518" y="512" type="line"/>
      <point x="368" y="512" type="line"/>
      <point x="277" y="244" type="line"/>
      <point x="269" y="244" type="line"/>
      <point x="207" y="512" type="line"/>
      <point x="-10" y="512" type="line"/>
    </contour>
  </outline>
</glyph>
<glyph name="braceright" format="2">
  <advance width="478"/>
  <unicode hex="007D"/>
  <outline>
    <contour>
      <point x="26" y="-180" type="line"/>
      <point x="172" y="-180" type="line" smooth="yes"/>
      <point x="271" y="-180"/>
      <point x="341" y="-120"/>
      <point x="341" y="-22" type="curve" smooth="yes"/>
      <point x="341" y="110" type="line" smooth="yes"/>
      <point x="341" y="162"/>
      <point x="344" y="176"/>
      <point x="383" y="179" type="curve" smooth="yes"/>
      <point x="446" y="184" type="line"/>
      <point x="446" y="343" type="line"/>
      <point x="383" y="348" type="line" smooth="yes"/>
      <point x="344" y="351"/>
      <point x="341" y="365"/>
      <point x="341" y="417" type="curve" smooth="yes"/>
      <point x="341" y="547" type="line" smooth="yes"/>
      <point x="341" y="645"/>
      <point x="271" y="705"/>
      <point x="172" y="705" type="curve" smooth="yes"/>
      <point x="26" y="705" type="line"/>
      <point x="26" y="543" type="line"/>
      <point x="85" y="543" type="line" smooth="yes"/>
      <point x="114" y="543"/>
      <point x="125" y="531"/>
      <point x="125" y="501" type="curve" smooth="yes"/>
      <point x="125" y="391" type="line" smooth="yes"/>
      <point x="125" y="325"/>
      <point x="161" y="277"/>
      <point x="245" y="269" type="curve"/>
      <point x="245" y="261" type="line"/>
      <point x="161" y="253"/>
      <point x="125" y="202"/>
      <point x="125" y="136" type="curve" smooth="yes"/>
      <point x="125" y="24" type="line" smooth="yes"/>
      <point x="125" y="-6"/>
      <point x="114" y="-18"/>
      <point x="85" y="-18" type="curve" smooth="yes"/>
      <point x="26" y="-18" type="line"/>
    </contour>
  </outline>
</glyph>
<glyph name="exclamdown" format="2">
  <advance width="305"/>
  <unicode hex="00A1"/>
  <outline>
    <contour>
      <point x="15" y="-180" type="line"/>
      <point x="290" y="-180" type="line"/>
      <point x="235" y="229" type="line"/>
      <point x="70" y="229" type="line"/>
    </contour>
    <contour>
      <point x="36" y="305" type="line"/>
      <point x="268" y="305" type="line"/>
      <point x="268" y="512" type="line"/>
      <point x="36" y="512" type="line"/>
    </contour>
  </outline>
</glyph>
<glyph name="currency" format="2">
  <advance width="600"/>
  <unicode hex="00A4"/>
  <outline>
    <contour>
      <point x="92" y="-62" type="line"/>
      <point x="180" y="27" type="line"/>
      <point x="215" y="7"/>
      <point x="256" y="-4"/>
      <point x="300" y="-4" type="curve" smooth="yes"/>
      <point x="344" y="-4"/>
      <point x="385" y="7"/>
      <point x="420" y="27" type="curve"/>
      <point x="508" y="-62" type="line"/>
      <point x="601" y="31" type="line"/>
      <point x="512" y="120" type="line"/>
      <point x="532" y="157"/>
      <point x="543" y="199"/>
      <point x="543" y="244" type="curve" smooth="yes"/>
      <point x="543" y="289"/>
      <point x="532" y="332"/>
      <point x="512" y="369" type="curve"/>
      <point x="601" y="458" type="line"/>
      <point x="508" y="551" type="line"/>
      <point x="420" y="462" type="line"/>
      <point x="385" y="482"/>
      <point x="344" y="493"/>
      <point x="300" y="493" type="curve" smooth="yes"/>
      <point x="256" y="493"/>
      <point x="215" y="482"/>
      <point x="180" y="462" type="curve"/>
      <point x="92" y="551" type="line"/>
      <point x="-1" y="458" type="line"/>
      <point x="88" y="369" type="line"/>
      <point x="68" y="332"/>
      <point x="57" y="290"/>
      <point x="57" y="245" type="curve" smooth="yes"/>
      <point x="57" y="199"/>
      <point x="68" y="157"/>
      <point x="88" y="120" type="curve"/>
      <point x="-1" y="31" type="line"/>
    </contour>
    <contour>
      <point x="300" y="143" type="curve" smooth="yes"/>
      <point x="245" y="144"/>
      <point x="204" y="184"/>
      <point x="204" y="245" type="curve" smooth="yes"/>
      <point x="204" y="305"/>
      <point x="245" y="345"/>
      <point x="300" y="346" type="curve" smooth="yes"/>
      <point x="355" y="347"/>
      <point x="396" y="304"/>
      <point x="396" y="244" type="curve" smooth="yes"/>
      <point x="396" y="184"/>
      <point x="355" y="142"/>
    </contour>
  </outline>
</glyph>
<glyph name="section" format="2">
  <advance width="616"/>
  <unicode hex="00A7"/>
  <outline>
    <contour>
      <point x="291" y="-192" type="curve" smooth="yes"/>
      <point x="453" y="-192"/>
      <point x="553" y="-117"/>
      <point x="553" y="4" type="curve" smooth="yes"/>
      <point x="553" y="50"/>
      <point x="532" y="94"/>
      <point x="491" y="128" type="curve"/>
      <point x="476" y="84" type="line"/>
      <point x="557" y="129"/>
      <point x="594" y="175"/>
      <point x="594" y="252" type="curve" smooth="yes"/>
      <point x="594" y="327"/>
      <point x="549" y="386"/>
      <point x="462" y="424" type="curve" smooth="yes"/>
      <point x="306" y="493" type="line" smooth="yes"/>
      <point x="273" y="508"/>
      <point x="259" y="521"/>
      <point x="259" y="538" type="curve" smooth="yes"/>
      <point x="259" y="565"/>
      <point x="283" y="579"/>
      <point x="327" y="579" type="curve" smooth="yes"/>
      <point x="378" y="579"/>
      <point x="449" y="561"/>
      <point x="499" y="536" type="curve"/>
      <point x="548" y="666" type="line"/>
      <point x="499" y="699"/>
      <point x="421" y="717"/>
      <point x="325" y="717" type="curve" smooth="yes"/>
      <point x="163" y="717"/>
      <point x="63" y="642"/>
      <point x="63" y="521" type="curve" smooth="yes"/>
      <point x="63" y="473"/>
      <point x="84" y="441"/>
      <point x="125" y="407" type="curve"/>
      <point x="140" y="451" type="line"/>
      <point x="59" y="406"/>
      <point x="22" y="350"/>
      <point x="22" y="273" type="curve" smooth="yes"/>
      <point x="22" y="198"/>
      <point x="67" y="139"/>
      <point x="154" y="101" type="curve" smooth="yes"/>
      <point x="310" y="32" type="line" smooth="yes"/>
      <point x="343" y="17"/>
      <point x="357" y="4"/>
      <point x="357" y="-13" type="curve" smooth="yes"/>
      <point x="357" y="-40"/>
      <point x="333" y="-54"/>
      <point x="289" y="-54" type="curve" smooth="yes"/>
      <point x="226" y="-54"/>
      <point x="143" y="-28"/>
      <point x="98" y="0" type="curve"/>
      <point x="47" y="-134" type="line"/>
      <point x="103" y="-169"/>
      <point x="192" y="-192"/>
    </contour>
    <contour>
      <point x="203" y="305" type="curve" smooth="yes"/>
      <point x="203" y="321"/>
      <point x="209" y="349"/>
      <point x="223" y="370" type="curve"/>
      <point x="191" y="361" type="line"/>
      <point x="203" y="355"/>
      <point x="219" y="348"/>
      <point x="226" y="345" type="curve" smooth="yes"/>
      <point x="364" y="286" type="line" smooth="yes"/>
      <point x="401" y="270"/>
      <point x="413" y="250"/>
      <point x="413" y="220" type="curve" smooth="yes"/>
      <point x="413" y="204"/>
      <point x="407" y="176"/>
      <point x="393" y="155" type="curve"/>
      <point x="425" y="164" type="line"/>
      <point x="413" y="170"/>
      <point x="398" y="176"/>
      <point x="390" y="180" type="curve" smooth="yes"/>
      <point x="252" y="239" type="line" smooth="yes"/>
      <point x="215" y="255"/>
      <point x="203" y="275"/>
    </contour>
  </outline>
</glyph>
<glyph name="ordfeminine" format="2">
  <advance width="411"/>
  <unicode hex="00AA"/>
  <outline>
    <contour>
      <point x="152" y="365" type="curve" smooth="yes"/>
      <point x="198" y="365"/>
      <point x="242" y="392"/>
      <point x="261" y="436" type="curve"/>
      <point x="264" y="436" type="line"/>
      <point x="264" y="373" type="line"/>
      <point x="380" y="373" type="line"/>
      <point x="380" y="569" type="line" smooth="yes"/>
      <point x="380" y="667"/>
      <point x="318" y="717"/>
      <point x="201" y="717" type="curve" smooth="yes"/>
      <point x="146" y="717"/>
      <point x="77" y="705"/>
      <point x="39" y="693" type="curve"/>
      <point x="68" y="604" type="line"/>
      <point x="103" y="614"/>
      <point x="156" y="622"/>
      <point x="187" y="622" type="curve" smooth="yes"/>
      <point x="234" y="622"/>
      <point x="256" y="614"/>
      <point x="256" y="586" type="curve" smooth="yes"/>
      <point x="256" y="512" type="line" smooth="yes"/>
      <point x="256" y="480"/>
      <point x="221" y="443"/>
      <point x="186" y="443" type="curve" smooth="yes"/>
      <point x="166" y="443"/>
      <point x="155" y="454"/>
      <point x="155" y="474" type="curve" smooth="yes"/>
      <point x="155" y="500"/>
      <point x="175" y="516"/>
      <point x="219" y="516" type="curve" smooth="yes"/>
      <point x="260" y="516" type="line"/>
      <point x="260" y="572" type="line"/>
      <point x="219" y="572" type="line" smooth="yes"/>
      <point x="85" y="572"/>
      <point x="26" y="551"/>
      <point x="26" y="472" type="curve" smooth="yes"/>
      <point x="26" y="406"/>
      <point x="70" y="365"/>
    </contour>
  </outline>
</glyph>
<glyph name="logicalnot" format="2">
  <advance width="600"/>
  <unicode hex="00AC"/>
  <outline>
    <contour>
      <point x="402" y="123" type="line"/>
      <point x="544" y="123" type="line"/>
      <point x="544" y="454" type="line"/>
      <point x="56" y="454" type="line"/>
      <point x="56" y="318" type="line"/>
      <point x="402" y="318" type="line"/>
    </contour>
  </outline>
</glyph>
<glyph name="registered" format="2">
  <advance width="815"/>
  <unicode hex="00AE"/>
  <outline>
    <contour>
      <point x="408" y="-5" type="curve" smooth="yes"/>
      <point x="610" y="-5"/>
      <point x="765" y="151"/>
      <point x="765" y="353" type="curve" smooth="yes"/>
      <point x="765" y="555"/>
      <point x="610" y="710"/>
      <point x="408" y="710" type="curve" smooth="yes"/>
      <point x="205" y="710"/>
      <point x="50" y="555"/>
      <point x="50" y="353" type="curve" smooth="yes"/>
      <point x="50" y="151"/>
      <point x="204" y="-5"/>
    </contour>
    <contour>
      <point x="408" y="65" type="curve" smooth="yes"/>
      <point x="242" y="65"/>
      <point x="125" y="189"/>
      <point x="125" y="353" type="curve" smooth="yes"/>
      <point x="125" y="517"/>
      <point x="242" y="640"/>
      <point x="408" y="640" type="curve" smooth="yes"/>
      <point x="573" y="640"/>
      <point x="690" y="517"/>
      <point x="690" y="353" type="curve" smooth="yes"/>
      <point x="690" y="189"/>
      <point x="573" y="65"/>
    </contour>
    <contour>
      <point x="232" y="142" type="line"/>
      <point x="372" y="142" type="line"/>
      <point x="372" y="313" type="line"/>
      <point x="358" y="305" type="line"/>
      <point x="394" y="305" type="line" smooth="yes"/>
      <point x="408" y="305"/>
      <point x="431" y="294"/>
      <point x="435" y="273" type="curve" smooth="yes"/>
      <point x="458" y="142" type="line"/>
      <point x="597" y="142" type="line"/>
      <point x="578" y="233" type="line" smooth="yes"/>
      <point x="569" y="276"/>
      <point x="550" y="301"/>
      <point x="520" y="309" type="curve"/>
      <point x="520" y="317" type="line"/>
      <point x="566" y="340"/>
      <point x="594" y="380"/>
      <point x="594" y="427" type="curve" smooth="yes"/>
      <point x="594" y="508"/>
      <point x="537" y="566"/>
      <point x="437" y="566" type="curve" smooth="yes"/>
      <point x="232" y="566" type="line"/>
    </contour>
    <contour>
      <point x="370" y="387" type="line"/>
      <point x="370" y="465" type="line"/>
      <point x="420" y="465" type="line" smooth="yes"/>
      <point x="443" y="465"/>
      <point x="457" y="451"/>
      <point x="457" y="426" type="curve" smooth="yes"/>
      <point x="457" y="401"/>
      <point x="444" y="387"/>
      <point x="420" y="387" type="curve" smooth="yes"/>
    </contour>
  </outline>
</glyph>
<glyph name="ordmasculine" format="2">
  <advance width="396"/>
  <unicode hex="00BA"/>
  <outline>
    <contour>
      <point x="198" y="365" type="curve" smooth="yes"/>
      <point x="310" y="365"/>
      <point x="376" y="431"/>
      <point x="376" y="542" type="curve" smooth="yes"/>
      <point x="376" y="652"/>
      <point x="310" y="717"/>
      <point x="198" y="717" type="curve" smooth="yes"/>
      <point x="86" y="717"/>
      <point x="20" y="652"/>
      <point x="20" y="542" type="curve" smooth="yes"/>
      <point x="20" y="431"/>
      <point x="86" y="365"/>
    </contour>
    <contour>
      <point x="198" y="466" type="curve" smooth="yes"/>
      <point x="163" y="466"/>
      <point x="138" y="493"/>
      <point x="138" y="542" type="curve" smooth="yes"/>
      <point x="138" y="590"/>
      <point x="163" y="617"/>
      <point x="198" y="617" type="curve" smooth="yes"/>
      <point x="233" y="617"/>
      <point x="258" y="590"/>
      <point x="258" y="542" type="curve" smooth="yes"/>
      <point x="258" y="493"/>
      <point x="233" y="466"/>
    </contour>
  </outline>
</glyph>
<glyph name="questiondown" format="2">
  <advance width="587"/>
  <unicode hex="00BF"/>
  <outline>
    <contour>
      <point x="294" y="-192" type="curve" smooth="yes"/>
      <point x="382" y="-192"/>
      <point x="500" y="-178"/>
      <point x="577" y="-120" type="curve"/>
      <point x="510" y="47" type="line"/>
      <point x="446" y="3"/>
      <point x="377" y="-10"/>
      <point x="318" y="-10" type="curve" smooth="yes"/>
      <point x="265" y="-10"/>
      <point x="225" y="-1"/>
      <point x="225" y="28" type="curve" smooth="yes"/>
      <point x="225" y="58"/>
      <point x="262" y="81"/>
      <point x="307" y="105" type="curve" smooth="yes"/>
      <point x="365" y="136"/>
      <point x="394" y="162"/>
      <point x="394" y="217" type="curve" smooth="yes"/>
      <point x="394" y="229" type="line"/>
      <point x="223" y="229" type="line"/>
      <point x="219" y="221" type="line" smooth="yes"/>
      <point x="213" y="209"/>
      <point x="192" y="198"/>
      <point x="148" y="178" type="curve" smooth="yes"/>
      <point x="82" y="148"/>
      <point x="10" y="108"/>
      <point x="10" y="5" type="curve" smooth="yes"/>
      <point x="10" y="-129"/>
      <point x="123" y="-192"/>
    </contour>
    <contour>
      <point x="193" y="305" type="line"/>
      <point x="425" y="305" type="line"/>
      <point x="425" y="512" type="line"/>
      <point x="193" y="512" type="line"/>
    </contour>
  </outline>
</glyph>
<glyph name="Thorn" format="2">
  <advance width="763"/>
  <unicode hex="00DE"/>
  <anchor x="391" y="0" name="bottom"/>
  <anchor x="390" y="705" name="top"/>
  <outline>
    <contour>
      <point x="80" y="0" type="line"/>
      <point x="305" y="0" type="line"/>
      <point x="305" y="121" type="line"/>
      <point x="460" y="121" type="line" smooth="yes"/>
      <point x="617" y="121"/>
      <point x="721" y="223"/>
      <point x="721" y="367" type="curve" smooth="yes"/>
      <point x="721" y="513"/>
      <point x="618" y="605"/>
      <point x="460" y="605" type="curve" smooth="yes"/>
      <point x="305" y="605" type="line"/>
      <point x="305" y="705" type="line"/>
      <point x="80" y="705" type="line"/>
    </contour>
    <contour>
      <point x="305" y="291" type="line"/>
      <point x="305" y="435" type="line"/>
      <point x="419" y="435" type="line" smooth="yes"/>
      <point x="474" y="435"/>
      <point x="500" y="409"/>
      <point x="500" y="362" type="curve" smooth="yes"/>
      <point x="500" y="315"/>
      <point x="473" y="291"/>
      <point x="419" y="291" type="curve" smooth="yes"/>
    </contour>
  </outline>
</glyph>
<glyph name="germandbls" format="2">
  <advance width="798"/>
  <unicode hex="00DF"/>
  <outline>
    <contour>
      <point x="533" y="-12" type="curve" smooth="yes"/>
      <point x="667" y="-12"/>
      <point x="772" y="62"/>
      <point x="772" y="176" type="curve" smooth="yes"/>
      <point x="772" y="250"/>
      <point x="739" y="300"/>
      <point x="651" y="329" type="curve" smooth="yes"/>
      <point x="584" y="351"/>
      <point x="569" y="362"/>
      <point x="569" y="377" type="curve" smooth="yes"/>
      <point x="569" y="391"/>
      <point x="584" y="407"/>
      <point x="614" y="439" type="curve" smooth="yes"/>
      <point x="654" y="481"/>
      <point x="666" y="519"/>
      <point x="666" y="557" type="curve" smooth="yes"/>
      <point x="666" y="656"/>
      <point x="548" y="717"/>
      <point x="395" y="717" type="curve" smooth="yes"/>
      <point x="180" y="717"/>
      <point x="62" y="611"/>
      <point x="62" y="418" type="curve" smooth="yes"/>
      <point x="62" y="0" type="line"/>
      <point x="287" y="0" type="line"/>
      <point x="287" y="455" type="line" smooth="yes"/>
      <point x="287" y="530"/>
      <point x="322" y="564"/>
      <point x="384" y="564" type="curve" smooth="yes"/>
      <point x="425" y="564"/>
      <point x="452" y="548"/>
      <point x="452" y="520" type="curve" smooth="yes"/>
      <point x="452" y="505"/>
      <point x="439" y="481"/>
      <point x="418" y="455" type="curve" smooth="yes"/>
      <point x="385" y="415"/>
      <point x="363" y="378"/>
      <point x="363" y="334" type="curve" smooth="yes"/>
      <point x="363" y="275"/>
      <point x="402" y="236"/>
      <point x="486" y="214" type="curve" smooth="yes"/>
      <point x="537" y="201"/>
      <point x="562" y="191"/>
      <point x="562" y="170" type="curve" smooth="yes"/>
      <point x="562" y="146"/>
      <point x="524" y="142"/>
      <point x="492" y="142" type="curve" smooth="yes"/>
      <point x="462" y="142"/>
      <point x="433" y="145"/>
      <point x="359" y="171" type="curve"/>
      <point x="322" y="18" type="line"/>
      <point x="395" y="-5"/>
      <point x="457" y="-12"/>
    </contour>
  </outline>
</glyph>
<glyph name="eth" format="2">
  <advance width="678"/>
  <unicode hex="00F0"/>
  <outline>
    <contour>
      <point x="334" y="-12" type="curve" smooth="yes"/>
      <point x="524" y="-12"/>
      <point x="647" y="118"/>
      <point x="647" y="324" type="curve" smooth="yes"/>
      <point x="647" y="440"/>
      <point x="598" y="554"/>
      <point x="491" y="628" type="curve"/>
      <point x="497" y="590" type="line"/>
      <point x="603" y="629" type="line"/>
      <point x="564" y="719" type="line"/>
      <point x="410" y="662" type="line"/>
      <point x="454" y="651" type="line"/>
      <point x="384" y="691"/>
      <point x="292" y="716"/>
      <point x="179" y="719" type="curve"/>
      <point x="155" y="620" type="line"/>
      <point x="212" y="618"/>
      <point x="261" y="609"/>
      <point x="302" y="593" type="curve"/>
      <point x="302" y="621" type="line"/>
      <point x="150" y="564" type="line"/>
      <point x="188" y="474" type="line"/>
      <point x="423" y="562" type="line"/>
      <point x="365" y="562" type="line"/>
      <point x="438" y="515"/>
      <point x="473" y="443"/>
      <point x="475" y="371" type="curve"/>
      <point x="467" y="371" type="line"/>
      <point x="437" y="422"/>
      <point x="383" y="465"/>
      <point x="281" y="465" type="curve" smooth="yes"/>
      <point x="135" y="465"/>
      <point x="41" y="366"/>
      <point x="41" y="226" type="curve" smooth="yes"/>
      <point x="41" y="73"/>
      <point x="159" y="-12"/>
    </contour>
    <contour>
      <point x="342" y="151" type="curve" smooth="yes"/>
      <point x="293" y="151"/>
      <point x="258" y="179"/>
      <point x="258" y="228" type="curve" smooth="yes"/>
      <point x="258" y="277"/>
      <point x="293" y="307"/>
      <point x="342" y="307" type="curve" smooth="yes"/>
      <point x="391" y="307"/>
      <point x="426" y="277"/>
      <point x="426" y="228" type="curve" smooth="yes"/>
      <point x="426" y="179"/>
      <point x="391" y="151"/>
    </contour>
  </outline>
</glyph>
<glyph name="dcroat" format="2">
  <advance width="723"/>
  <unicode hex="0111"/>
  <outline>
    <contour>
      <point x="274" y="-12" type="curve" smooth="yes"/>
      <point x="354" y="-12"/>
      <point x="413" y="24"/>
      <point x="448" y="90" type="curve"/>
      <point x="456" y="90" type="line"/>
      <point x="456" y="0" type="line"/>
      <point x="649" y="0" type="line"/>
      <point x="649" y="532" type="line"/>
      <point x="713" y="532" type="line"/>
      <point x="713" y="662" type="line"/>
      <point x="649" y="662" type="line"/>
      <point x="649" y="705" type="line"/>
      <point x="424" y="705" type="line"/>
      <point x="424" y="657" type="line"/>
      <point x="265" y="657" type="line"/>
      <point x="265" y="532" type="line"/>
      <point x="424" y="532" type="line"/>
      <point x="424" y="418" type="line"/>
      <point x="416" y="418" type="line"/>
      <point x="386" y="462"/>
      <point x="343" y="489"/>
      <point x="267" y="489" type="curve" smooth="yes"/>
      <point x="119" y="489"/>
      <point x="41" y="373"/>
      <point x="41" y="237" type="curve" smooth="yes"/>
      <point x="41" y="103"/>
      <point x="118" y="-12"/>
    </contour>
    <contour>
      <point x="344" y="138" type="curve" smooth="yes"/>
      <point x="288" y="138"/>
      <point x="259" y="175"/>
      <point x="259" y="237" type="curve" smooth="yes"/>
      <point x="259" y="299"/>
      <point x="287" y="335"/>
      <point x="343" y="335" type="curve" smooth="yes"/>
      <point x="401" y="335"/>
      <point x="427" y="299"/>
      <point x="427" y="237" type="curve" smooth="yes"/>
      <point x="427" y="175"/>
      <point x="401" y="138"/>
    </contour>
  </outline>
</glyph>
<glyph name="Hbar" format="2">
  <advance width="902"/>
  <unicode hex="0126"/>
  <outline>
    <contour>
      <point x="106" y="0" type="line"/>
      <point x="331" y="0" type="line"/>
      <point x="331" y="232" type="line"/>
      <point x="571" y="232" type="line"/>
      <point x="571" y="0" type="line"/>
      <point x="796" y="0" type="line"/>
      <point x="796" y="495" type="line"/>
      <point x="872" y="495" type="line"/>
      <point x="872" y="635" type="line"/>
      <point x="796" y="635" type="line"/>
      <point x="796" y="705" type="line"/>
      <point x="571" y="705" type="line"/>
      <point x="571" y="625" type="line"/>
      <point x="331" y="625" type="line"/>
      <point x="331" y="705" type="line"/>
      <point x="106" y="705" type="line"/>
      <point x="106" y="635" type="line"/>
      <point x="30" y="635" type="line"/>
      <point x="30" y="495" type="line"/>
      <point x="106" y="495" type="line"/>
    </contour>
    <contour>
      <point x="331" y="418" type="line"/>
      <point x="331" y="505" type="line"/>
      <point x="571" y="505" type="line"/>
      <point x="571" y="418" type="line"/>
    </contour>
  </outline>
</glyph>
<glyph name="hbar" format="2">
  <advance width="720"/>
  <unicode hex="0127"/>
  <guideline x="766" y="551" angle="0"/>
  <outline>
    <contour>
      <point x="74" y="0" type="line"/>
      <point x="299" y="0" type="line"/>
      <point x="299" y="221" type="line" smooth="yes"/>
      <point x="299" y="276"/>
      <point x="333" y="306"/>
      <point x="375" y="306" type="curve" smooth="yes"/>
      <point x="411" y="306"/>
      <point x="434" y="287"/>
      <point x="434" y="232" type="curve" smooth="yes"/>
      <point x="434" y="0" type="line"/>
      <point x="659" y="0" type="line"/>
      <point x="659" y="239" type="line" smooth="yes"/>
      <point x="659" y="412"/>
      <point x="584" y="489"/>
      <point x="462" y="489" type="curve" smooth="yes"/>
      <point x="384" y="489"/>
      <point x="326" y="452"/>
      <point x="290" y="396" type="curve"/>
      <point x="282" y="396" type="line"/>
      <point x="282" y="532" type="line"/>
      <point x="458" y="532" type="line"/>
      <point x="458" y="657" type="line"/>
      <point x="282" y="657" type="line"/>
      <point x="282" y="705" type="line"/>
      <point x="74" y="705" type="line"/>
      <point x="74" y="662" type="line"/>
      <point x="10" y="662" type="line"/>
      <point x="10" y="532" type="line"/>
      <point x="74" y="532" type="line"/>
    </contour>
  </outline>
</glyph>
<glyph name="Eng" format="2">
  <advance width="849"/>
  <unicode hex="014A"/>
  <anchor x="425" y="0" name="bottom"/>
  <anchor x="434" y="705" name="top"/>
  <outline>
    <contour>
      <point x="476" y="-188" type="line"/>
      <point x="520" y="-185" type="line" smooth="yes"/>
      <point x="769" y="-168"/>
      <point x="769" y="-54"/>
      <point x="769" y="44" type="curve" smooth="yes"/>
      <point x="769" y="705" type="line"/>
      <point x="563" y="705" type="line"/>
      <point x="563" y="334" type="line"/>
      <point x="555" y="334" type="line"/>
      <point x="235" y="705" type="line"/>
      <point x="80" y="705" type="line"/>
      <point x="80" y="0" type="line"/>
      <point x="286" y="0" type="line"/>
      <point x="286" y="355" type="line"/>
      <point x="294" y="355" type="line"/>
      <point x="590" y="12" type="line"/>
      <point x="564" y="73" type="line"/>
      <point x="564" y="6" type="line" smooth="yes"/>
      <point x="564" y="-24"/>
      <point x="545" y="-33"/>
      <point x="512" y="-37" type="curve" smooth="yes"/>
      <point x="462" y="-43" type="line"/>
    </contour>
  </outline>
</glyph>
<glyph name="eng" format="2">
  <advance width="708"/>
  <unicode hex="014B"/>
  <outline>
    <contour>
      <point x="337" y="-193" type="line"/>
      <point x="398" y="-187" type="line" smooth="yes"/>
      <point x="605" y="-167"/>
      <point x="647" y="-96"/>
      <point x="647" y="49" type="curve" smooth="yes"/>
      <point x="647" y="274" type="line" smooth="yes"/>
      <point x="647" y="447"/>
      <point x="572" y="524"/>
      <point x="450" y="524" type="curve" smooth="yes"/>
      <point x="372" y="524"/>
      <point x="307" y="486"/>
      <point x="270" y="417" type="curve"/>
      <point x="262" y="417" type="line"/>
      <point x="262" y="512" type="line"/>
      <point x="62" y="512" type="line"/>
      <point x="62" y="0" type="line"/>
      <point x="287" y="0" type="line"/>
      <point x="287" y="256" type="line" smooth="yes"/>
      <point x="287" y="311"/>
      <point x="321" y="341"/>
      <point x="363" y="341" type="curve" smooth="yes"/>
      <point x="401" y="341"/>
      <point x="422" y="322"/>
      <point x="422" y="267" type="curve" smooth="yes"/>
      <point x="422" y="48" type="line" smooth="yes"/>
      <point x="422" y="0"/>
      <point x="402" y="-25"/>
      <point x="366" y="-30" type="curve" smooth="yes"/>
      <point x="319" y="-36" type="line"/>
    </contour>
  </outline>
</glyph>
<glyph name="OE" format="2">
  <advance width="1128"/>
  <unicode hex="0152"/>
  <anchor x="620" y="0" name="bottom"/>
  <anchor x="620" y="705" name="top"/>
  <outline>
    <contour>
      <point x="443" y="0" type="curve" smooth="yes"/>
      <point x="1055" y="0" type="line"/>
      <point x="1055" y="176" type="line"/>
      <point x="730" y="176" type="line"/>
      <point x="730" y="270" type="line"/>
      <point x="1032" y="270" type="line"/>
      <point x="1032" y="442" type="line"/>
      <point x="730" y="442" type="line"/>
      <point x="730" y="529" type="line"/>
      <point x="1055" y="529" type="line"/>
      <point x="1055" y="705" type="line"/>
      <point x="443" y="705" type="line" smooth="yes"/>
      <point x="186" y="705"/>
      <point x="60" y="542"/>
      <point x="60" y="353" type="curve" smooth="yes"/>
      <point x="60" y="164"/>
      <point x="186" y="0"/>
    </contour>
    <contour>
      <point x="458" y="186" type="line" smooth="yes"/>
      <point x="340" y="186"/>
      <point x="288" y="253"/>
      <point x="288" y="353" type="curve" smooth="yes"/>
      <point x="288" y="453"/>
      <point x="340" y="519"/>
      <point x="458" y="519" type="curve" smooth="yes"/>
      <point x="515" y="519" type="line"/>
      <point x="515" y="186" type="line"/>
    </contour>
  </outline>
</glyph>
<glyph name="oe" format="2">
  <advance width="1033"/>
  <unicode hex="0153"/>
  <anchor x="533" y="0" name="bottom"/>
  <anchor x="533" y="484" name="top"/>
  <outline>
    <contour>
      <point x="331" y="-12" type="curve" smooth="yes"/>
      <point x="431" y="-12"/>
      <point x="493" y="22"/>
      <point x="525" y="62" type="curve"/>
      <point x="533" y="62" type="line"/>
      <point x="582" y="21"/>
      <point x="638" y="-12"/>
      <point x="753" y="-12" type="curve" smooth="yes"/>
      <point x="835" y="-12"/>
      <point x="915" y="1"/>
      <point x="973" y="33" type="curve"/>
      <point x="925" y="168" type="line"/>
      <point x="883" y="148"/>
      <point x="826" y="137"/>
      <point x="776" y="137" type="curve" smooth="yes"/>
      <point x="684" y="137"/>
      <point x="631" y="162"/>
      <point x="631" y="252" type="curve" smooth="yes"/>
      <point x="631" y="281" type="line" smooth="yes"/>
      <point x="631" y="355"/>
      <point x="668" y="392"/>
      <point x="725" y="392" type="curve" smooth="yes"/>
      <point x="780" y="392"/>
      <point x="813" y="360"/>
      <point x="813" y="297" type="curve"/>
      <point x="819" y="308" type="line"/>
      <point x="605" y="308" type="line"/>
      <point x="605" y="203" type="line"/>
      <point x="995" y="203" type="line"/>
      <point x="995" y="255" type="line" smooth="yes"/>
      <point x="995" y="428"/>
      <point x="871" y="524"/>
      <point x="718" y="524" type="curve" smooth="yes"/>
      <point x="638" y="524"/>
      <point x="580" y="498"/>
      <point x="533" y="451" type="curve"/>
      <point x="525" y="451" type="line"/>
      <point x="482" y="500"/>
      <point x="408" y="524"/>
      <point x="331" y="524" type="curve" smooth="yes"/>
      <point x="151" y="524"/>
      <point x="41" y="414"/>
      <point x="41" y="257" type="curve" smooth="yes"/>
      <point x="41" y="101"/>
      <point x="149" y="-12"/>
    </contour>
    <contour>
      <point x="342" y="151" type="curve" smooth="yes"/>
      <point x="285" y="151"/>
      <point x="255" y="187"/>
      <point x="255" y="257" type="curve" smooth="yes"/>
      <point x="255" y="325"/>
      <point x="284" y="361"/>
      <point x="341" y="361" type="curve" smooth="yes"/>
      <point x="396" y="361"/>
      <point x="423" y="325"/>
      <point x="423" y="257" type="curve" smooth="yes"/>
      <point x="423" y="187"/>
      <point x="395" y="151"/>
    </contour>
  </outline>
</glyph>
<glyph name="Bhook" format="2">
  <advance width="966"/>
  <unicode hex="0181"/>
  <outline>
    <contour>
      <point x="256" y="0" type="line"/>
      <point x="627" y="0" type="line" smooth="yes"/>
      <point x="803" y="0"/>
      <point x="912" y="80"/>
      <point x="912" y="204" type="curve" smooth="yes"/>
      <point x="912" y="300"/>
      <point x="855" y="345"/>
      <point x="794" y="364" type="curve"/>
      <point x="794" y="372" type="line"/>
      <point x="844" y="395"/>
      <point x="893" y="444"/>
      <point x="893" y="523" type="curve" smooth="yes"/>
      <point x="893" y="640"/>
      <point x="788" y="705"/>
      <point x="618" y="705" type="curve" smooth="yes"/>
      <point x="245" y="705" type="line" smooth="yes"/>
      <point x="83" y="705"/>
      <point x="0" y="629"/>
      <point x="0" y="490" type="curve" smooth="yes"/>
      <point x="0" y="432" type="line"/>
      <point x="171" y="432" type="line"/>
      <point x="171" y="484" type="line" smooth="yes"/>
      <point x="171" y="539"/>
      <point x="192" y="561"/>
      <point x="242" y="561" type="curve" smooth="yes"/>
      <point x="256" y="561" type="line"/>
    </contour>
    <contour>
      <point x="471" y="164" type="line"/>
      <point x="471" y="274" type="line"/>
      <point x="629" y="274" type="line" smooth="yes"/>
      <point x="670" y="274"/>
      <point x="698" y="253"/>
      <point x="698" y="219" type="curve" smooth="yes"/>
      <point x="698" y="185"/>
      <point x="670" y="164"/>
      <point x="629" y="164" type="curve" smooth="yes"/>
    </contour>
    <contour>
      <point x="471" y="433" type="line"/>
      <point x="471" y="541" type="line"/>
      <point x="610" y="541" type="line" smooth="yes"/>
      <point x="659" y="541"/>
      <point x="679" y="522"/>
      <point x="679" y="487" type="curve" smooth="yes"/>
      <point x="679" y="454"/>
      <point x="659" y="433"/>
      <point x="610" y="433" type="curve" smooth="yes"/>
    </contour>
  </outline>
</glyph>
<glyph name="Yhook" format="2">
  <advance width="740"/>
  <unicode hex="01B3"/>
  <outline>
    <contour>
      <point x="241" y="0" type="line"/>
      <point x="466" y="0" type="line"/>
      <point x="466" y="367" type="line"/>
      <point x="428" y="216" type="line"/>
      <point x="587" y="471" type="line" smooth="yes"/>
      <point x="618" y="520"/>
      <point x="641" y="539"/>
      <point x="681" y="539" type="curve" smooth="yes"/>
      <point x="699" y="539"/>
      <point x="708" y="538"/>
      <point x="723" y="531" type="curve"/>
      <point x="723" y="702" type="line"/>
      <point x="705" y="711"/>
      <point x="674" y="717"/>
      <point x="642" y="717" type="curve" smooth="yes"/>
      <point x="547" y="717"/>
      <point x="484" y="686"/>
      <point x="430" y="592" type="curve" smooth="yes"/>
      <point x="359" y="469" type="line"/>
      <point x="351" y="469" type="line"/>
      <point x="218" y="705" type="line"/>
      <point x="-26" y="705" type="line"/>
      <point x="279" y="216" type="line"/>
      <point x="241" y="367" type="line"/>
    </contour>
  </outline>
</glyph>
<glyph name="gstroke" format="2">
  <advance width="696"/>
  <unicode hex="01E5"/>
  <outline>
    <contour>
      <point x="301" y="-192" type="curve" smooth="yes"/>
      <point x="474" y="-192"/>
      <point x="583" y="-147"/>
      <point x="620" y="-18" type="curve"/>
      <point x="600" y="-36" type="line"/>
      <point x="696" y="-36" type="line"/>
      <point x="696" y="43" type="line"/>
      <point x="615" y="43" type="line"/>
      <point x="629" y="23" type="line"/>
      <point x="632" y="46"/>
      <point x="634" y="71"/>
      <point x="634" y="98" type="curve" smooth="yes"/>
      <point x="634" y="512" type="line"/>
      <point x="441" y="512" type="line"/>
      <point x="441" y="433" type="line"/>
      <point x="433" y="433" type="line"/>
      <point x="402" y="488"/>
      <point x="345" y="524"/>
      <point x="272" y="524" type="curve" smooth="yes"/>
      <point x="133" y="524"/>
      <point x="41" y="435"/>
      <point x="41" y="287" type="curve" smooth="yes"/>
      <point x="41" y="140"/>
      <point x="133" y="62"/>
      <point x="272" y="62" type="curve" smooth="yes"/>
      <point x="345" y="62"/>
      <point x="402" y="91"/>
      <point x="433" y="140" type="curve"/>
      <point x="441" y="140" type="line"/>
      <point x="441" y="59" type="line" smooth="yes"/>
      <point x="441" y="47"/>
      <point x="440" y="36"/>
      <point x="439" y="26" type="curve"/>
      <point x="454" y="43" type="line"/>
      <point x="259" y="43" type="line"/>
      <point x="259" y="-36" type="line"/>
      <point x="445" y="-36" type="line"/>
      <point x="425" y="-19" type="line"/>
      <point x="404" y="-54"/>
      <point x="362" y="-63"/>
      <point x="293" y="-63" type="curve" smooth="yes"/>
      <point x="243" y="-63"/>
      <point x="160" y="-46"/>
      <point x="116" y="-20" type="curve"/>
      <point x="80" y="-144" type="line"/>
      <point x="139" y="-176"/>
      <point x="224" y="-192"/>
    </contour>
    <contour>
      <point x="337" y="194" type="curve" smooth="yes"/>
      <point x="284" y="194"/>
      <point x="251" y="230"/>
      <point x="251" y="284" type="curve" smooth="yes"/>
      <point x="251" y="335"/>
      <point x="284" y="369"/>
      <point x="337" y="369" type="curve" smooth="yes"/>
      <point x="390" y="369"/>
      <point x="423" y="335"/>
      <point x="423" y="284" type="curve" smooth="yes"/>
      <point x="423" y="230"/>
      <point x="390" y="194"/>
    </contour>
  </outline>
</glyph>
<glyph name="jdotless" format="2">
  <advance width="332"/>
  <unicode hex="0237"/>
  <anchor x="168" y="0" name="bottom"/>
  <anchor x="168" y="484" name="top"/>
  <outline>
    <contour>
      <point x="-29" y="-193" type="line"/>
      <point x="32" y="-187" type="line" smooth="yes"/>
      <point x="239" y="-167"/>
      <point x="281" y="-96"/>
      <point x="281" y="49" type="curve" smooth="yes"/>
      <point x="281" y="512" type="line"/>
      <point x="56" y="512" type="line"/>
      <point x="56" y="48" type="line" smooth="yes"/>
      <point x="56" y="0"/>
      <point x="36" y="-25"/>
      <point x="0" y="-30" type="curve" smooth="yes"/>
      <point x="-47" y="-36" type="line"/>
    </contour>
  </outline>
</glyph>
<glyph name="bhook" format="2">
  <advance width="711"/>
  <unicode hex="0253"/>
  <outline>
    <contour>
      <point x="437" y="-12" type="curve" smooth="yes"/>
      <point x="593" y="-12"/>
      <point x="670" y="103"/>
      <point x="670" y="257" type="curve" smooth="yes"/>
      <point x="670" y="403"/>
      <point x="592" y="524"/>
      <point x="444" y="524" type="curve" smooth="yes"/>
      <point x="368" y="524"/>
      <point x="312" y="492"/>
      <point x="275" y="448" type="curve"/>
      <point x="267" y="448" type="line"/>
      <point x="267" y="466" type="line" smooth="yes"/>
      <point x="267" y="531"/>
      <point x="298" y="563"/>
      <point x="352" y="563" type="curve" smooth="yes"/>
      <point x="366" y="563"/>
      <point x="377" y="562"/>
      <point x="392" y="560" type="curve"/>
      <point x="409" y="706" type="line"/>
      <point x="390" y="712"/>
      <point x="350" y="717"/>
      <point x="326" y="717" type="curve" smooth="yes"/>
      <point x="136" y="717"/>
      <point x="62" y="620"/>
      <point x="62" y="478" type="curve" smooth="yes"/>
      <point x="62" y="0" type="line"/>
      <point x="255" y="0" type="line"/>
      <point x="255" y="90" type="line"/>
      <point x="263" y="90" type="line"/>
      <point x="301" y="19"/>
      <point x="357" y="-12"/>
    </contour>
    <contour>
      <point x="369" y="151" type="curve" smooth="yes"/>
      <point x="313" y="151"/>
      <point x="284" y="191"/>
      <point x="284" y="257" type="curve" smooth="yes"/>
      <point x="284" y="323"/>
      <point x="312" y="361"/>
      <point x="368" y="361" type="curve" smooth="yes"/>
      <point x="426" y="361"/>
      <point x="452" y="323"/>
      <point x="452" y="257" type="curve" smooth="yes"/>
      <point x="452" y="191"/>
      <point x="426" y="151"/>
    </contour>
  </outline>
</glyph>
<glyph name="dhook" format="2">
  <advance width="711"/>
  <unicode hex="0257"/>
  <outline>
    <contour>
      <point x="274" y="-12" type="curve" smooth="yes"/>
      <point x="354" y="-12"/>
      <point x="410" y="19"/>
      <point x="448" y="90" type="curve"/>
      <point x="456" y="90" type="line"/>
      <point x="456" y="0" type="line"/>
      <point x="649" y="0" type="line"/>
      <point x="648" y="466" type="line" smooth="yes"/>
      <point x="648" y="531"/>
      <point x="680" y="548"/>
      <point x="713" y="548" type="curve" smooth="yes"/>
      <point x="727" y="548"/>
      <point x="738" y="547"/>
      <point x="753" y="543" type="curve"/>
      <point x="770" y="704" type="line"/>
      <point x="751" y="712"/>
      <point x="711" y="717"/>
      <point x="687" y="717" type="curve" smooth="yes"/>
      <point x="517" y="717"/>
      <point x="424" y="622"/>
      <point x="424" y="480" type="curve" smooth="yes"/>
      <point x="424" y="448" type="line"/>
      <point x="416" y="448" type="line"/>
      <point x="386" y="492"/>
      <point x="343" y="524"/>
      <point x="267" y="524" type="curve" smooth="yes"/>
      <point x="119" y="524"/>
      <point x="41" y="403"/>
      <point x="41" y="257" type="curve" smooth="yes"/>
      <point x="41" y="103"/>
      <point x="118" y="-12"/>
    </contour>
    <contour>
      <point x="344" y="151" type="curve" smooth="yes"/>
      <point x="288" y="151"/>
      <point x="259" y="191"/>
      <point x="259" y="257" type="curve" smooth="yes"/>
      <point x="259" y="323"/>
      <point x="287" y="361"/>
      <point x="343" y="361" type="curve" smooth="yes"/>
      <point x="401" y="361"/>
      <point x="427" y="323"/>
      <point x="427" y="257" type="curve" smooth="yes"/>
      <point x="427" y="191"/>
      <point x="401" y="151"/>
    </contour>
  </outline>
</glyph>
<glyph name="schwa" format="2">
  <advance width="649"/>
  <unicode hex="0259"/>
  <outline>
    <contour>
      <point x="316" y="-12" type="curve" smooth="yes"/>
      <point x="489" y="-12"/>
      <point x="608" y="109"/>
      <point x="608" y="255" type="curve" smooth="yes"/>
      <point x="608" y="418"/>
      <point x="513" y="524"/>
      <point x="280" y="524" type="curve" smooth="yes"/>
      <point x="208" y="524"/>
      <point x="124" y="510"/>
      <point x="66" y="480" type="curve"/>
      <point x="98" y="330" type="line"/>
      <point x="140" y="352"/>
      <point x="207" y="364"/>
      <point x="257" y="364" type="curve" smooth="yes"/>
      <point x="363" y="364"/>
      <point x="402" y="327"/>
      <point x="402" y="263" type="curve" smooth="yes"/>
      <point x="402" y="226" type="line" smooth="yes"/>
      <point x="402" y="165"/>
      <point x="365" y="133"/>
      <point x="314" y="133" type="curve" smooth="yes"/>
      <point x="263" y="133"/>
      <point x="234" y="165"/>
      <point x="234" y="226" type="curve"/>
      <point x="219" y="209" type="line"/>
      <point x="428" y="209" type="line"/>
      <point x="428" y="299" type="line"/>
      <point x="38" y="299" type="line"/>
      <point x="38" y="257" type="line" smooth="yes"/>
      <point x="38" y="89"/>
      <point x="163" y="-12"/>
    </contour>
  </outline>
</glyph>
<glyph name="commaturnedmod" format="2">
  <advance width="500"/>
  <unicode hex="02BB"/>
  <anchor x="250" y="484" name="_top"/>
  <anchor x="250" y="701" name="top"/>
  <outline>
    <contour>
      <point x="160" y="584" type="line"/>
      <point x="340" y="584" type="line"/>
      <point x="340" y="723" type="line"/>
      <point x="212" y="723" type="line"/>
      <point x="252" y="700" type="line"/>
      <point x="252" y="728"/>
      <point x="270" y="774"/>
      <point x="304" y="806" type="curve"/>
      <point x="232" y="851" type="line"/>
      <point x="180" y="808"/>
      <point x="160" y="749"/>
      <point x="160" y="684" type="curve" smooth="yes"/>
    </contour>
  </outline>
</glyph>
<glyph name="ringhalfleft" format="2">
  <advance width="500"/>
  <unicode hex="02BF"/>
  <anchor x="200" y="484" name="_top"/>
  <anchor x="200" y="701" name="top"/>
  <outline>
    <contour>
      <point x="200" y="563" type="curve"/>
      <point x="200" y="636" type="line"/>
      <point x="177" y="636"/>
      <point x="161" y="655"/>
      <point x="161" y="678" type="curve" smooth="yes"/>
      <point x="161" y="701"/>
      <point x="177" y="719"/>
      <point x="200" y="719" type="curve"/>
      <point x="200" y="792" type="line"/>
      <point x="135" y="792"/>
      <point x="84" y="742"/>
      <point x="84" y="678" type="curve" smooth="yes"/>
      <point x="84" y="613"/>
      <point x="135" y="563"/>
    </contour>
  </outline>
</glyph>
<glyph name="gravecomb" format="2">
  <unicode hex="0300"/>
  <anchor x="0" y="484" name="_top"/>
  <anchor x="0" y="701" name="top"/>
  <outline>
    <contour>
      <point x="-66" y="574" type="line"/>
      <point x="86" y="574" type="line"/>
      <point x="-15" y="781" type="line"/>
      <point x="-227" y="781" type="line"/>
    </contour>
  </outline>
</glyph>
<glyph name="tildecomb" format="2">
  <unicode hex="0303"/>
  <anchor x="0" y="484" name="_top"/>
  <anchor x="0" y="701" name="top"/>
  <outline>
    <contour>
      <point x="-118" y="578" type="line"/>
      <point x="-111" y="614"/>
      <point x="-103" y="636"/>
      <point x="-69" y="636" type="curve" smooth="yes"/>
      <point x="-47" y="636"/>
      <point x="-27" y="624"/>
      <point x="-6" y="611" type="curve" smooth="yes"/>
      <point x="20" y="596"/>
      <point x="48" y="579"/>
      <point x="86" y="579" type="curve" smooth="yes"/>
      <point x="165" y="579"/>
      <point x="215" y="646"/>
      <point x="220" y="759" type="curve"/>
      <point x="118" y="765" type="line"/>
      <point x="111" y="729"/>
      <point x="103" y="707"/>
      <point x="69" y="707" type="curve" smooth="yes"/>
      <point x="47" y="707"/>
      <point x="27" y="719"/>
      <point x="6" y="732" type="curve" smooth="yes"/>
      <point x="-20" y="747"/>
      <point x="-48" y="764"/>
      <point x="-86" y="764" type="curve" smooth="yes"/>
      <point x="-165" y="764"/>
      <point x="-215" y="697"/>
      <point x="-220" y="584" type="curve"/>
    </contour>
  </outline>
</glyph>
<glyph name="macroncomb" format="2">
  <unicode hex="0304"/>
  <anchor x="0" y="484" name="_top"/>
  <anchor x="0" y="701" name="top"/>
  <outline>
    <contour>
      <point x="-195" y="599" type="line"/>
      <point x="195" y="599" type="line"/>
      <point x="195" y="739" type="line"/>
      <point x="-195" y="739" type="line"/>
    </contour>
  </outline>
</glyph>
<glyph name="brevecomb" format="2">
  <unicode hex="0306"/>
  <anchor x="0" y="484" name="_top"/>
  <anchor x="0" y="701" name="top"/>
  <outline>
    <contour>
      <point x="0" y="564" type="curve" smooth="yes"/>
      <point x="142" y="564"/>
      <point x="198" y="663"/>
      <point x="198" y="784" type="curve"/>
      <point x="75" y="793" type="line"/>
      <point x="70" y="738"/>
      <point x="56" y="695"/>
      <point x="0" y="695" type="curve" smooth="yes"/>
      <point x="-56" y="695"/>
      <point x="-70" y="738"/>
      <point x="-75" y="793" type="curve"/>
      <point x="-198" y="784" type="line"/>
      <point x="-198" y="663"/>
      <point x="-142" y="564"/>
    </contour>
  </outline>
</glyph>
<glyph name="dieresiscomb" format="2">
  <unicode hex="0308"/>
  <anchor x="0" y="484" name="_top"/>
  <anchor x="0" y="701" name="top"/>
  <outline>
    <contour>
      <point x="37" y="574" type="line"/>
      <point x="222" y="574" type="line"/>
      <point x="222" y="759" type="line"/>
      <point x="37" y="759" type="line"/>
    </contour>
    <contour>
      <point x="-222" y="574" type="line"/>
      <point x="-37" y="574" type="line"/>
      <point x="-37" y="759" type="line"/>
      <point x="-222" y="759" type="line"/>
    </contour>
  </outline>
</glyph>
<glyph name="hookabovecomb" format="2">
  <unicode hex="0309"/>
  <anchor x="0" y="484" name="_top"/>
  <anchor x="0" y="701" name="top"/>
  <outline>
    <contour>
      <point x="-71" y="574" type="line"/>
      <point x="69" y="574" type="line"/>
      <point x="69" y="593" type="line" smooth="yes"/>
      <point x="69" y="645"/>
      <point x="161" y="649"/>
      <point x="161" y="727" type="curve" smooth="yes"/>
      <point x="161" y="782"/>
      <point x="106" y="813"/>
      <point x="10" y="813" type="curve" smooth="yes"/>
      <point x="-56" y="813"/>
      <point x="-112" y="803"/>
      <point x="-154" y="783" type="curve"/>
      <point x="-119" y="699" type="line"/>
      <point x="-98" y="709"/>
      <point x="-78" y="715"/>
      <point x="-52" y="715" type="curve" smooth="yes"/>
      <point x="-32" y="715"/>
      <point x="-18" y="709"/>
      <point x="-18" y="693" type="curve" smooth="yes"/>
      <point x="-18" y="663"/>
      <point x="-71" y="649"/>
      <point x="-71" y="599" type="curve" smooth="yes"/>
    </contour>
  </outline>
</glyph>
<glyph name="ringcomb" format="2">
  <unicode hex="030A"/>
  <anchor x="0" y="484" name="_top"/>
  <anchor x="0" y="701" name="top"/>
  <outline>
    <contour>
      <point x="0" y="555" type="curve" smooth="yes"/>
      <point x="88" y="555"/>
      <point x="157" y="620"/>
      <point x="157" y="706" type="curve" smooth="yes"/>
      <point x="157" y="792"/>
      <point x="88" y="857"/>
      <point x="0" y="857" type="curve" smooth="yes"/>
      <point x="-88" y="857"/>
      <point x="-157" y="792"/>
      <point x="-157" y="706" type="curve" smooth="yes"/>
      <point x="-157" y="620"/>
      <point x="-88" y="555"/>
    </contour>
    <contour>
      <point x="0" y="642" type="curve" smooth="yes"/>
      <point x="-35" y="642"/>
      <point x="-63" y="668"/>
      <point x="-63" y="706" type="curve" smooth="yes"/>
      <point x="-63" y="744"/>
      <point x="-35" y="769"/>
      <point x="0" y="769" type="curve" smooth="yes"/>
      <point x="35" y="769"/>
      <point x="63" y="744"/>
      <point x="63" y="706" type="curve" smooth="yes"/>
      <point x="63" y="668"/>
      <point x="35" y="642"/>
    </contour>
  </outline>
</glyph>
<glyph name="breveinvertedcomb" format="2">
  <unicode hex="0311"/>
  <anchor x="0" y="484" name="_top"/>
  <anchor x="0" y="701" name="top"/>
  <outline>
    <contour>
      <point x="-75" y="564" type="line"/>
      <point x="-70" y="619"/>
      <point x="-56" y="662"/>
      <point x="0" y="662" type="curve" smooth="yes"/>
      <point x="56" y="662"/>
      <point x="70" y="619"/>
      <point x="75" y="564" type="curve"/>
      <point x="198" y="573" type="line"/>
      <point x="198" y="694"/>
      <point x="142" y="793"/>
      <point x="0" y="793" type="curve" smooth="yes"/>
      <point x="-142" y="793"/>
      <point x="-198" y="694"/>
      <point x="-198" y="573" type="curve"/>
    </contour>
  </outline>
</glyph>
<glyph name="ogonekcomb" format="2">
  <unicode hex="0328"/>
  <anchor x="0" y="0" name="_ogonek"/>
  <outline>
    <contour>
      <point x="-36" y="-215" type="curve" smooth="yes"/>
      <point x="2" y="-215"/>
      <point x="27" y="-211"/>
      <point x="66" y="-197" type="curve"/>
      <point x="46" y="-97" type="line"/>
      <point x="26" y="-103"/>
      <point x="12" y="-106"/>
      <point x="-10" y="-106" type="curve" smooth="yes"/>
      <point x="-31" y="-106"/>
      <point x="-49" y="-96"/>
      <point x="-49" y="-71" type="curve" smooth="yes"/>
      <point x="-49" y="-47"/>
      <point x="-32" y="-22"/>
      <point x="0" y="0" type="curve"/>
      <point x="-64" y="52" type="line"/>
      <point x="-131" y="20"/>
      <point x="-178" y="-47"/>
      <point x="-178" y="-109" type="curve" smooth="yes"/>
      <point x="-178" y="-173"/>
      <point x="-128" y="-215"/>
    </contour>
  </outline>
</glyph>
<glyph name="brevebelowcomb" format="2">
  <unicode hex="032E"/>
  <anchor x="0" y="0" name="_bottom"/>
  <anchor x="0" y="-170" name="bottom"/>
  <outline>
    <contour>
      <point x="0" y="-215" type="curve" smooth="yes"/>
      <point x="132" y="-215"/>
      <point x="208" y="-146"/>
      <point x="208" y="-45" type="curve"/>
      <point x="90" y="-36" type="line"/>
      <point x="82" y="-78"/>
      <point x="56" y="-98"/>
      <point x="0" y="-98" type="curve" smooth="yes"/>
      <point x="-56" y="-98"/>
      <point x="-83" y="-78"/>
      <point x="-90" y="-36" type="curve"/>
      <point x="-208" y="-45" type="line"/>
      <point x="-208" y="-146"/>
      <point x="-132" y="-215"/>
    </contour>
  </outline>
</glyph>
<glyph name="slashshortcomb" format="2">
  <unicode hex="0337"/>
  <anchor x="0" y="359" name="_center"/>
  <outline>
    <contour>
      <point x="-152" y="181" type="line"/>
      <point x="227" y="400" type="line"/>
      <point x="151" y="536" type="line"/>
      <point x="-228" y="317" type="line"/>
    </contour>
  </outline>
</glyph>
<glyph name="slashlongcomb" format="2">
  <unicode hex="0338"/>
  <anchor x="0" y="250" name="_center"/>
  <outline>
    <contour>
      <point x="-150" y="-87" type="line"/>
      <point x="239" y="531" type="line"/>
      <point x="151" y="584" type="line"/>
      <point x="-239" y="-34" type="line"/>
    </contour>
  </outline>
</glyph>
<glyph name="Sigma" format="2">
  <advance width="624"/>
  <unicode hex="03A3"/>
  <outline>
    <contour>
      <point x="48" y="-180" type="line"/>
      <point x="574" y="-180" type="line"/>
      <point x="574" y="-10" type="line"/>
      <point x="255" y="-10" type="line"/>
      <point x="255" y="-58" type="line"/>
      <point x="448" y="200" type="line"/>
      <point x="448" y="326" type="line"/>
      <point x="255" y="583" type="line"/>
      <point x="255" y="535" type="line"/>
      <point x="574" y="535" type="line"/>
      <point x="574" y="705" type="line"/>
      <point x="48" y="705" type="line"/>
      <point x="48" y="550" type="line"/>
      <point x="287" y="228" type="line"/>
      <point x="287" y="297" type="line"/>
      <point x="48" y="-25" type="line"/>
    </contour>
  </outline>
</glyph>
<glyph name="Dzhe-cy" format="2">
  <advance width="842"/>
  <unicode hex="040F"/>
  <outline>
    <contour>
      <point x="324" y="-180" type="line"/>
      <point x="529" y="-180" type="line"/>
      <point x="529" y="0" type="line"/>
      <point x="762" y="0" type="line"/>
      <point x="762" y="705" type="line"/>
      <point x="537" y="705" type="line"/>
      <point x="537" y="186" type="line"/>
      <point x="305" y="186" type="line"/>
      <point x="305" y="705" type="line"/>
      <point x="80" y="705" type="line"/>
      <point x="80" y="0" type="line"/>
      <point x="324" y="0" type="line"/>
    </contour>
  </outline>
</glyph>
<glyph name="De-cy" format="2">
  <advance width="932"/>
  <unicode hex="0414"/>
  <outline>
    <contour>
      <point x="41" y="-180" type="line"/>
      <point x="246" y="-180" type="line"/>
      <point x="246" y="0" type="line"/>
      <point x="675" y="0" type="line"/>
      <point x="675" y="-180" type="line"/>
      <point x="880" y="-180" type="line"/>
      <point x="880" y="185" type="line"/>
      <point x="790" y="185" type="line"/>
      <point x="790" y="705" type="line"/>
      <point x="201" y="705" type="line"/>
      <point x="201" y="496" type="line" smooth="yes"/>
      <point x="201" y="329"/>
      <point x="175" y="251"/>
      <point x="123" y="185" type="curve"/>
      <point x="41" y="185" type="line"/>
    </contour>
    <contour>
      <point x="348" y="184" type="line"/>
      <point x="389" y="255"/>
      <point x="411" y="324"/>
      <point x="411" y="472" type="curve" smooth="yes"/>
      <point x="411" y="521" type="line"/>
      <point x="565" y="521" type="line"/>
      <point x="565" y="184" type="line"/>
    </contour>
  </outline>
</glyph>
<glyph name="Zhe-cy" format="2">
  <advance width="1216"/>
  <unicode hex="0416"/>
  <anchor x="945" y="0" name="bottomright"/>
  <anchor x="608" y="705" name="top"/>
  <outline>
    <contour>
      <point x="19" y="0" type="line"/>
      <point x="271" y="0" type="line"/>
      <point x="360" y="195" type="line" smooth="yes"/>
      <point x="381" y="241"/>
      <point x="410" y="259"/>
      <point x="465" y="259" type="curve" smooth="yes"/>
      <point x="496" y="259" type="line"/>
      <point x="496" y="0" type="line"/>
      <point x="721" y="0" type="line"/>
      <point x="721" y="259" type="line"/>
      <point x="751" y="259" type="line" smooth="yes"/>
      <point x="806" y="259"/>
      <point x="836" y="241"/>
      <point x="857" y="195" type="curve" smooth="yes"/>
      <point x="945" y="0" type="line"/>
      <point x="1197" y="0" type="line"/>
      <point x="1070" y="262" type="line" smooth="yes"/>
      <point x="1024" y="356"/>
      <point x="943" y="410"/>
      <point x="846" y="430" type="curve"/>
      <point x="953" y="374" type="line"/>
      <point x="1163" y="705" type="line"/>
      <point x="910" y="705" type="line"/>
      <point x="743" y="419" type="line"/>
      <point x="770" y="440" type="line"/>
      <point x="721" y="440" type="line"/>
      <point x="721" y="705" type="line"/>
      <point x="496" y="705" type="line"/>
      <point x="496" y="440" type="line"/>
      <point x="447" y="440" type="line"/>
      <point x="474" y="419" type="line"/>
      <point x="306" y="705" type="line"/>
      <point x="53" y="705" type="line"/>
      <point x="263" y="374" type="line"/>
      <point x="370" y="430" type="line"/>
      <point x="274" y="410"/>
      <point x="194" y="357"/>
      <point x="147" y="262" type="curve" smooth="yes"/>
    </contour>
  </outline>
</glyph>
<glyph name="Ze-cy" format="2">
  <advance width="674"/>
  <unicode hex="0417"/>
  <anchor x="307" y="0" name="bottom"/>
  <anchor x="295" y="705" name="top"/>
  <outline>
    <contour>
      <point x="309" y="-12" type="curve" smooth="yes"/>
      <point x="523" y="-12"/>
      <point x="620" y="79"/>
      <point x="620" y="202" type="curve" smooth="yes"/>
      <point x="620" y="282"/>
      <point x="583" y="336"/>
      <point x="509" y="363" type="curve"/>
      <point x="509" y="371" type="line"/>
      <point x="567" y="400"/>
      <point x="601" y="454"/>
      <point x="601" y="523" type="curve" smooth="yes"/>
      <point x="601" y="633"/>
      <point x="513" y="717"/>
      <point x="319" y="717" type="curve" smooth="yes"/>
      <point x="176" y="717"/>
      <point x="84" y="688"/>
      <point x="20" y="654" type="curve"/>
      <point x="93" y="483" type="line"/>
      <point x="141" y="516"/>
      <point x="223" y="536"/>
      <point x="291" y="536" type="curve" smooth="yes"/>
      <point x="368" y="536"/>
      <point x="392" y="518"/>
      <point x="392" y="488" type="curve" smooth="yes"/>
      <point x="392" y="453"/>
      <point x="370" y="440"/>
      <point x="304" y="440" type="curve" smooth="yes"/>
      <point x="134" y="440" type="line"/>
      <point x="134" y="276" type="line"/>
      <point x="323" y="276" type="line" smooth="yes"/>
      <point x="389" y="276"/>
      <point x="412" y="259"/>
      <point x="412" y="227" type="curve" smooth="yes"/>
      <point x="412" y="182"/>
      <point x="376" y="169"/>
      <point x="288" y="169" type="curve" smooth="yes"/>
      <point x="210" y="169"/>
      <point x="128" y="189"/>
      <point x="80" y="222" type="curve"/>
      <point x="8" y="51" type="line"/>
      <point x="85" y="4"/>
      <point x="183" y="-12"/>
    </contour>
  </outline>
</glyph>
<glyph name="Ka-cy" format="2">
  <advance width="820"/>
  <unicode hex="041A"/>
  <anchor x="549" y="0" name="bottomright"/>
  <anchor x="414" y="353" name="center"/>
  <anchor x="395" y="705" name="top"/>
  <anchor x="305" y="705" name="topleft"/>
  <outline>
    <contour>
      <point x="80" y="0" type="line"/>
      <point x="305" y="0" type="line"/>
      <point x="305" y="259" type="line"/>
      <point x="355" y="259" type="line" smooth="yes"/>
      <point x="410" y="259"/>
      <point x="440" y="241"/>
      <point x="461" y="195" type="curve" smooth="yes"/>
      <point x="549" y="0" type="line"/>
      <point x="801" y="0" type="line"/>
      <point x="674" y="262" type="line" smooth="yes"/>
      <point x="628" y="356"/>
      <point x="547" y="410"/>
      <point x="450" y="430" type="curve"/>
      <point x="557" y="369" type="line"/>
      <point x="767" y="705" type="line"/>
      <point x="514" y="705" type="line"/>
      <point x="347" y="414" type="line"/>
      <point x="374" y="440" type="line"/>
      <point x="305" y="440" type="line"/>
      <point x="305" y="705" type="line"/>
      <point x="80" y="705" type="line"/>
    </contour>
  </outline>
</glyph>
<glyph name="El-cy" format="2">
  <advance width="838"/>
  <unicode hex="041B"/>
  <anchor x="533" y="0" name="bottomright"/>
  <outline>
    <contour>
      <point x="140" y="-20" type="line"/>
      <point x="287" y="52"/>
      <point x="378" y="204"/>
      <point x="378" y="430" type="curve" smooth="yes"/>
      <point x="378" y="519" type="line"/>
      <point x="533" y="519" type="line"/>
      <point x="533" y="0" type="line"/>
      <point x="758" y="0" type="line"/>
      <point x="758" y="705" type="line"/>
      <point x="168" y="705" type="line"/>
      <point x="168" y="486" type="line" smooth="yes"/>
      <point x="168" y="297"/>
      <point x="128" y="197"/>
      <point x="18" y="131" type="curve"/>
    </contour>
  </outline>
</glyph>
<glyph name="Pe-cy" format="2">
  <advance width="850"/>
  <unicode hex="041F"/>
  <anchor x="545" y="0" name="bottomright"/>
  <outline>
    <contour>
      <point x="80" y="0" type="line"/>
      <point x="305" y="0" type="line"/>
      <point x="305" y="519" type="line"/>
      <point x="545" y="519" type="line"/>
      <point x="545" y="0" type="line"/>
      <point x="770" y="0" type="line"/>
      <point x="770" y="705" type="line"/>
      <point x="80" y="705" type="line"/>
    </contour>
  </outline>
</glyph>
<glyph name="Ef-cy" format="2">
  <advance width="1066"/>
  <unicode hex="0424"/>
  <outline>
    <contour>
      <point x="419" y="-30" type="line"/>
      <point x="647" y="-30" type="line"/>
      <point x="647" y="106" type="line"/>
      <point x="597" y="73" type="line"/>
      <point x="625" y="73" type="line" smooth="yes"/>
      <point x="843" y="73"/>
      <point x="1006" y="155"/>
      <point x="1006" y="358" type="curve" smooth="yes"/>
      <point x="1006" y="561"/>
      <point x="847" y="643"/>
      <point x="625" y="643" type="curve" smooth="yes"/>
      <point x="597" y="643" type="line"/>
      <point x="647" y="610" type="line"/>
      <point x="647" y="740" type="line"/>
      <point x="419" y="740" type="line"/>
      <point x="419" y="610" type="line"/>
      <point x="469" y="643" type="line"/>
      <point x="441" y="643" type="line" smooth="yes"/>
      <point x="219" y="643"/>
      <point x="60" y="561"/>
      <point x="60" y="358" type="curve" smooth="yes"/>
      <point x="60" y="155"/>
      <point x="223" y="73"/>
      <point x="441" y="73" type="curve" smooth="yes"/>
      <point x="469" y="73" type="line"/>
      <point x="419" y="106" type="line"/>
    </contour>
    <contour>
      <point x="421" y="199" type="line"/>
      <point x="461" y="239" type="line"/>
      <point x="425" y="239" type="line" smooth="yes"/>
      <point x="365" y="239"/>
      <point x="285" y="248"/>
      <point x="285" y="358" type="curve" smooth="yes"/>
      <point x="285" y="468"/>
      <point x="361" y="477"/>
      <point x="425" y="477" type="curve" smooth="yes"/>
      <point x="461" y="477" type="line"/>
      <point x="421" y="517" type="line"/>
    </contour>
    <contour>
      <point x="646" y="199" type="line"/>
      <point x="646" y="517" type="line"/>
      <point x="605" y="477" type="line"/>
      <point x="641" y="477" type="line" smooth="yes"/>
      <point x="705" y="477"/>
      <point x="781" y="468"/>
      <point x="781" y="358" type="curve" smooth="yes"/>
      <point x="781" y="248"/>
      <point x="701" y="239"/>
      <point x="641" y="239" type="curve" smooth="yes"/>
      <point x="605" y="239" type="line"/>
    </contour>
  </outline>
</glyph>
<glyph name="Che-cy" format="2">
  <advance width="808"/>
  <unicode hex="0427"/>
  <anchor x="503" y="0" name="bottomright"/>
  <anchor x="396" y="295" name="center"/>
  <anchor x="396" y="705" name="top"/>
  <outline>
    <contour>
      <point x="503" y="0" type="line"/>
      <point x="728" y="0" type="line"/>
      <point x="728" y="705" type="line"/>
      <point x="503" y="705" type="line"/>
      <point x="503" y="418" type="line"/>
      <point x="477" y="409"/>
      <point x="442" y="404"/>
      <point x="415" y="404" type="curve" smooth="yes"/>
      <point x="337" y="404"/>
      <point x="288" y="441"/>
      <point x="288" y="540" type="curve" smooth="yes"/>
      <point x="288" y="705" type="line"/>
      <point x="63" y="705" type="line"/>
      <point x="63" y="525" type="line" smooth="yes"/>
      <point x="63" y="315"/>
      <point x="184" y="216"/>
      <point x="377" y="216" type="curve" smooth="yes"/>
      <point x="430" y="216"/>
      <point x="477" y="224"/>
      <point x="503" y="232" type="curve"/>
    </contour>
  </outline>
</glyph>
<glyph name="Sha-cy" format="2">
  <advance width="1177"/>
  <unicode hex="0428"/>
  <outline>
    <contour>
      <point x="80" y="0" type="line"/>
      <point x="1097" y="0" type="line"/>
      <point x="1097" y="705" type="line"/>
      <point x="876" y="705" type="line"/>
      <point x="876" y="186" type="line"/>
      <point x="699" y="186" type="line"/>
      <point x="699" y="705" type="line"/>
      <point x="478" y="705" type="line"/>
      <point x="478" y="186" type="line"/>
      <point x="301" y="186" type="line"/>
      <point x="301" y="705" type="line"/>
      <point x="80" y="705" type="line"/>
    </contour>
  </outline>
</glyph>
<glyph name="Shcha-cy" format="2">
  <advance width="1249"/>
  <unicode hex="0429"/>
  <outline>
    <contour>
      <point x="992" y="-180" type="line"/>
      <point x="1197" y="-180" type="line"/>
      <point x="1197" y="174" type="line"/>
      <point x="1097" y="174" type="line"/>
      <point x="1097" y="705" type="line"/>
      <point x="876" y="705" type="line"/>
      <point x="876" y="186" type="line"/>
      <point x="699" y="186" type="line"/>
      <point x="699" y="705" type="line"/>
      <point x="478" y="705" type="line"/>
      <point x="478" y="186" type="line"/>
      <point x="301" y="186" type="line"/>
      <point x="301" y="705" type="line"/>
      <point x="80" y="705" type="line"/>
      <point x="80" y="0" type="line"/>
      <point x="992" y="0" type="line"/>
    </contour>
  </outline>
</glyph>
<glyph name="Softsign-cy" format="2">
  <advance width="778"/>
  <unicode hex="042C"/>
  <outline>
    <contour>
      <point x="80" y="0" type="line"/>
      <point x="474" y="0" type="line" smooth="yes"/>
      <point x="629" y="0"/>
      <point x="736" y="84"/>
      <point x="736" y="225" type="curve" smooth="yes"/>
      <point x="736" y="366"/>
      <point x="629" y="446"/>
      <point x="474" y="446" type="curve" smooth="yes"/>
      <point x="305" y="446" type="line"/>
      <point x="305" y="705" type="line"/>
      <point x="80" y="705" type="line"/>
    </contour>
    <contour>
      <point x="305" y="160" type="line"/>
      <point x="305" y="286" type="line"/>
      <point x="444" y="286" type="line" smooth="yes"/>
      <point x="500" y="286"/>
      <point x="523" y="265"/>
      <point x="523" y="223" type="curve" smooth="yes"/>
      <point x="523" y="181"/>
      <point x="500" y="160"/>
      <point x="444" y="160" type="curve" smooth="yes"/>
    </contour>
  </outline>
</glyph>
<glyph name="ge-cy" format="2">
  <advance width="560"/>
  <unicode hex="0433"/>
  <anchor x="91" y="0" name="bottomright"/>
  <anchor x="223" y="258" name="center"/>
  <anchor x="282" y="484" name="top"/>
  <outline>
    <contour>
      <point x="71" y="0" type="line"/>
      <point x="296" y="0" type="line"/>
      <point x="296" y="348" type="line"/>
      <point x="537" y="348" type="line"/>
      <point x="537" y="512" type="line"/>
      <point x="71" y="512" type="line"/>
    </contour>
  </outline>
</glyph>
<glyph name="zhe-cy" format="2">
  <advance width="1033"/>
  <unicode hex="0436"/>
  <anchor x="825" y="0" name="bottomright"/>
  <anchor x="516" y="484" name="top"/>
  <outline>
    <contour>
      <point x="0" y="0" type="line"/>
      <point x="239" y="0" type="line"/>
      <point x="318" y="143" type="line" smooth="yes"/>
      <point x="332" y="169"/>
      <point x="351" y="179"/>
      <point x="374" y="179" type="curve" smooth="yes"/>
      <point x="404" y="179" type="line"/>
      <point x="404" y="0" type="line"/>
      <point x="629" y="0" type="line"/>
      <point x="629" y="179" type="line"/>
      <point x="659" y="179" type="line" smooth="yes"/>
      <point x="683" y="179"/>
      <point x="701" y="169"/>
      <point x="715" y="143" type="curve" smooth="yes"/>
      <point x="794" y="0" type="line"/>
      <point x="1033" y="0" type="line"/>
      <point x="914" y="216" type="line" smooth="yes"/>
      <point x="891" y="258"/>
      <point x="852" y="282"/>
      <point x="796" y="291" type="curve"/>
      <point x="825" y="230" type="line"/>
      <point x="1015" y="512" type="line"/>
      <point x="783" y="512" type="line"/>
      <point x="662" y="329" type="line"/>
      <point x="629" y="329" type="line"/>
      <point x="629" y="512" type="line"/>
      <point x="404" y="512" type="line"/>
      <point x="404" y="329" type="line"/>
      <point x="372" y="329" type="line"/>
      <point x="251" y="512" type="line"/>
      <point x="18" y="512" type="line"/>
      <point x="208" y="230" type="line"/>
      <point x="237" y="291" type="line"/>
      <point x="181" y="284"/>
      <point x="143" y="257"/>
      <point x="119" y="216" type="curve" smooth="yes"/>
    </contour>
  </outline>
</glyph>
<glyph name="ii-cy" format="2">
  <advance width="727"/>
  <unicode hex="0438"/>
  <anchor x="454" y="0" name="bottomright"/>
  <anchor x="371" y="484" name="top"/>
  <outline>
    <contour>
      <point x="71" y="0" type="line"/>
      <point x="255" y="0" type="line"/>
      <point x="446" y="248" type="line"/>
      <point x="454" y="248" type="line"/>
      <point x="454" y="0" type="line"/>
      <point x="656" y="0" type="line"/>
      <point x="656" y="512" type="line"/>
      <point x="472" y="512" type="line"/>
      <point x="281" y="265" type="line"/>
      <point x="273" y="265" type="line"/>
      <point x="273" y="512" type="line"/>
      <point x="71" y="512" type="line"/>
    </contour>
  </outline>
</glyph>
<glyph name="ka-cy" format="2">
  <advance width="711"/>
  <unicode hex="043A"/>
  <anchor x="502" y="0" name="bottomright"/>
  <anchor x="346" y="258" name="center"/>
  <anchor x="373" y="484" name="top"/>
  <outline>
    <contour>
      <point x="71" y="0" type="line"/>
      <point x="296" y="0" type="line"/>
      <point x="296" y="178" type="line"/>
      <point x="337" y="178" type="line" smooth="yes"/>
      <point x="363" y="178"/>
      <point x="379" y="168"/>
      <point x="393" y="143" type="curve" smooth="yes"/>
      <point x="472" y="0" type="line"/>
      <point x="711" y="0" type="line"/>
      <point x="592" y="216" type="line" smooth="yes"/>
      <point x="569" y="258"/>
      <point x="536" y="276"/>
      <point x="490" y="281" type="curve"/>
      <point x="503" y="241" type="line"/>
      <point x="693" y="512" type="line"/>
      <point x="456" y="512" type="line"/>
      <point x="335" y="329" type="line"/>
      <point x="296" y="329" type="line"/>
      <point x="296" y="512" type="line"/>
      <point x="71" y="512" type="line"/>
    </contour>
  </outline>
</glyph>
<glyph name="el-cy" format="2">
  <advance width="713"/>
  <unicode hex="043B"/>
  <anchor x="427" y="0" name="bottomright"/>
  <outline>
    <contour>
      <point x="74" y="-19" type="line"/>
      <point x="249" y="-8"/>
      <point x="332" y="112"/>
      <point x="332" y="296" type="curve" smooth="yes"/>
      <point x="332" y="348" type="line"/>
      <point x="417" y="348" type="line"/>
      <point x="417" y="0" type="line"/>
      <point x="642" y="0" type="line"/>
      <point x="642" y="512" type="line"/>
      <point x="128" y="512" type="line"/>
      <point x="128" y="304" type="line" smooth="yes"/>
      <point x="128" y="212"/>
      <point x="94" y="160"/>
      <point x="13" y="152" type="curve"/>
    </contour>
  </outline>
</glyph>
<glyph name="en-cy" format="2">
  <advance width="752"/>
  <unicode hex="043D"/>
  <anchor x="466" y="0" name="bottomright"/>
  <outline>
    <contour>
      <point x="71" y="0" type="line"/>
      <point x="296" y="0" type="line"/>
      <point x="296" y="175" type="line"/>
      <point x="456" y="175" type="line"/>
      <point x="456" y="0" type="line"/>
      <point x="681" y="0" type="line"/>
      <point x="681" y="512" type="line"/>
      <point x="456" y="512" type="line"/>
      <point x="456" y="339" type="line"/>
      <point x="296" y="339" type="line"/>
      <point x="296" y="512" type="line"/>
      <point x="71" y="512" type="line"/>
    </contour>
  </outline>
</glyph>
<glyph name="che-cy" format="2">
  <advance width="722"/>
  <unicode hex="0447"/>
  <anchor x="426" y="0" name="bottomright"/>
  <anchor x="353" y="208" name="center"/>
  <anchor x="358" y="484" name="top"/>
  <outline>
    <contour>
      <point x="426" y="0" type="line"/>
      <point x="651" y="0" type="line"/>
      <point x="651" y="512" type="line"/>
      <point x="426" y="512" type="line"/>
      <point x="426" y="310" type="line"/>
      <point x="416" y="306"/>
      <point x="389" y="304"/>
      <point x="372" y="304" type="curve" smooth="yes"/>
      <point x="304" y="304"/>
      <point x="289" y="336"/>
      <point x="289" y="395" type="curve" smooth="yes"/>
      <point x="289" y="512" type="line"/>
      <point x="64" y="512" type="line"/>
      <point x="64" y="374" type="line" smooth="yes"/>
      <point x="64" y="215"/>
      <point x="152" y="133"/>
      <point x="324" y="133" type="curve" smooth="yes"/>
      <point x="349" y="133"/>
      <point x="390" y="136"/>
      <point x="426" y="145" type="curve"/>
    </contour>
  </outline>
</glyph>
<glyph name="sha-cy" format="2">
  <advance width="1001"/>
  <unicode hex="0448"/>
  <outline>
    <contour>
      <point x="71" y="0" type="line"/>
      <point x="930" y="0" type="line"/>
      <point x="930" y="512" type="line"/>
      <point x="721" y="512" type="line"/>
      <point x="721" y="164" type="line"/>
      <point x="605" y="164" type="line"/>
      <point x="605" y="512" type="line"/>
      <point x="396" y="512" type="line"/>
      <point x="396" y="164" type="line"/>
      <point x="280" y="164" type="line"/>
      <point x="280" y="512" type="line"/>
      <point x="71" y="512" type="line"/>
    </contour>
  </outline>
</glyph>
<glyph name="shcha-cy" format="2">
  <advance width="1037"/>
  <unicode hex="0449"/>
  <outline>
    <contour>
      <point x="830" y="-135" type="line"/>
      <point x="1015" y="-135" type="line"/>
      <point x="1015" y="158" type="line"/>
      <point x="930" y="158" type="line"/>
      <point x="930" y="512" type="line"/>
      <point x="721" y="512" type="line"/>
      <point x="721" y="164" type="line"/>
      <point x="605" y="164" type="line"/>
      <point x="605" y="512" type="line"/>
      <point x="396" y="512" type="line"/>
      <point x="396" y="164" type="line"/>
      <point x="280" y="164" type="line"/>
      <point x="280" y="512" type="line"/>
      <point x="71" y="512" type="line"/>
      <point x="71" y="0" type="line"/>
      <point x="830" y="0" type="line"/>
    </contour>
  </outline>
</glyph>
<glyph name="hardsign-cy" format="2">
  <advance width="815"/>
  <unicode hex="044A"/>
  <outline>
    <contour>
      <point x="186" y="0" type="line"/>
      <point x="536" y="0" type="line" smooth="yes"/>
      <point x="671" y="0"/>
      <point x="767" y="79"/>
      <point x="767" y="189" type="curve" smooth="yes"/>
      <point x="767" y="309"/>
      <point x="689" y="368"/>
      <point x="536" y="368" type="curve" smooth="yes"/>
      <point x="411" y="368" type="line"/>
      <point x="411" y="512" type="line"/>
      <point x="22" y="512" type="line"/>
      <point x="22" y="348" type="line"/>
      <point x="186" y="348" type="line"/>
    </contour>
    <contour>
      <point x="401" y="134" type="line"/>
      <point x="401" y="234" type="line"/>
      <point x="493" y="234" type="line" smooth="yes"/>
      <point x="535" y="234"/>
      <point x="564" y="223"/>
      <point x="564" y="186" type="curve" smooth="yes"/>
      <point x="564" y="152"/>
      <point x="536" y="134"/>
      <point x="493" y="134" type="curve" smooth="yes"/>
    </contour>
  </outline>
</glyph>
<glyph name="yeru-cy" format="2">
  <advance width="1003"/>
  <unicode hex="044B"/>
  <anchor x="508" y="484" name="top"/>
  <outline>
    <contour>
      <point x="71" y="0" type="line"/>
      <point x="411" y="0" type="line" smooth="yes"/>
      <point x="546" y="0"/>
      <point x="632" y="79"/>
      <point x="632" y="189" type="curve" smooth="yes"/>
      <point x="632" y="309"/>
      <point x="564" y="368"/>
      <point x="411" y="368" type="curve" smooth="yes"/>
      <point x="296" y="368" type="line"/>
      <point x="296" y="512" type="line"/>
      <point x="71" y="512" type="line"/>
    </contour>
    <contour>
      <point x="286" y="134" type="line"/>
      <point x="286" y="234" type="line"/>
      <point x="368" y="234" type="line" smooth="yes"/>
      <point x="410" y="234"/>
      <point x="439" y="223"/>
      <point x="439" y="186" type="curve" smooth="yes"/>
      <point x="439" y="152"/>
      <point x="411" y="134"/>
      <point x="368" y="134" type="curve" smooth="yes"/>
    </contour>
    <contour>
      <point x="707" y="0" type="line"/>
      <point x="932" y="0" type="line"/>
      <point x="932" y="512" type="line"/>
      <point x="707" y="512" type="line"/>
    </contour>
  </outline>
</glyph>
<glyph name="softsign-cy" format="2">
  <advance width="700"/>
  <unicode hex="044C"/>
  <outline>
    <contour>
      <point x="71" y="0" type="line"/>
      <point x="421" y="0" type="line" smooth="yes"/>
      <point x="556" y="0"/>
      <point x="652" y="79"/>
      <point x="652" y="189" type="curve" smooth="yes"/>
      <point x="652" y="309"/>
      <point x="574" y="368"/>
      <point x="421" y="368" type="curve" smooth="yes"/>
      <point x="296" y="368" type="line"/>
      <point x="296" y="512" type="line"/>
      <point x="71" y="512" type="line"/>
    </contour>
    <contour>
      <point x="286" y="134" type="line"/>
      <point x="286" y="234" type="line"/>
      <point x="378" y="234" type="line" smooth="yes"/>
      <point x="420" y="234"/>
      <point x="449" y="223"/>
      <point x="449" y="186" type="curve" smooth="yes"/>
      <point x="449" y="152"/>
      <point x="421" y="134"/>
      <point x="378" y="134" type="curve" smooth="yes"/>
    </contour>
  </outline>
</glyph>
<glyph name="ia-cy" format="2">
  <advance width="692"/>
  <unicode hex="044F"/>
  <outline>
    <contour>
      <point x="26" y="0" type="line"/>
      <point x="271" y="0" type="line"/>
      <point x="338" y="111" type="line" smooth="yes"/>
      <point x="350" y="131"/>
      <point x="370" y="144"/>
      <point x="385" y="144" type="curve" smooth="yes"/>
      <point x="405" y="144" type="line"/>
      <point x="405" y="0" type="line"/>
      <point x="621" y="0" type="line"/>
      <point x="621" y="512" type="line"/>
      <point x="288" y="512" type="line" smooth="yes"/>
      <point x="137" y="512"/>
      <point x="53" y="450"/>
      <point x="53" y="342" type="curve" smooth="yes"/>
      <point x="53" y="245"/>
      <point x="134" y="205"/>
      <point x="190" y="197" type="curve"/>
      <point x="190" y="189" type="line"/>
      <point x="188" y="189" type="line" smooth="yes"/>
      <point x="160" y="189"/>
      <point x="130" y="170"/>
      <point x="101" y="123" type="curve" smooth="yes"/>
    </contour>
    <contour>
      <point x="327" y="276" type="line" smooth="yes"/>
      <point x="282" y="276"/>
      <point x="257" y="295"/>
      <point x="257" y="327" type="curve" smooth="yes"/>
      <point x="257" y="359"/>
      <point x="283" y="378"/>
      <point x="327" y="378" type="curve" smooth="yes"/>
      <point x="407" y="378" type="line"/>
      <point x="407" y="276" type="line"/>
    </contour>
  </outline>
</glyph>
<glyph name="e-cy" format="2">
  <advance width="632"/>
  <unicode hex="0454"/>
  <outline>
    <contour>
      <point x="378" y="-12" type="curve" smooth="yes"/>
      <point x="472" y="-12"/>
      <point x="547" y="3"/>
      <point x="604" y="29" type="curve"/>
      <point x="555" y="165" type="line"/>
      <point x="520" y="146"/>
      <point x="465" y="134"/>
      <point x="410" y="134" type="curve" smooth="yes"/>
      <point x="321" y="134"/>
      <point x="249" y="148"/>
      <point x="249" y="217" type="curve"/>
      <point x="243" y="193" type="line"/>
      <point x="483" y="193" type="line"/>
      <point x="483" y="320" type="line"/>
      <point x="243" y="320" type="line"/>
      <point x="249" y="302" type="line"/>
      <point x="250" y="362"/>
      <point x="326" y="379"/>
      <point x="410" y="379" type="curve" smooth="yes"/>
      <point x="465" y="379"/>
      <point x="520" y="367"/>
      <point x="555" y="348" type="curve"/>
      <point x="604" y="483" type="line"/>
      <point x="547" y="509"/>
      <point x="472" y="524"/>
      <point x="388" y="524" type="curve" smooth="yes"/>
      <point x="180" y="524"/>
      <point x="51" y="422"/>
      <point x="51" y="256" type="curve" smooth="yes"/>
      <point x="51" y="89"/>
      <point x="181" y="-12"/>
    </contour>
  </outline>
</glyph>
<glyph name="dzhe-cy" format="2">
  <advance width="719"/>
  <unicode hex="045F"/>
  <outline>
    <contour>
      <point x="267" y="-135" type="line"/>
      <point x="452" y="-135" type="line"/>
      <point x="452" y="0" type="line"/>
      <point x="648" y="0" type="line"/>
      <point x="648" y="512" type="line"/>
      <point x="423" y="512" type="line"/>
      <point x="423" y="164" type="line"/>
      <point x="296" y="164" type="line"/>
      <point x="296" y="512" type="line"/>
      <point x="71" y="512" type="line"/>
      <point x="71" y="0" type="line"/>
      <point x="267" y="0" type="line"/>
    </contour>
  </outline>
</glyph>
<glyph name="Yat-cy" format="2">
  <advance width="848"/>
  <unicode hex="0462"/>
  <outline>
    <contour>
      <point x="150" y="0" type="line"/>
      <point x="544" y="0" type="line" smooth="yes"/>
      <point x="699" y="0"/>
      <point x="806" y="70"/>
      <point x="806" y="211" type="curve" smooth="yes"/>
      <point x="806" y="352"/>
      <point x="699" y="418"/>
      <point x="544" y="418" type="curve" smooth="yes"/>
      <point x="375" y="418" type="line"/>
      <point x="375" y="487" type="line"/>
      <point x="608" y="487" type="line"/>
      <point x="608" y="635" type="line"/>
      <point x="375" y="635" type="line"/>
      <point x="375" y="705" type="line"/>
      <point x="150" y="705" type="line"/>
      <point x="150" y="635" type="line"/>
      <point x="-20" y="635" type="line"/>
      <point x="-20" y="487" type="line"/>
      <point x="150" y="487" type="line"/>
    </contour>
    <contour>
      <point x="375" y="154" type="line"/>
      <point x="375" y="264" type="line"/>
      <point x="514" y="264" type="line" smooth="yes"/>
      <point x="570" y="264"/>
      <point x="593" y="251"/>
      <point x="593" y="209" type="curve" smooth="yes"/>
      <point x="593" y="167"/>
      <point x="570" y="154"/>
      <point x="514" y="154" type="curve" smooth="yes"/>
    </contour>
  </outline>
</glyph>
<glyph name="Izhitsa-cy" format="2">
  <advance width="850"/>
  <unicode hex="0474"/>
  <outline>
    <contour>
      <point x="293" y="0" type="line"/>
      <point x="482" y="0" type="line"/>
      <point x="649" y="395" type="line" smooth="yes"/>
      <point x="698" y="511"/>
      <point x="733" y="532"/>
      <point x="837" y="532" type="curve"/>
      <point x="819" y="716" type="line"/>
      <point x="648" y="717"/>
      <point x="529" y="673"/>
      <point x="466" y="493" type="curve" smooth="yes"/>
      <point x="392" y="283" type="line"/>
      <point x="384" y="283" type="line"/>
      <point x="222" y="705" type="line"/>
      <point x="-22" y="705" type="line"/>
    </contour>
  </outline>
</glyph>
<glyph name="izhitsa-cy" format="2">
  <advance width="653"/>
  <unicode hex="0475"/>
  <outline>
    <contour>
      <point x="186" y="0" type="line"/>
      <point x="414" y="0" type="line"/>
      <point x="533" y="268" type="line" smooth="yes"/>
      <point x="556" y="319"/>
      <point x="578" y="341"/>
      <point x="640" y="339" type="curve"/>
      <point x="615" y="524" type="line"/>
      <point x="413" y="524"/>
      <point x="382" y="434"/>
      <point x="350" y="341" type="curve" smooth="yes"/>
      <point x="309" y="221" type="line"/>
      <point x="301" y="221" type="line"/>
      <point x="218" y="512" type="line"/>
      <point x="-19" y="512" type="line"/>
    </contour>
  </outline>
</glyph>
<glyph name="Semisoftsign-cy" format="2">
  <advance width="859"/>
  <unicode hex="048C"/>
  <outline>
    <contour>
      <point x="161" y="0" type="line"/>
      <point x="555" y="0" type="line" smooth="yes"/>
      <point x="710" y="0"/>
      <point x="817" y="70"/>
      <point x="817" y="211" type="curve" smooth="yes"/>
      <point x="817" y="352"/>
      <point x="710" y="418"/>
      <point x="555" y="418" type="curve" smooth="yes"/>
      <point x="386" y="418" type="line"/>
      <point x="386" y="487" type="line"/>
      <point x="547" y="487" type="line"/>
      <point x="547" y="635" type="line"/>
      <point x="386" y="635" type="line"/>
      <point x="386" y="705" type="line"/>
      <point x="161" y="705" type="line"/>
      <point x="161" y="635" type="line"/>
      <point x="22" y="635" type="line"/>
      <point x="22" y="487" type="line"/>
      <point x="161" y="487" type="line"/>
    </contour>
    <contour>
      <point x="386" y="154" type="line"/>
      <point x="386" y="264" type="line"/>
      <point x="525" y="264" type="line" smooth="yes"/>
      <point x="581" y="264"/>
      <point x="604" y="251"/>
      <point x="604" y="209" type="curve" smooth="yes"/>
      <point x="604" y="167"/>
      <point x="581" y="154"/>
      <point x="525" y="154" type="curve" smooth="yes"/>
    </contour>
  </outline>
</glyph>
<glyph name="Ertick-cy" format="2">
  <advance width="763"/>
  <unicode hex="048E"/>
  <outline>
    <contour>
      <point x="80" y="0" type="line"/>
      <point x="305" y="0" type="line"/>
      <point x="305" y="221" type="line"/>
      <point x="460" y="221" type="line" smooth="yes"/>
      <point x="474" y="221"/>
      <point x="488" y="222"/>
      <point x="501" y="223" type="curve"/>
      <point x="465" y="244" type="line"/>
      <point x="524" y="145" type="line"/>
      <point x="609" y="194" type="line"/>
      <point x="565" y="265" type="line"/>
      <point x="562" y="237" type="line"/>
      <point x="660" y="272"/>
      <point x="721" y="357"/>
      <point x="721" y="467" type="curve" smooth="yes"/>
      <point x="721" y="613"/>
      <point x="618" y="705"/>
      <point x="460" y="705" type="curve" smooth="yes"/>
      <point x="80" y="705" type="line"/>
    </contour>
    <contour>
      <point x="305" y="391" type="line"/>
      <point x="305" y="535" type="line"/>
      <point x="419" y="535" type="line" smooth="yes"/>
      <point x="474" y="535"/>
      <point x="500" y="509"/>
      <point x="500" y="462" type="curve" smooth="yes"/>
      <point x="500" y="432"/>
      <point x="490" y="412"/>
      <point x="469" y="401" type="curve"/>
      <point x="485" y="395" type="line"/>
      <point x="427" y="489" type="line"/>
      <point x="346" y="442" type="line"/>
      <point x="406" y="342" type="line"/>
      <point x="433" y="392" type="line"/>
      <point x="429" y="391"/>
      <point x="424" y="391"/>
      <point x="419" y="391" type="curve" smooth="yes"/>
    </contour>
  </outline>
</glyph>
<glyph name="gheupturn-cy" format="2">
  <advance width="559"/>
  <unicode hex="0491"/>
  <outline>
    <contour>
      <point x="71" y="0" type="line"/>
      <point x="296" y="0" type="line"/>
      <point x="296" y="348" type="line"/>
      <point x="536" y="348" type="line"/>
      <point x="536" y="620" type="line"/>
      <point x="351" y="620" type="line"/>
      <point x="351" y="512" type="line"/>
      <point x="71" y="512" type="line"/>
    </contour>
  </outline>
</glyph>
<glyph name="ghestroke-cy" format="2">
  <advance width="573"/>
  <unicode hex="0493"/>
  <outline>
    <contour>
      <point x="84" y="0" type="line"/>
      <point x="309" y="0" type="line"/>
      <point x="309" y="136" type="line"/>
      <point x="442" y="136" type="line"/>
      <point x="442" y="276" type="line"/>
      <point x="299" y="276" type="line"/>
      <point x="299" y="348" type="line"/>
      <point x="550" y="348" type="line"/>
      <point x="550" y="512" type="line"/>
      <point x="84" y="512" type="line"/>
      <point x="84" y="276" type="line"/>
      <point x="4" y="276" type="line"/>
      <point x="4" y="136" type="line"/>
      <point x="84" y="136" type="line"/>
    </contour>
  </outline>
</glyph>
<glyph name="Ghemiddlehook-cy" format="2">
  <advance width="832"/>
  <unicode hex="0494"/>
  <outline>
    <contour>
      <point x="501" y="-192" type="curve" smooth="yes"/>
      <point x="657" y="-192"/>
      <point x="769" y="-94"/>
      <point x="769" y="77" type="curve" smooth="yes"/>
      <point x="769" y="128" type="line" smooth="yes"/>
      <point x="769" y="338"/>
      <point x="646" y="437"/>
      <point x="441" y="437" type="curve" smooth="yes"/>
      <point x="398" y="437"/>
      <point x="330" y="429"/>
      <point x="305" y="421" type="curve"/>
      <point x="305" y="519" type="line"/>
      <point x="655" y="519" type="line"/>
      <point x="655" y="705" type="line"/>
      <point x="80" y="705" type="line"/>
      <point x="80" y="0" type="line"/>
      <point x="305" y="0" type="line"/>
      <point x="305" y="244" type="line"/>
      <point x="331" y="253"/>
      <point x="386" y="258"/>
      <point x="413" y="258" type="curve" smooth="yes"/>
      <point x="495" y="258"/>
      <point x="554" y="221"/>
      <point x="554" y="122" type="curve" smooth="yes"/>
      <point x="554" y="77" type="line" smooth="yes"/>
      <point x="554" y="20"/>
      <point x="521" y="-17"/>
      <point x="473" y="-17" type="curve" smooth="yes"/>
      <point x="447" y="-17"/>
      <point x="420" y="-13"/>
      <point x="397" y="-8" type="curve"/>
      <point x="366" y="-171" type="line"/>
      <point x="403" y="-184"/>
      <point x="450" y="-192"/>
    </contour>
  </outline>
</glyph>
<glyph name="zedescender-cy" format="2">
  <advance width="649"/>
  <unicode hex="0499"/>
  <outline>
    <contour>
      <point x="249" y="-124" type="line"/>
      <point x="407" y="-124" type="line"/>
      <point x="407" y="-4" type="line"/>
      <point x="527" y="15"/>
      <point x="595" y="69"/>
      <point x="595" y="147" type="curve" smooth="yes"/>
      <point x="595" y="210"/>
      <point x="564" y="248"/>
      <point x="502" y="266" type="curve"/>
      <point x="502" y="274" type="line"/>
      <point x="547" y="295"/>
      <point x="573" y="331"/>
      <point x="573" y="378" type="curve" smooth="yes"/>
      <point x="573" y="470"/>
      <point x="479" y="524"/>
      <point x="313" y="524" type="curve" smooth="yes"/>
      <point x="190" y="524"/>
      <point x="97" y="505"/>
      <point x="38" y="476" type="curve"/>
      <point x="81" y="348" type="line"/>
      <point x="131" y="367"/>
      <point x="208" y="382"/>
      <point x="291" y="382" type="curve" smooth="yes"/>
      <point x="349" y="382"/>
      <point x="368" y="371"/>
      <point x="368" y="351" type="curve" smooth="yes"/>
      <point x="368" y="332"/>
      <point x="357" y="322"/>
      <point x="335" y="322" type="curve" smooth="yes"/>
      <point x="168" y="322" type="line"/>
      <point x="168" y="195" type="line"/>
      <point x="344" y="195" type="line" smooth="yes"/>
      <point x="374" y="195"/>
      <point x="390" y="189"/>
      <point x="390" y="167" type="curve" smooth="yes"/>
      <point x="390" y="140"/>
      <point x="352" y="130"/>
      <point x="289" y="130" type="curve" smooth="yes"/>
      <point x="206" y="130"/>
      <point x="131" y="145"/>
      <point x="81" y="164" type="curve"/>
      <point x="38" y="36" type="line"/>
      <point x="89" y="11"/>
      <point x="154" y="-6"/>
      <point x="249" y="-11" type="curve"/>
    </contour>
  </outline>
</glyph>
<glyph name="Kastroke-cy" format="2">
  <advance width="890"/>
  <unicode hex="049E"/>
  <outline>
    <contour>
      <point x="150" y="0" type="line"/>
      <point x="375" y="0" type="line"/>
      <point x="375" y="259" type="line"/>
      <point x="425" y="259" type="line" smooth="yes"/>
      <point x="480" y="259"/>
      <point x="510" y="241"/>
      <point x="531" y="195" type="curve" smooth="yes"/>
      <point x="619" y="0" type="line"/>
      <point x="871" y="0" type="line"/>
      <point x="744" y="262" type="line" smooth="yes"/>
      <point x="698" y="356"/>
      <point x="635" y="379"/>
      <point x="598" y="396" type="curve"/>
      <point x="664" y="349" type="line"/>
      <point x="867" y="705" type="line"/>
      <point x="614" y="705" type="line"/>
      <point x="454" y="394" type="line"/>
      <point x="484" y="420" type="line"/>
      <point x="365" y="420" type="line"/>
      <point x="365" y="487" type="line"/>
      <point x="465" y="487" type="line"/>
      <point x="465" y="635" type="line"/>
      <point x="375" y="635" type="line"/>
      <point x="375" y="705" type="line"/>
      <point x="150" y="705" type="line"/>
      <point x="150" y="635" type="line"/>
      <point x="10" y="635" type="line"/>
      <point x="10" y="487" type="line"/>
      <point x="150" y="487" type="line"/>
    </contour>
  </outline>
</glyph>
<glyph name="kastroke-cy" format="2">
  <advance width="724"/>
  <unicode hex="049F"/>
  <outline>
    <contour>
      <point x="84" y="0" type="line"/>
      <point x="309" y="0" type="line"/>
      <point x="309" y="178" type="line"/>
      <point x="350" y="178" type="line" smooth="yes"/>
      <point x="376" y="178"/>
      <point x="392" y="168"/>
      <point x="406" y="143" type="curve" smooth="yes"/>
      <point x="485" y="0" type="line"/>
      <point x="724" y="0" type="line"/>
      <point x="605" y="216" type="line" smooth="yes"/>
      <point x="582" y="258"/>
      <point x="549" y="276"/>
      <point x="503" y="281" type="curve"/>
      <point x="516" y="241" type="line"/>
      <point x="694" y="494" type="line"/>
      <point x="457" y="494" type="line"/>
      <point x="348" y="329" type="line"/>
      <point x="309" y="329" type="line"/>
      <point x="309" y="532" type="line"/>
      <point x="472" y="532" type="line"/>
      <point x="472" y="657" type="line"/>
      <point x="309" y="657" type="line"/>
      <point x="309" y="705" type="line"/>
      <point x="84" y="705" type="line"/>
      <point x="84" y="662" type="line"/>
      <point x="20" y="662" type="line"/>
      <point x="20" y="532" type="line"/>
      <point x="84" y="532" type="line"/>
    </contour>
  </outline>
</glyph>
<glyph name="kabashkir-cy" format="2">
  <advance width="826"/>
  <unicode hex="04A1"/>
  <outline>
    <contour>
      <point x="186" y="0" type="line"/>
      <point x="411" y="0" type="line"/>
      <point x="411" y="178" type="line"/>
      <point x="452" y="178" type="line" smooth="yes"/>
      <point x="478" y="178"/>
      <point x="494" y="168"/>
      <point x="508" y="143" type="curve" smooth="yes"/>
      <point x="587" y="0" type="line"/>
      <point x="826" y="0" type="line"/>
      <point x="707" y="216" type="line" smooth="yes"/>
      <point x="684" y="258"/>
      <point x="651" y="276"/>
      <point x="605" y="281" type="curve"/>
      <point x="618" y="241" type="line"/>
      <point x="808" y="512" type="line"/>
      <point x="571" y="512" type="line"/>
      <point x="450" y="329" type="line"/>
      <point x="411" y="329" type="line"/>
      <point x="411" y="512" type="line"/>
      <point x="22" y="512" type="line"/>
      <point x="22" y="348" type="line"/>
      <point x="186" y="348" type="line"/>
    </contour>
  </outline>
</glyph>
<glyph name="tedescender-cy" format="2">
  <advance width="601"/>
  <unicode hex="04AD"/>
  <outline>
    <contour>
      <point x="296" y="-128" type="line"/>
      <point x="481" y="-128" type="line"/>
      <point x="481" y="152" type="line"/>
      <point x="413" y="152" type="line"/>
      <point x="413" y="348" type="line"/>
      <point x="579" y="348" type="line"/>
      <point x="579" y="512" type="line"/>
      <point x="22" y="512" type="line"/>
      <point x="22" y="348" type="line"/>
      <point x="188" y="348" type="line"/>
      <point x="188" y="0" type="line"/>
      <point x="296" y="0" type="line"/>
    </contour>
  </outline>
</glyph>
<glyph name="ustraight-cy" format="2">
  <advance width="580"/>
  <unicode hex="04AF"/>
  <anchor x="292" y="0" name="center"/>
  <outline>
    <contour>
      <point x="176" y="-180" type="line"/>
      <point x="404" y="-180" type="line"/>
      <point x="404" y="0" type="line"/>
      <point x="611" y="512" type="line"/>
      <point x="381" y="512" type="line"/>
      <point x="299" y="221" type="line"/>
      <point x="291" y="221" type="line"/>
      <point x="208" y="512" type="line"/>
      <point x="-29" y="512" type="line"/>
      <point x="176" y="0" type="line"/>
    </contour>
  </outline>
</glyph>
<glyph name="ustraightstroke-cy" format="2">
  <advance width="580"/>
  <unicode hex="04B1"/>
  <outline>
    <contour>
      <point x="176" y="-180" type="line"/>
      <point x="404" y="-180" type="line"/>
      <point x="404" y="-67" type="line"/>
      <point x="549" y="-67" type="line"/>
      <point x="549" y="73" type="line"/>
      <point x="389" y="73" type="line"/>
      <point x="407" y="41" type="line"/>
      <point x="611" y="512" type="line"/>
      <point x="381" y="512" type="line"/>
      <point x="299" y="221" type="line"/>
      <point x="291" y="221" type="line"/>
      <point x="208" y="512" type="line"/>
      <point x="-29" y="512" type="line"/>
      <point x="174" y="41" type="line"/>
      <point x="192" y="73" type="line"/>
      <point x="34" y="73" type="line"/>
      <point x="34" y="-67" type="line"/>
      <point x="176" y="-67" type="line"/>
    </contour>
  </outline>
</glyph>
<glyph name="tetse-cy" format="2">
  <advance width="898"/>
  <unicode hex="04B5"/>
  <outline>
    <contour>
      <point x="691" y="-135" type="line"/>
      <point x="876" y="-135" type="line"/>
      <point x="876" y="164" type="line"/>
      <point x="791" y="164" type="line"/>
      <point x="791" y="512" type="line"/>
      <point x="566" y="512" type="line"/>
      <point x="566" y="164" type="line"/>
      <point x="391" y="164" type="line"/>
      <point x="391" y="348" type="line"/>
      <point x="487" y="348" type="line"/>
      <point x="487" y="512" type="line"/>
      <point x="22" y="512" type="line"/>
      <point x="22" y="348" type="line"/>
      <point x="166" y="348" type="line"/>
      <point x="166" y="0" type="line"/>
      <point x="691" y="0" type="line"/>
    </contour>
  </outline>
</glyph>
<glyph name="Chedescender-cy" format="2">
  <advance width="874"/>
  <unicode hex="04B6"/>
  <outline>
    <contour>
      <point x="619" y="-179" type="line"/>
      <point x="825" y="-179" type="line"/>
      <point x="825" y="167" type="line"/>
      <point x="728" y="167" type="line"/>
      <point x="728" y="705" type="line"/>
      <point x="503" y="705" type="line"/>
      <point x="503" y="418" type="line"/>
      <point x="477" y="409"/>
      <point x="442" y="404"/>
      <point x="415" y="404" type="curve" smooth="yes"/>
      <point x="337" y="404"/>
      <point x="288" y="441"/>
      <point x="288" y="540" type="curve" smooth="yes"/>
      <point x="288" y="705" type="line"/>
      <point x="63" y="705" type="line"/>
      <point x="63" y="525" type="line" smooth="yes"/>
      <point x="63" y="315"/>
      <point x="184" y="216"/>
      <point x="377" y="216" type="curve" smooth="yes"/>
      <point x="430" y="216"/>
      <point x="477" y="224"/>
      <point x="503" y="232" type="curve"/>
      <point x="503" y="0" type="line"/>
      <point x="619" y="0" type="line"/>
    </contour>
  </outline>
</glyph>
<glyph name="cheverticalstroke-cy" format="2">
  <advance width="794"/>
  <unicode hex="04B9"/>
  <outline>
    <contour>
      <point x="498" y="0" type="line"/>
      <point x="723" y="0" type="line"/>
      <point x="723" y="512" type="line"/>
      <point x="508" y="512" type="line"/>
      <point x="508" y="305" type="line"/>
      <point x="486" y="300"/>
      <point x="458" y="298"/>
      <point x="426" y="298" type="curve"/>
      <point x="448" y="281" type="line"/>
      <point x="448" y="426" type="line"/>
      <point x="343" y="426" type="line"/>
      <point x="343" y="281" type="line"/>
      <point x="387" y="297" type="line"/>
      <point x="332" y="294"/>
      <point x="279" y="315"/>
      <point x="279" y="390" type="curve" smooth="yes"/>
      <point x="279" y="512" type="line"/>
      <point x="64" y="512" type="line"/>
      <point x="64" y="374" type="line" smooth="yes"/>
      <point x="64" y="221"/>
      <point x="166" y="138"/>
      <point x="369" y="138" type="curve"/>
      <point x="333" y="171" type="line"/>
      <point x="333" y="53" type="line"/>
      <point x="457" y="53" type="line"/>
      <point x="457" y="171" type="line"/>
      <point x="419" y="135" type="line"/>
      <point x="441" y="136"/>
      <point x="476" y="139"/>
      <point x="498" y="146" type="curve"/>
    </contour>
  </outline>
</glyph>
<glyph name="Shha-cy" format="2">
  <advance width="798"/>
  <unicode hex="04BA"/>
  <anchor x="510" y="0" name="bottomright"/>
  <outline>
    <contour>
      <point x="80" y="0" type="line"/>
      <point x="305" y="0" type="line"/>
      <point x="305" y="286" type="line"/>
      <point x="331" y="295"/>
      <point x="366" y="300"/>
      <point x="393" y="300" type="curve" smooth="yes"/>
      <point x="471" y="300"/>
      <point x="510" y="263"/>
      <point x="510" y="164" type="curve" smooth="yes"/>
      <point x="510" y="0" type="line"/>
      <point x="735" y="0" type="line"/>
      <point x="735" y="180" type="line" smooth="yes"/>
      <point x="735" y="390"/>
      <point x="614" y="489"/>
      <point x="421" y="489" type="curve" smooth="yes"/>
      <point x="378" y="489"/>
      <point x="331" y="481"/>
      <point x="305" y="473" type="curve"/>
      <point x="305" y="705" type="line"/>
      <point x="80" y="705" type="line"/>
    </contour>
  </outline>
</glyph>
<glyph name="Cheabkhasian-cy" format="2">
  <advance width="1101"/>
  <unicode hex="04BC"/>
  <anchor x="784" y="0" name="ogonek"/>
  <outline>
    <contour>
      <point x="722" y="-12" type="curve" smooth="yes"/>
      <point x="828" y="-12"/>
      <point x="937" y="9"/>
      <point x="1002" y="51" type="curve"/>
      <point x="937" y="224" type="line"/>
      <point x="882" y="189"/>
      <point x="803" y="172"/>
      <point x="731" y="172" type="curve" smooth="yes"/>
      <point x="613" y="172"/>
      <point x="544" y="210"/>
      <point x="523" y="292" type="curve"/>
      <point x="505" y="273" type="line"/>
      <point x="1041" y="273" type="line"/>
      <point x="1041" y="335" type="line" smooth="yes"/>
      <point x="1041" y="559"/>
      <point x="898" y="717"/>
      <point x="673" y="717" type="curve" smooth="yes"/>
      <point x="462" y="717"/>
      <point x="313" y="587"/>
      <point x="291" y="403" type="curve"/>
      <point x="312" y="424" type="line"/>
      <point x="285" y="424" type="line" smooth="yes"/>
      <point x="251" y="424"/>
      <point x="239" y="440"/>
      <point x="239" y="485" type="curve" smooth="yes"/>
      <point x="239" y="554" type="line"/>
      <point x="23" y="554" type="line"/>
      <point x="23" y="494" type="line" smooth="yes"/>
      <point x="23" y="355"/>
      <point x="106" y="273"/>
      <point x="258" y="273" type="curve" smooth="yes"/>
      <point x="321" y="273" type="line"/>
      <point x="293" y="291" type="line"/>
      <point x="322" y="102"/>
      <point x="483" y="-12"/>
    </contour>
    <contour>
      <point x="674" y="537" type="curve" smooth="yes"/>
      <point x="768" y="537"/>
      <point x="828" y="487"/>
      <point x="828" y="352" type="curve"/>
      <point x="874" y="424" type="line"/>
      <point x="496" y="424" type="line"/>
      <point x="518" y="395" type="line"/>
      <point x="531" y="498"/>
      <point x="591" y="537"/>
    </contour>
  </outline>
</glyph>
<glyph name="Dzeabkhasian-cy" format="2">
  <advance width="674"/>
  <unicode hex="04E0"/>
  <outline>
    <contour>
      <point x="299" y="-12" type="curve" smooth="yes"/>
      <point x="503" y="-12"/>
      <point x="620" y="79"/>
      <point x="620" y="227" type="curve" smooth="yes"/>
      <point x="620" y="345"/>
      <point x="527" y="425"/>
      <point x="375" y="425" type="curve" smooth="yes"/>
      <point x="319" y="425" type="line"/>
      <point x="372" y="386" type="line"/>
      <point x="595" y="558" type="line"/>
      <point x="595" y="705" type="line"/>
      <point x="28" y="705" type="line"/>
      <point x="28" y="519" type="line"/>
      <point x="391" y="519" type="line"/>
      <point x="391" y="573" type="line"/>
      <point x="148" y="401" type="line"/>
      <point x="148" y="276" type="line"/>
      <point x="313" y="276" type="line" smooth="yes"/>
      <point x="389" y="276"/>
      <point x="412" y="261"/>
      <point x="412" y="224" type="curve" smooth="yes"/>
      <point x="412" y="184"/>
      <point x="375" y="169"/>
      <point x="288" y="169" type="curve" smooth="yes"/>
      <point x="210" y="169"/>
      <point x="128" y="188"/>
      <point x="80" y="221" type="curve"/>
      <point x="8" y="51" type="line"/>
      <point x="85" y="4"/>
      <point x="183" y="-12"/>
    </contour>
  </outline>
</glyph>
<glyph name="dzeabkhasian-cy" format="2">
  <advance width="664"/>
  <unicode hex="04E1"/>
  <outline>
    <contour>
      <point x="300" y="-192" type="curve" smooth="yes"/>
      <point x="492" y="-192"/>
      <point x="620" y="-93"/>
      <point x="620" y="56" type="curve" smooth="yes"/>
      <point x="620" y="176"/>
      <point x="524" y="242"/>
      <point x="368" y="242" type="curve" smooth="yes"/>
      <point x="308" y="242" type="line"/>
      <point x="365" y="210" type="line"/>
      <point x="585" y="370" type="line"/>
      <point x="585" y="512" type="line"/>
      <point x="53" y="512" type="line"/>
      <point x="53" y="348" type="line"/>
      <point x="393" y="348" type="line"/>
      <point x="413" y="398" type="line"/>
      <point x="157" y="209" type="line"/>
      <point x="157" y="105" type="line"/>
      <point x="253" y="105" type="line" smooth="yes"/>
      <point x="356" y="105"/>
      <point x="397" y="90"/>
      <point x="397" y="39" type="curve" smooth="yes"/>
      <point x="397" y="-7"/>
      <point x="366" y="-30"/>
      <point x="269" y="-30" type="curve" smooth="yes"/>
      <point x="206" y="-30"/>
      <point x="127" y="-13"/>
      <point x="79" y="16" type="curve"/>
      <point x="20" y="-131" type="line"/>
      <point x="89" y="-172"/>
      <point x="189" y="-192"/>
    </contour>
  </outline>
</glyph>
<glyph name="Gestrokehook-cy" format="2">
  <advance width="654"/>
  <unicode hex="04FA"/>
  <outline>
    <contour>
      <point x="85" y="-189" type="line"/>
      <point x="178" y="-183" type="line" smooth="yes"/>
      <point x="349" y="-172"/>
      <point x="435" y="-100"/>
      <point x="435" y="45" type="curve" smooth="yes"/>
      <point x="435" y="157" type="line"/>
      <point x="335" y="157" type="line"/>
      <point x="335" y="264" type="line"/>
      <point x="505" y="264" type="line"/>
      <point x="505" y="412" type="line"/>
      <point x="335" y="412" type="line"/>
      <point x="335" y="519" type="line"/>
      <point x="635" y="519" type="line"/>
      <point x="635" y="705" type="line"/>
      <point x="110" y="705" type="line"/>
      <point x="110" y="412" type="line"/>
      <point x="20" y="412" type="line"/>
      <point x="20" y="264" type="line"/>
      <point x="110" y="264" type="line"/>
      <point x="110" y="0" type="line"/>
      <point x="229" y="0" type="line"/>
      <point x="229" y="-33"/>
      <point x="218" y="-44"/>
      <point x="160" y="-48" type="curve" smooth="yes"/>
      <point x="71" y="-54" type="line"/>
    </contour>
  </outline>
</glyph>
<glyph name="gestrokehook-cy" format="2">
  <advance width="573"/>
  <unicode hex="04FB"/>
  <outline>
    <contour>
      <point x="63" y="-189" type="line"/>
      <point x="156" y="-183" type="line" smooth="yes"/>
      <point x="282" y="-175"/>
      <point x="369" y="-99"/>
      <point x="369" y="45" type="curve" smooth="yes"/>
      <point x="369" y="57" type="line"/>
      <point x="309" y="57" type="line"/>
      <point x="309" y="136" type="line"/>
      <point x="442" y="136" type="line"/>
      <point x="442" y="276" type="line"/>
      <point x="299" y="276" type="line"/>
      <point x="299" y="348" type="line"/>
      <point x="550" y="348" type="line"/>
      <point x="550" y="512" type="line"/>
      <point x="84" y="512" type="line"/>
      <point x="84" y="276" type="line"/>
      <point x="4" y="276" type="line"/>
      <point x="4" y="136" type="line"/>
      <point x="84" y="136" type="line"/>
      <point x="84" y="0" type="line"/>
      <point x="183" y="0" type="line"/>
      <point x="183" y="-23"/>
      <point x="174" y="-46"/>
      <point x="138" y="-48" type="curve" smooth="yes"/>
      <point x="49" y="-54" type="line"/>
    </contour>
  </outline>
</glyph>
<glyph name="hahook-cy" format="2">
  <advance width="625"/>
  <unicode hex="04FD"/>
  <outline>
    <contour>
      <point x="343" y="-190" type="line"/>
      <point x="532" y="-174"/>
      <point x="602" y="-118"/>
      <point x="602" y="-26" type="curve" smooth="yes"/>
      <point x="602" y="10"/>
      <point x="590" y="39"/>
      <point x="571" y="75" type="curve" smooth="yes"/>
      <point x="436" y="322" type="line"/>
      <point x="426" y="186" type="line"/>
      <point x="615" y="512" type="line"/>
      <point x="385" y="512" type="line"/>
      <point x="316" y="378" type="line"/>
      <point x="308" y="378" type="line"/>
      <point x="239" y="512" type="line"/>
      <point x="9" y="512" type="line"/>
      <point x="197" y="187" type="line"/>
      <point x="187" y="320" type="line"/>
      <point x="9" y="0" type="line"/>
      <point x="239" y="0" type="line"/>
      <point x="308" y="143" type="line"/>
      <point x="316" y="143" type="line"/>
      <point x="373" y="36" type="line" smooth="yes"/>
      <point x="385" y="13"/>
      <point x="389" y="2"/>
      <point x="389" y="-9" type="curve" smooth="yes"/>
      <point x="389" y="-34"/>
      <point x="369" y="-46"/>
      <point x="313" y="-49" type="curve"/>
    </contour>
  </outline>
</glyph>
<glyph name="Reversedze-cy" format="2">
  <advance width="674"/>
  <unicode hex="0510"/>
  <outline>
    <contour>
      <point x="365" y="-12" type="curve" smooth="yes"/>
      <point x="491" y="-12"/>
      <point x="589" y="4"/>
      <point x="666" y="51" type="curve"/>
      <point x="594" y="222" type="line"/>
      <point x="546" y="189"/>
      <point x="464" y="169"/>
      <point x="386" y="169" type="curve" smooth="yes"/>
      <point x="298" y="169"/>
      <point x="262" y="182"/>
      <point x="262" y="227" type="curve" smooth="yes"/>
      <point x="262" y="259"/>
      <point x="285" y="276"/>
      <point x="351" y="276" type="curve" smooth="yes"/>
      <point x="540" y="276" type="line"/>
      <point x="540" y="440" type="line"/>
      <point x="370" y="440" type="line" smooth="yes"/>
      <point x="304" y="440"/>
      <point x="282" y="453"/>
      <point x="282" y="488" type="curve" smooth="yes"/>
      <point x="282" y="518"/>
      <point x="306" y="536"/>
      <point x="383" y="536" type="curve" smooth="yes"/>
      <point x="451" y="536"/>
      <point x="533" y="516"/>
      <point x="581" y="483" type="curve"/>
      <point x="654" y="654" type="line"/>
      <point x="590" y="688"/>
      <point x="498" y="717"/>
      <point x="355" y="717" type="curve" smooth="yes"/>
      <point x="161" y="717"/>
      <point x="73" y="633"/>
      <point x="73" y="523" type="curve" smooth="yes"/>
      <point x="73" y="454"/>
      <point x="107" y="400"/>
      <point x="165" y="371" type="curve"/>
      <point x="165" y="363" type="line"/>
      <point x="91" y="336"/>
      <point x="54" y="282"/>
      <point x="54" y="202" type="curve" smooth="yes"/>
      <point x="54" y="79"/>
      <point x="151" y="-12"/>
    </contour>
  </outline>
</glyph>
<glyph name="reversedze-cy" format="2">
  <advance width="649"/>
  <unicode hex="0511"/>
  <outline>
    <contour>
      <point x="350" y="-12" type="curve" smooth="yes"/>
      <point x="473" y="-12"/>
      <point x="552" y="7"/>
      <point x="611" y="36" type="curve"/>
      <point x="568" y="164" type="line"/>
      <point x="518" y="145"/>
      <point x="443" y="130"/>
      <point x="360" y="130" type="curve" smooth="yes"/>
      <point x="297" y="130"/>
      <point x="259" y="140"/>
      <point x="259" y="167" type="curve" smooth="yes"/>
      <point x="259" y="189"/>
      <point x="275" y="195"/>
      <point x="305" y="195" type="curve" smooth="yes"/>
      <point x="481" y="195" type="line"/>
      <point x="481" y="322" type="line"/>
      <point x="314" y="322" type="line" smooth="yes"/>
      <point x="292" y="322"/>
      <point x="281" y="332"/>
      <point x="281" y="351" type="curve" smooth="yes"/>
      <point x="281" y="371"/>
      <point x="300" y="382"/>
      <point x="358" y="382" type="curve" smooth="yes"/>
      <point x="441" y="382"/>
      <point x="518" y="367"/>
      <point x="568" y="348" type="curve"/>
      <point x="611" y="476" type="line"/>
      <point x="552" y="505"/>
      <point x="459" y="524"/>
      <point x="336" y="524" type="curve" smooth="yes"/>
      <point x="170" y="524"/>
      <point x="76" y="470"/>
      <point x="76" y="378" type="curve" smooth="yes"/>
      <point x="76" y="331"/>
      <point x="102" y="295"/>
      <point x="147" y="274" type="curve"/>
      <point x="147" y="266" type="line"/>
      <point x="85" y="248"/>
      <point x="54" y="210"/>
      <point x="54" y="147" type="curve" smooth="yes"/>
      <point x="54" y="48"/>
      <point x="164" y="-12"/>
    </contour>
  </outline>
</glyph>
<glyph name="Elhook-cy" format="2">
  <advance width="838"/>
  <unicode hex="0512"/>
  <outline>
    <contour>
      <point x="448" y="-193" type="line"/>
      <point x="492" y="-190" type="line" smooth="yes"/>
      <point x="689" y="-177"/>
      <point x="758" y="-120"/>
      <point x="758" y="39" type="curve" smooth="yes"/>
      <point x="758" y="705" type="line"/>
      <point x="168" y="705" type="line"/>
      <point x="168" y="486" type="line" smooth="yes"/>
      <point x="168" y="297"/>
      <point x="128" y="197"/>
      <point x="18" y="131" type="curve"/>
      <point x="140" y="-20" type="line"/>
      <point x="287" y="52"/>
      <point x="378" y="204"/>
      <point x="378" y="430" type="curve" smooth="yes"/>
      <point x="378" y="519" type="line"/>
      <point x="533" y="519" type="line"/>
      <point x="533" y="28" type="line" smooth="yes"/>
      <point x="533" y="-4"/>
      <point x="520" y="-18"/>
      <point x="484" y="-22" type="curve" smooth="yes"/>
      <point x="436" y="-28" type="line"/>
    </contour>
  </outline>
</glyph>
<glyph name="elhook-cy" format="2">
  <advance width="713"/>
  <unicode hex="0513"/>
  <outline>
    <contour>
      <point x="349" y="-193" type="line"/>
      <point x="393" y="-190" type="line" smooth="yes"/>
      <point x="603" y="-176"/>
      <point x="642" y="-101"/>
      <point x="642" y="39" type="curve" smooth="yes"/>
      <point x="642" y="512" type="line"/>
      <point x="128" y="512" type="line"/>
      <point x="128" y="304" type="line" smooth="yes"/>
      <point x="128" y="212"/>
      <point x="94" y="160"/>
      <point x="13" y="152" type="curve"/>
      <point x="74" y="-19" type="line"/>
      <point x="249" y="-8"/>
      <point x="332" y="112"/>
      <point x="332" y="296" type="curve" smooth="yes"/>
      <point x="332" y="348" type="line"/>
      <point x="417" y="348" type="line"/>
      <point x="417" y="18" type="line" smooth="yes"/>
      <point x="417" y="-19"/>
      <point x="401" y="-31"/>
      <point x="371" y="-34" type="curve" smooth="yes"/>
      <point x="335" y="-38" type="line"/>
    </contour>
  </outline>
</glyph>
<glyph name="Pedescender-cy" format="2">
  <advance width="916"/>
  <unicode hex="0524"/>
  <outline>
    <contour>
      <point x="661" y="-179" type="line"/>
      <point x="867" y="-179" type="line"/>
      <point x="867" y="167" type="line"/>
      <point x="770" y="167" type="line"/>
      <point x="770" y="705" type="line"/>
      <point x="80" y="705" type="line"/>
      <point x="80" y="0" type="line"/>
      <point x="305" y="0" type="line"/>
      <point x="305" y="519" type="line"/>
      <point x="545" y="519" type="line"/>
      <point x="545" y="0" type="line"/>
      <point x="661" y="0" type="line"/>
    </contour>
  </outline>
</glyph>
<glyph name="EnLeftHook-cy" format="2">
  <advance width="850"/>
  <unicode hex="0528"/>
  <outline>
    <contour>
      <point x="-5" y="-193" type="line"/>
      <point x="39" y="-190" type="line" smooth="yes"/>
      <point x="236" y="-177"/>
      <point x="305" y="-120"/>
      <point x="305" y="39" type="curve" smooth="yes"/>
      <point x="305" y="262" type="line"/>
      <point x="545" y="262" type="line"/>
      <point x="545" y="0" type="line"/>
      <point x="770" y="0" type="line"/>
      <point x="770" y="705" type="line"/>
      <point x="545" y="705" type="line"/>
      <point x="545" y="448" type="line"/>
      <point x="305" y="448" type="line"/>
      <point x="305" y="705" type="line"/>
      <point x="80" y="705" type="line"/>
      <point x="80" y="28" type="line" smooth="yes"/>
      <point x="80" y="-4"/>
      <point x="67" y="-18"/>
      <point x="31" y="-22" type="curve" smooth="yes"/>
      <point x="-17" y="-28" type="line"/>
    </contour>
  </outline>
</glyph>
<glyph name="enlefthook-cy" format="2">
  <advance width="752"/>
  <unicode hex="0529"/>
  <anchor x="456" y="0" name="bottomright"/>
  <outline>
    <contour>
      <point x="3" y="-193" type="line"/>
      <point x="47" y="-190" type="line" smooth="yes"/>
      <point x="257" y="-176"/>
      <point x="296" y="-101"/>
      <point x="296" y="39" type="curve" smooth="yes"/>
      <point x="296" y="175" type="line"/>
      <point x="456" y="175" type="line"/>
      <point x="456" y="0" type="line"/>
      <point x="681" y="0" type="line"/>
      <point x="681" y="512" type="line"/>
      <point x="456" y="512" type="line"/>
      <point x="456" y="339" type="line"/>
      <point x="296" y="339" type="line"/>
      <point x="296" y="512" type="line"/>
      <point x="71" y="512" type="line"/>
      <point x="71" y="18" type="line" smooth="yes"/>
      <point x="71" y="-19"/>
      <point x="55" y="-31"/>
      <point x="25" y="-34" type="curve" smooth="yes"/>
      <point x="-11" y="-38" type="line"/>
    </contour>
  </outline>
</glyph>
<glyph name="Germandbls" format="2">
  <advance width="837"/>
  <unicode hex="1E9E"/>
  <outline>
    <contour>
      <point x="549" y="-12" type="curve" smooth="yes"/>
      <point x="695" y="-12"/>
      <point x="783" y="84"/>
      <point x="783" y="200" type="curve" smooth="yes"/>
      <point x="783" y="283"/>
      <point x="725" y="342"/>
      <point x="655" y="364" type="curve"/>
      <point x="655" y="372" type="line"/>
      <point x="702" y="403"/>
      <point x="736" y="453"/>
      <point x="736" y="520" type="curve" smooth="yes"/>
      <point x="736" y="635"/>
      <point x="621" y="717"/>
      <point x="432" y="717" type="curve" smooth="yes"/>
      <point x="178" y="717"/>
      <point x="80" y="608"/>
      <point x="80" y="430" type="curve" smooth="yes"/>
      <point x="80" y="0" type="line"/>
      <point x="305" y="0" type="line"/>
      <point x="305" y="438" type="line" smooth="yes"/>
      <point x="305" y="506"/>
      <point x="345" y="537"/>
      <point x="425" y="537" type="curve" smooth="yes"/>
      <point x="497" y="537"/>
      <point x="520" y="515"/>
      <point x="520" y="482" type="curve" smooth="yes"/>
      <point x="520" y="451"/>
      <point x="498" y="428"/>
      <point x="458" y="428" type="curve" smooth="yes"/>
      <point x="406" y="428" type="line"/>
      <point x="406" y="273" type="line"/>
      <point x="498" y="273" type="line" smooth="yes"/>
      <point x="544" y="273"/>
      <point x="573" y="260"/>
      <point x="573" y="221" type="curve" smooth="yes"/>
      <point x="573" y="183"/>
      <point x="549" y="164"/>
      <point x="512" y="164" type="curve" smooth="yes"/>
      <point x="480" y="164"/>
      <point x="453" y="167"/>
      <point x="414" y="185" type="curve"/>
      <point x="359" y="21" type="line"/>
      <point x="419" y="-6"/>
      <point x="473" y="-12"/>
    </contour>
  </outline>
</glyph>
<glyph name="quoteleft" format="2">
  <advance width="342"/>
  <unicode hex="2018"/>
  <outline>
    <contour>
      <point x="45" y="292" type="line"/>
      <point x="297" y="292" type="line"/>
      <point x="297" y="520" type="line"/>
      <point x="126" y="520" type="line"/>
      <point x="175" y="484" type="line"/>
      <point x="182" y="547"/>
      <point x="218" y="598"/>
      <point x="264" y="638" type="curve"/>
      <point x="160" y="715" type="line"/>
      <point x="71" y="643"/>
      <point x="45" y="564"/>
      <point x="45" y="463" type="curve" smooth="yes"/>
    </contour>
  </outline>
</glyph>
<glyph name="dagger" format="2">
  <advance width="403"/>
  <unicode hex="2020"/>
  <outline>
    <contour>
      <point x="126" y="157" type="line"/>
      <point x="277" y="157" type="line"/>
      <point x="277" y="465" type="line"/>
      <point x="383" y="465" type="line"/>
      <point x="383" y="595" type="line"/>
      <point x="277" y="595" type="line"/>
      <point x="277" y="705" type="line"/>
      <point x="126" y="705" type="line"/>
      <point x="126" y="595" type="line"/>
      <point x="20" y="595" type="line"/>
      <point x="20" y="465" type="line"/>
      <point x="126" y="465" type="line"/>
    </contour>
  </outline>
</glyph>
<glyph name="daggerdbl" format="2">
  <advance width="403"/>
  <unicode hex="2021"/>
  <outline>
    <contour>
      <point x="126" y="155" type="line"/>
      <point x="277" y="155" type="line"/>
      <point x="277" y="265" type="line"/>
      <point x="383" y="265" type="line"/>
      <point x="383" y="385" type="line"/>
      <point x="277" y="385" type="line"/>
      <point x="277" y="478" type="line"/>
      <point x="383" y="478" type="line"/>
      <point x="383" y="598" type="line"/>
      <point x="277" y="598" type="line"/>
      <point x="277" y="705" type="line"/>
      <point x="126" y="705" type="line"/>
      <point x="126" y="598" type="line"/>
      <point x="20" y="598" type="line"/>
      <point x="20" y="478" type="line"/>
      <point x="126" y="478" type="line"/>
      <point x="126" y="385" type="line"/>
      <point x="20" y="385" type="line"/>
      <point x="20" y="265" type="line"/>
      <point x="126" y="265" type="line"/>
    </contour>
  </outline>
</glyph>
<glyph name="guilsinglleft" format="2">
  <advance width="343"/>
  <unicode hex="2039"/>
  <outline>
    <contour>
      <point x="180" y="40" type="line"/>
      <point x="319" y="106" type="line"/>
      <point x="224" y="267" type="line"/>
      <point x="319" y="426" type="line"/>
      <point x="177" y="493" type="line"/>
      <point x="44" y="320" type="line"/>
      <point x="44" y="213" type="line"/>
    </contour>
  </outline>
</glyph>
<glyph name="colonsign" format="2">
  <advance width="600"/>
  <unicode hex="20A1"/>
  <guideline x="454" y="352" angle="67.2431"/>
  <guideline x="357" y="352" angle="248.4521"/>
  <guideline x="250" y="412" angle="248.3405"/>
  <guideline x="774" y="790" angle="258.2389"/>
  <outline>
    <contour>
      <point x="38" y="-115" type="line"/>
      <point x="165" y="-115" type="line"/>
      <point x="200" y="105" type="line"/>
      <point x="170" y="91" type="line"/>
      <point x="198" y="72"/>
      <point x="253" y="48"/>
      <point x="285" y="40" type="curve"/>
      <point x="288" y="97" type="line"/>
      <point x="256" y="-115" type="line"/>
      <point x="383" y="-115" type="line"/>
      <point x="404" y="38" type="line"/>
      <point x="314" y="19" type="line"/>
      <point x="331" y="17"/>
      <point x="348" y="16"/>
      <point x="365" y="16" type="curve" smooth="yes"/>
      <point x="444" y="16"/>
      <point x="523" y="37"/>
      <point x="574" y="75" type="curve"/>
      <point x="508" y="235" type="line"/>
      <point x="463" y="206"/>
      <point x="420" y="203"/>
      <point x="377" y="203" type="curve" smooth="yes"/>
      <point x="304" y="203"/>
      <point x="251" y="251"/>
      <point x="251" y="353" type="curve" smooth="yes"/>
      <point x="251" y="440"/>
      <point x="292" y="502"/>
      <point x="377" y="502" type="curve" smooth="yes"/>
      <point x="420" y="502"/>
      <point x="463" y="492"/>
      <point x="508" y="470" type="curve"/>
      <point x="571" y="631" type="line"/>
      <point x="550" y="645"/>
      <point x="520" y="659"/>
      <point x="496" y="665" type="curve"/>
      <point x="513" y="631" type="line"/>
      <point x="543" y="820" type="line"/>
      <point x="416" y="820" type="line"/>
      <point x="389" y="635" type="line"/>
      <point x="425" y="664" type="line"/>
      <point x="405" y="667"/>
      <point x="321" y="665"/>
      <point x="293" y="661" type="curve"/>
      <point x="298" y="636" type="line"/>
      <point x="325" y="820" type="line"/>
      <point x="198" y="820" type="line"/>
      <point x="155" y="573" type="line"/>
      <point x="242" y="670" type="line"/>
      <point x="107" y="624"/>
      <point x="28" y="499"/>
      <point x="28" y="353" type="curve" smooth="yes"/>
      <point x="28" y="277"/>
      <point x="55" y="194"/>
      <point x="103" y="133" type="curve"/>
      <point x="92" y="178" type="line"/>
    </contour>
  </outline>
</glyph>
<glyph name="franc" format="2">
  <advance width="600"/>
  <unicode hex="20A3"/>
  <outline>
    <contour>
      <point x="128" y="0" type="line"/>
      <point x="331" y="0" type="line"/>
      <point x="331" y="99" type="line"/>
      <point x="484" y="99" type="line"/>
      <point x="484" y="217" type="line"/>
      <point x="331" y="217" type="line"/>
      <point x="331" y="307" type="line"/>
      <point x="548" y="307" type="line"/>
      <point x="548" y="461" type="line"/>
      <point x="331" y="461" type="line"/>
      <point x="331" y="551" type="line"/>
      <point x="571" y="551" type="line"/>
      <point x="571" y="705" type="line"/>
      <point x="128" y="705" type="line"/>
      <point x="128" y="217" type="line"/>
      <point x="14" y="217" type="line"/>
      <point x="14" y="99" type="line"/>
      <point x="128" y="99" type="line"/>
    </contour>
  </outline>
</glyph>
<glyph name="lira" format="2">
  <advance width="600"/>
  <unicode hex="20A4"/>
  <outline>
    <contour>
      <point x="36" y="0" type="line"/>
      <point x="577" y="0" type="line"/>
      <point x="577" y="148" type="line"/>
      <point x="308" y="148" type="line"/>
      <point x="308" y="219" type="line"/>
      <point x="477" y="219" type="line"/>
      <point x="477" y="327" type="line"/>
      <point x="288" y="327" type="line"/>
      <point x="288" y="387" type="line"/>
      <point x="477" y="387" type="line"/>
      <point x="477" y="495" type="line"/>
      <point x="279" y="495" type="line"/>
      <point x="308" y="464" type="line"/>
      <point x="308" y="505" type="line" smooth="yes"/>
      <point x="308" y="548"/>
      <point x="329" y="570"/>
      <point x="392" y="570" type="curve" smooth="yes"/>
      <point x="432" y="570"/>
      <point x="483" y="566"/>
      <point x="536" y="543" type="curve"/>
      <point x="574" y="686" type="line"/>
      <point x="509" y="708"/>
      <point x="443" y="717"/>
      <point x="367" y="717" type="curve" smooth="yes"/>
      <point x="180" y="717"/>
      <point x="123" y="617"/>
      <point x="123" y="476" type="curve" smooth="yes"/>
      <point x="123" y="438" type="line"/>
      <point x="147" y="495" type="line"/>
      <point x="36" y="495" type="line"/>
      <point x="36" y="387" type="line"/>
      <point x="143" y="387" type="line"/>
      <point x="143" y="327" type="line"/>
      <point x="36" y="327" type="line"/>
      <point x="36" y="219" type="line"/>
      <point x="123" y="219" type="line"/>
      <point x="123" y="148" type="line"/>
      <point x="36" y="148" type="line"/>
    </contour>
  </outline>
</glyph>
<glyph name="peseta" format="2">
  <advance width="600"/>
  <unicode hex="20A7"/>
  <outline>
    <contour>
      <point x="118" y="0" type="line"/>
      <point x="295" y="0" type="line"/>
      <point x="295" y="204" type="line"/>
      <point x="298" y="204" type="line" smooth="yes"/>
      <point x="423" y="204"/>
      <point x="475" y="299"/>
      <point x="483" y="436" type="curve"/>
      <point x="449" y="395" type="line"/>
      <point x="586" y="395" type="line"/>
      <point x="586" y="513" type="line"/>
      <point x="450" y="513" type="line"/>
      <point x="485" y="472" type="line"/>
      <point x="477" y="609"/>
      <point x="413" y="705"/>
      <point x="268" y="705" type="curve" smooth="yes"/>
      <point x="118" y="705" type="line"/>
      <point x="118" y="513" type="line"/>
      <point x="14" y="513" type="line"/>
      <point x="14" y="395" type="line"/>
      <point x="118" y="395" type="line"/>
    </contour>
    <contour>
      <point x="261" y="339" type="line"/>
      <point x="261" y="568" type="line"/>
      <point x="283" y="568" type="line" smooth="yes"/>
      <point x="319" y="568"/>
      <point x="340" y="540"/>
      <point x="340" y="452" type="curve" smooth="yes"/>
      <point x="340" y="364"/>
      <point x="319" y="339"/>
      <point x="283" y="339" type="curve" smooth="yes"/>
    </contour>
  </outline>
</glyph>
<glyph name="dong" format="2">
  <advance width="600"/>
  <unicode hex="20AB"/>
  <outline>
    <contour>
      <point x="211" y="-12" type="curve" smooth="yes"/>
      <point x="269" y="-12"/>
      <point x="313" y="20"/>
      <point x="343" y="56" type="curve"/>
      <point x="351" y="56" type="line"/>
      <point x="351" y="0" type="line"/>
      <point x="516" y="0" type="line"/>
      <point x="516" y="512" type="line"/>
      <point x="599" y="512" type="line"/>
      <point x="599" y="620" type="line"/>
      <point x="516" y="620" type="line"/>
      <point x="516" y="705" type="line"/>
      <point x="348" y="705" type="line"/>
      <point x="348" y="620" type="line"/>
      <point x="198" y="620" type="line"/>
      <point x="198" y="512" type="line"/>
      <point x="338" y="512" type="line"/>
      <point x="338" y="397" type="line"/>
      <point x="330" y="397" type="line"/>
      <point x="300" y="439"/>
      <point x="256" y="456"/>
      <point x="211" y="456" type="curve" smooth="yes"/>
      <point x="83" y="456"/>
      <point x="12" y="372"/>
      <point x="12" y="226" type="curve" smooth="yes"/>
      <point x="12" y="77"/>
      <point x="83" y="-12"/>
    </contour>
    <contour>
      <point x="41" y="-171" type="line"/>
      <point x="526" y="-171" type="line"/>
      <point x="526" y="-63" type="line"/>
      <point x="41" y="-63" type="line"/>
    </contour>
    <contour>
      <point x="274" y="117" type="curve" smooth="yes"/>
      <point x="223" y="117"/>
      <point x="187" y="157"/>
      <point x="187" y="218" type="curve" smooth="yes"/>
      <point x="187" y="279"/>
      <point x="223" y="319"/>
      <point x="274" y="319" type="curve" smooth="yes"/>
      <point x="325" y="319"/>
      <point x="361" y="279"/>
      <point x="361" y="218" type="curve" smooth="yes"/>
      <point x="361" y="157"/>
      <point x="325" y="117"/>
    </contour>
  </outline>
</glyph>
<glyph name="peso" format="2">
  <advance width="600"/>
  <unicode hex="20B1"/>
  <outline>
    <contour>
      <point x="113" y="0" type="line"/>
      <point x="290" y="0" type="line"/>
      <point x="290" y="204" type="line"/>
      <point x="293" y="204" type="line" smooth="yes"/>
      <point x="373" y="204"/>
      <point x="457" y="253"/>
      <point x="484" y="335" type="curve"/>
      <point x="436" y="313" type="line"/>
      <point x="586" y="313" type="line"/>
      <point x="586" y="421" type="line"/>
      <point x="455" y="421" type="line"/>
      <point x="468" y="419" type="line"/>
      <point x="470" y="437"/>
      <point x="470" y="481"/>
      <point x="468" y="501" type="curve"/>
      <point x="456" y="489" type="line"/>
      <point x="586" y="489" type="line"/>
      <point x="586" y="597" type="line"/>
      <point x="436" y="597" type="line"/>
      <point x="486" y="584" type="line"/>
      <point x="457" y="666"/>
      <point x="371" y="705"/>
      <point x="283" y="705" type="curve" smooth="yes"/>
      <point x="113" y="705" type="line"/>
      <point x="113" y="587" type="line"/>
      <point x="14" y="587" type="line"/>
      <point x="14" y="479" type="line"/>
      <point x="133" y="479" type="line"/>
      <point x="133" y="411" type="line"/>
      <point x="14" y="411" type="line"/>
      <point x="14" y="303" type="line"/>
      <point x="113" y="303" type="line"/>
    </contour>
    <contour>
      <point x="261" y="339" type="line"/>
      <point x="261" y="568" type="line"/>
      <point x="283" y="568" type="line" smooth="yes"/>
      <point x="319" y="568"/>
      <point x="340" y="540"/>
      <point x="340" y="452" type="curve" smooth="yes"/>
      <point x="340" y="364"/>
      <point x="319" y="339"/>
      <point x="283" y="339" type="curve" smooth="yes"/>
    </contour>
  </outline>
</glyph>
<glyph name="guarani" format="2">
  <advance width="600"/>
  <unicode hex="20B2"/>
  <outline>
    <contour>
      <point x="251" y="-115" type="line"/>
      <point x="411" y="-115" type="line"/>
      <point x="411" y="46" type="line"/>
      <point x="381" y="17" type="line"/>
      <point x="443" y="20"/>
      <point x="508" y="36"/>
      <point x="568" y="69" type="curve"/>
      <point x="568" y="407" type="line"/>
      <point x="317" y="407" type="line"/>
      <point x="317" y="277" type="line"/>
      <point x="418" y="277" type="line"/>
      <point x="418" y="138" type="line"/>
      <point x="441" y="202" type="line"/>
      <point x="410" y="192"/>
      <point x="389" y="191"/>
      <point x="367" y="191" type="curve" smooth="yes"/>
      <point x="268" y="191"/>
      <point x="216" y="248"/>
      <point x="216" y="353" type="curve" smooth="yes"/>
      <point x="216" y="450"/>
      <point x="268" y="507"/>
      <point x="367" y="507" type="curve" smooth="yes"/>
      <point x="410" y="507"/>
      <point x="463" y="499"/>
      <point x="508" y="480" type="curve"/>
      <point x="554" y="647" type="line"/>
      <point x="505" y="673"/>
      <point x="455" y="683"/>
      <point x="381" y="688" type="curve"/>
      <point x="411" y="661" type="line"/>
      <point x="411" y="820" type="line"/>
      <point x="251" y="820" type="line"/>
      <point x="251" y="661" type="line"/>
      <point x="289" y="684" type="line"/>
      <point x="121" y="656"/>
      <point x="18" y="534"/>
      <point x="18" y="353" type="curve" smooth="yes"/>
      <point x="18" y="171"/>
      <point x="121" y="49"/>
      <point x="289" y="21" type="curve"/>
      <point x="251" y="46" type="line"/>
    </contour>
  </outline>
</glyph>
<glyph name="rupeeIndian" format="2">
  <advance width="600"/>
  <unicode hex="20B9"/>
  <outline>
    <contour>
      <point x="347" y="0" type="line"/>
      <point x="607" y="0" type="line"/>
      <point x="478" y="178" type="line" smooth="yes"/>
      <point x="440" y="231"/>
      <point x="406" y="243"/>
      <point x="362" y="250" type="curve" smooth="yes"/>
      <point x="349" y="252" type="line"/>
      <point x="349" y="260" type="line"/>
      <point x="400" y="268"/>
      <point x="477" y="318"/>
      <point x="483" y="451" type="curve"/>
      <point x="450" y="414" type="line"/>
      <point x="581" y="414" type="line"/>
      <point x="581" y="522" type="line"/>
      <point x="447" y="522" type="line"/>
      <point x="481" y="499" type="line"/>
      <point x="477" y="539"/>
      <point x="465" y="590"/>
      <point x="437" y="611" type="curve"/>
      <point x="426" y="597" type="line"/>
      <point x="581" y="597" type="line"/>
      <point x="581" y="705" type="line"/>
      <point x="21" y="705" type="line"/>
      <point x="21" y="597" type="line"/>
      <point x="192" y="597" type="line" smooth="yes"/>
      <point x="247" y="597"/>
      <point x="283" y="551"/>
      <point x="285" y="510" type="curve"/>
      <point x="311" y="522" type="line"/>
      <point x="21" y="522" type="line"/>
      <point x="21" y="414" type="line"/>
      <point x="311" y="414" type="line"/>
      <point x="287" y="427" type="line"/>
      <point x="282" y="356"/>
      <point x="237" y="339"/>
      <point x="192" y="339" type="curve" smooth="yes"/>
      <point x="21" y="339" type="line"/>
      <point x="21" y="231" type="line"/>
      <point x="160" y="231" type="line" smooth="yes"/>
      <point x="180" y="231"/>
      <point x="195" y="220"/>
      <point x="207" y="203" type="curve" smooth="yes"/>
    </contour>
  </outline>
</glyph>
<glyph name="liraTurkish" format="2">
  <advance width="600"/>
  <unicode hex="20BA"/>
  <outline>
    <contour>
      <point x="114" y="0" type="line"/>
      <point x="365" y="0" type="line" smooth="yes"/>
      <point x="517" y="0"/>
      <point x="590" y="66"/>
      <point x="590" y="205" type="curve" smooth="yes"/>
      <point x="590" y="270" type="line"/>
      <point x="416" y="270" type="line"/>
      <point x="416" y="203" type="line" smooth="yes"/>
      <point x="416" y="168"/>
      <point x="399" y="158"/>
      <point x="372" y="158" type="curve" smooth="yes"/>
      <point x="314" y="158" type="line"/>
      <point x="314" y="288" type="line"/>
      <point x="477" y="367" type="line"/>
      <point x="477" y="483" type="line"/>
      <point x="284" y="389" type="line"/>
      <point x="284" y="464" type="line"/>
      <point x="477" y="557" type="line"/>
      <point x="477" y="675" type="line"/>
      <point x="314" y="596" type="line"/>
      <point x="314" y="705" type="line"/>
      <point x="114" y="705" type="line"/>
      <point x="114" y="496" type="line"/>
      <point x="31" y="458" type="line"/>
      <point x="31" y="339" type="line"/>
      <point x="144" y="396" type="line"/>
      <point x="144" y="321" type="line"/>
      <point x="31" y="264" type="line"/>
      <point x="31" y="149" type="line"/>
      <point x="114" y="189" type="line"/>
    </contour>
  </outline>
</glyph>
<glyph name="manat" format="2">
  <advance width="600"/>
  <unicode hex="20BC"/>
  <outline>
    <contour>
      <point x="13" y="0" type="line"/>
      <point x="171" y="0" type="line"/>
      <point x="171" y="289" type="line" smooth="yes"/>
      <point x="171" y="357"/>
      <point x="193" y="414"/>
      <point x="255" y="414" type="curve"/>
      <point x="245" y="414" type="line"/>
      <point x="245" y="160" type="line"/>
      <point x="355" y="160" type="line"/>
      <point x="355" y="414" type="line"/>
      <point x="345" y="414" type="line"/>
      <point x="403" y="414"/>
      <point x="429" y="366"/>
      <point x="429" y="289" type="curve" smooth="yes"/>
      <point x="429" y="0" type="line"/>
      <point x="587" y="0" type="line"/>
      <point x="587" y="230" type="line" smooth="yes"/>
      <point x="587" y="384"/>
      <point x="547" y="538"/>
      <point x="355" y="567" type="curve"/>
      <point x="380" y="534" type="line"/>
      <point x="380" y="705" type="line"/>
      <point x="220" y="705" type="line"/>
      <point x="220" y="534" type="line"/>
      <point x="245" y="567" type="line"/>
      <point x="53" y="538"/>
      <point x="13" y="384"/>
      <point x="13" y="230" type="curve" smooth="yes"/>
    </contour>
  </outline>
</glyph>
<glyph name="ruble" format="2">
  <advance width="600"/>
  <unicode hex="20BD"/>
  <outline>
    <contour>
      <point x="113" y="0" type="line"/>
      <point x="300" y="0" type="line"/>
      <point x="300" y="115" type="line"/>
      <point x="461" y="115" type="line"/>
      <point x="461" y="223" type="line"/>
      <point x="300" y="223" type="line"/>
      <point x="300" y="291" type="line"/>
      <point x="349" y="291" type="line" smooth="yes"/>
      <point x="514" y="291"/>
      <point x="597" y="367"/>
      <point x="597" y="495" type="curve" smooth="yes"/>
      <point x="597" y="610"/>
      <point x="513" y="705"/>
      <point x="349" y="705" type="curve" smooth="yes"/>
      <point x="113" y="705" type="line"/>
      <point x="113" y="399" type="line"/>
      <point x="14" y="399" type="line"/>
      <point x="14" y="291" type="line"/>
      <point x="123" y="291" type="line"/>
      <point x="123" y="223" type="line"/>
      <point x="14" y="223" type="line"/>
      <point x="14" y="115" type="line"/>
      <point x="113" y="115" type="line"/>
    </contour>
    <contour>
      <point x="296" y="399" type="line"/>
      <point x="296" y="553" type="line"/>
      <point x="342" y="553" type="line" smooth="yes"/>
      <point x="399" y="553"/>
      <point x="423" y="530"/>
      <point x="423" y="476" type="curve" smooth="yes"/>
      <point x="423" y="422"/>
      <point x="399" y="399"/>
      <point x="342" y="399" type="curve" smooth="yes"/>
    </contour>
  </outline>
</glyph>
<glyph name="literSign" format="2">
  <advance width="600"/>
  <unicode hex="2113"/>
  <outline>
    <contour>
      <point x="338" y="-12" type="curve" smooth="yes"/>
      <point x="400" y="-12"/>
      <point x="470" y="14"/>
      <point x="509" y="51" type="curve"/>
      <point x="460" y="170" type="line"/>
      <point x="434" y="150"/>
      <point x="414" y="141"/>
      <point x="392" y="141" type="curve" smooth="yes"/>
      <point x="341" y="141"/>
      <point x="326" y="172"/>
      <point x="326" y="215" type="curve" smooth="yes"/>
      <point x="326" y="291" type="line"/>
      <point x="365" y="319" type="line" smooth="yes"/>
      <point x="477" y="399"/>
      <point x="504" y="467"/>
      <point x="504" y="556" type="curve" smooth="yes"/>
      <point x="504" y="655"/>
      <point x="448" y="717"/>
      <point x="347" y="717" type="curve" smooth="yes"/>
      <point x="230" y="717"/>
      <point x="145" y="631"/>
      <point x="145" y="512" type="curve" smooth="yes"/>
      <point x="145" y="265" type="line"/>
      <point x="36" y="179" type="line"/>
      <point x="96" y="115" type="line"/>
      <point x="164" y="164" type="line"/>
      <point x="145" y="206" type="line"/>
      <point x="145" y="178" type="line" smooth="yes"/>
      <point x="145" y="61"/>
      <point x="219" y="-12"/>
    </contour>
    <contour>
      <point x="326" y="415" type="curve"/>
      <point x="326" y="543" type="line" smooth="yes"/>
      <point x="326" y="570"/>
      <point x="341" y="584"/>
      <point x="361" y="584" type="curve" smooth="yes"/>
      <point x="380" y="584"/>
      <point x="392" y="570"/>
      <point x="392" y="543" type="curve" smooth="yes"/>
      <point x="392" y="500"/>
      <point x="371" y="458"/>
      <point x="337" y="424" type="curve" smooth="yes"/>
      <point x="335" y="422"/>
      <point x="331" y="418"/>
    </contour>
  </outline>
</glyph>
<glyph name="partialdiff" format="2">
  <advance width="600"/>
  <unicode hex="2202"/>
  <outline>
    <contour>
      <point x="281" y="-12" type="curve" smooth="yes"/>
      <point x="466" y="-12"/>
      <point x="575" y="132"/>
      <point x="575" y="343" type="curve" smooth="yes"/>
      <point x="575" y="579"/>
      <point x="434" y="717"/>
      <point x="211" y="717" type="curve" smooth="yes"/>
      <point x="164" y="717"/>
      <point x="136" y="715"/>
      <point x="108" y="709" type="curve"/>
      <point x="108" y="559" type="line"/>
      <point x="168" y="559" type="line" smooth="yes"/>
      <point x="315" y="559"/>
      <point x="374" y="511"/>
      <point x="384" y="408" type="curve"/>
      <point x="376" y="408" type="line"/>
      <point x="357" y="444"/>
      <point x="308" y="475"/>
      <point x="246" y="475" type="curve" smooth="yes"/>
      <point x="115" y="475"/>
      <point x="22" y="378"/>
      <point x="22" y="235" type="curve" smooth="yes"/>
      <point x="22" y="94"/>
      <point x="127" y="-12"/>
    </contour>
    <contour>
      <point x="293" y="139" type="curve" smooth="yes"/>
      <point x="250" y="139"/>
      <point x="227" y="183"/>
      <point x="227" y="237" type="curve" smooth="yes"/>
      <point x="227" y="290"/>
      <point x="250" y="331"/>
      <point x="293" y="331" type="curve" smooth="yes"/>
      <point x="337" y="331"/>
      <point x="361" y="291"/>
      <point x="361" y="237" type="curve" smooth="yes"/>
      <point x="361" y="182"/>
      <point x="337" y="139"/>
    </contour>
  </outline>
</glyph>
<glyph name="integral" format="2">
  <advance width="600"/>
  <unicode hex="222B"/>
  <outline>
    <contour>
      <point x="65" y="-192" type="line"/>
      <point x="161" y="-192" type="line" smooth="yes"/>
      <point x="285" y="-192"/>
      <point x="403" y="-150"/>
      <point x="403" y="23" type="curve" smooth="yes"/>
      <point x="403" y="497" type="line" smooth="yes"/>
      <point x="403" y="535"/>
      <point x="426" y="556"/>
      <point x="472" y="556" type="curve" smooth="yes"/>
      <point x="535" y="556" type="line"/>
      <point x="535" y="717" type="line"/>
      <point x="439" y="717" type="line" smooth="yes"/>
      <point x="315" y="717"/>
      <point x="195" y="674"/>
      <point x="195" y="501" type="curve" smooth="yes"/>
      <point x="195" y="27" type="line" smooth="yes"/>
      <point x="195" y="-11"/>
      <point x="174" y="-32"/>
      <point x="128" y="-32" type="curve" smooth="yes"/>
      <point x="65" y="-32" type="line"/>
    </contour>
  </outline>
</glyph>
<glyph name="rightanglebracket-math" format="2">
  <advance width="600"/>
  <unicode hex="27E9"/>
  <outline>
    <contour>
      <point x="283" y="-32" type="line"/>
      <point x="407" y="333" type="line"/>
      <point x="407" y="346" type="line"/>
      <point x="284" y="727" type="line"/>
      <point x="193" y="700" type="line"/>
      <point x="308" y="349" type="line"/>
      <point x="192" y="-6" type="line"/>
    </contour>
  </outline>
</glyph>
<glyph name="__Zedescener-cy.case" format="2">
  <advance width="253"/>
  <anchor x="127" y="0" name="_bottom"/>
  <outline>
    <contour>
      <point x="24" y="-169" type="line"/>
      <point x="229" y="-169" type="line"/>
      <point x="229" y="108" type="line"/>
      <point x="24" y="108" type="line"/>
    </contour>
  </outline>
</glyph>
<glyph name="__strokehook-cy" format="2">
  <advance width="629"/>
  <anchor x="86" y="0" name="_bottomright"/>
  <outline>
    <contour>
      <point x="61" y="-189" type="line"/>
      <point x="154" y="-183" type="line" smooth="yes"/>
      <point x="325" y="-172"/>
      <point x="402" y="-100"/>
      <point x="402" y="45" type="curve" smooth="yes"/>
      <point x="402" y="167" type="line"/>
      <point x="86" y="167" type="line"/>
      <point x="86" y="0" type="line"/>
      <point x="206" y="0" type="line"/>
      <point x="206" y="-23"/>
      <point x="175" y="-43"/>
      <point x="116" y="-48" type="curve" smooth="yes"/>
      <point x="47" y="-54" type="line"/>
    </contour>
  </outline>
</glyph>
<glyph name="__tail-cy.case" format="2">
  <advance width="41"/>
  <anchor x="0" y="0" name="_bottomright"/>
  <outline>
    <contour>
      <point x="14" y="-179" type="line"/>
      <point x="195" y="-179" type="line"/>
      <point x="312" y="167" type="line"/>
      <point x="0" y="167" type="line"/>
      <point x="0" y="0" type="line"/>
      <point x="74" y="0" type="line"/>
    </contour>
  </outline>
</glyph>
<glyph name="_part.oslash" format="2">
  <advance width="678"/>
  <anchor x="339" y="256" name="center"/>
  <outline>
    <contour>
      <point x="339" y="-12" type="curve" smooth="yes"/>
      <point x="522" y="-12"/>
      <point x="637" y="96"/>
      <point x="637" y="257" type="curve" smooth="yes"/>
      <point x="637" y="418"/>
      <point x="522" y="524"/>
      <point x="339" y="524" type="curve" smooth="yes"/>
      <point x="156" y="524"/>
      <point x="41" y="418"/>
      <point x="41" y="257" type="curve" smooth="yes"/>
      <point x="41" y="96"/>
      <point x="156" y="-12"/>
    </contour>
    <contour>
      <point x="340" y="141" type="curve" smooth="yes"/>
      <point x="269" y="141"/>
      <point x="237" y="185"/>
      <point x="237" y="257" type="curve" smooth="yes"/>
      <point x="237" y="330"/>
      <point x="267" y="371"/>
      <point x="339" y="371" type="curve" smooth="yes"/>
      <point x="413" y="371"/>
      <point x="441" y="330"/>
      <point x="441" y="257" type="curve" smooth="yes"/>
      <point x="441" y="185"/>
      <point x="413" y="141"/>
    </contour>
  </outline>
</glyph>
<glyph name="a.ss01" format="2">
  <advance width="709"/>
  <anchor x="298" y="0" name="bottom"/>
  <anchor x="576" y="0" name="ogonek"/>
  <anchor x="338" y="484" name="top"/>
  <outline>
    <contour>
      <point x="267" y="-12" type="curve" smooth="yes"/>
      <point x="350" y="-12"/>
      <point x="398" y="17"/>
      <point x="446" y="86" type="curve"/>
      <point x="454" y="86" type="line"/>
      <point x="454" y="0" type="line"/>
      <point x="647" y="0" type="line"/>
      <point x="647" y="512" type="line"/>
      <point x="422" y="512" type="line"/>
      <point x="422" y="448" type="line"/>
      <point x="414" y="448" type="line"/>
      <point x="382" y="492"/>
      <point x="335" y="524"/>
      <point x="257" y="524" type="curve" smooth="yes"/>
      <point x="111" y="524"/>
      <point x="41" y="410"/>
      <point x="41" y="256" type="curve" smooth="yes"/>
      <point x="41" y="94"/>
      <point x="116" y="-12"/>
    </contour>
    <contour>
      <point x="340" y="151" type="curve" smooth="yes"/>
      <point x="283" y="151"/>
      <point x="257" y="187"/>
      <point x="257" y="257" type="curve" smooth="yes"/>
      <point x="257" y="325"/>
      <point x="287" y="361"/>
      <point x="341" y="361" type="curve" smooth="yes"/>
      <point x="399" y="361"/>
      <point x="425" y="325"/>
      <point x="425" y="257" type="curve" smooth="yes"/>
      <point x="425" y="187"/>
      <point x="398" y="151"/>
    </contour>
  </outline>
</glyph>
